<?xml version="1.0" encoding="UTF-8"?>
<svg version="1.1" xmlns="http://www.w3.org/2000/svg" width="1500" height="1500">
<path d="M0 0 C1.65368803 0.09132146 3.30744287 0.1814402 4.96125793 0.27043152 C9.27270079 0.50581634 13.58298446 0.75816614 17.89324951 1.01409912 C21.39377296 1.21918917 24.89490017 1.41248594 28.39612865 1.60510731 C38.37692134 2.1542388 48.35656394 2.71632638 58.33203125 3.35546875 C59.52800934 3.4263974 60.72398743 3.49732605 61.95620728 3.57040405 C63.02938202 3.64344757 64.10255676 3.71649109 65.20825195 3.79174805 C66.12846634 3.85122116 67.04868073 3.91069427 67.9967804 3.9719696 C70.33203125 4.35546875 70.33203125 4.35546875 73.58203125 6.41796875 C75.84566889 10.21764622 76.29142641 13.03819051 75.33203125 17.35546875 C73.20754855 20.79859589 72.18350484 22.07164422 68.33203125 23.35546875 C66.66833139 23.3894025 65.00294196 23.35842217 63.34033203 23.28930664 C62.32196259 23.24905869 61.30359314 23.20881073 60.25436401 23.16734314 C59.14819733 23.11727615 58.04203064 23.06720917 56.90234375 23.015625 C55.74840118 22.96712906 54.59445862 22.91863312 53.4055481 22.8686676 C40.33271708 22.30134402 27.26984301 21.55239255 14.20703125 20.79296875 C9.47540638 20.51821486 4.74361936 20.24652076 0.01171875 19.9765625 C-1.57577682 19.88283607 -1.57577682 19.88283607 -3.19534302 19.78721619 C-18.23349143 18.88886128 -18.23349143 18.88886128 -31.98046875 24.41796875 C-39.69707082 32.85239426 -40.01306679 44.8857556 -41.35546875 55.73046875 C-41.67193781 58.19039505 -41.99209201 60.64980864 -42.31391907 63.10903931 C-42.51153491 64.62885676 -42.70539731 66.14916845 -42.89494324 67.67001343 C-43.3110526 70.95699118 -43.74816758 74.16744514 -44.66796875 77.35546875 C-43.73404297 77.54109375 -43.73404297 77.54109375 -42.78125 77.73046875 C-24.88055438 81.72504518 -4.35676718 88.41489933 7.33203125 103.35546875 C12.06248056 113.09802425 9.15307961 125.88400485 7.90872574 136.28071594 C7.63360956 138.57954111 7.36837997 140.87934523 7.10519409 143.17956543 C6.72144404 146.52615844 6.33384501 149.87227206 5.94329834 153.21807861 C4.88146209 162.33368302 3.85950137 171.45381479 2.83984375 180.57421875 C2.68162329 181.98821394 2.68162329 181.98821394 2.52020645 183.43077469 C-6.46569272 263.9024482 -12.97276813 344.67062822 -17.98046875 425.48046875 C-18.04268867 426.47996426 -18.1049086 427.47945976 -18.16901398 428.50924301 C-18.58967681 435.2726012 -19.00259876 442.03638605 -19.40625 448.80078125 C-19.46151352 449.72599642 -19.51677704 450.65121159 -19.57371521 451.60446358 C-20.21229282 462.39149211 -20.76511776 473.17870661 -21.20849609 483.97558594 C-21.25161895 485.01251776 -21.2947418 486.04944958 -21.33917141 487.11780357 C-21.5450064 492.10323307 -21.74045195 497.08871005 -21.91804504 502.07522583 C-21.98835132 503.86379873 -22.058871 505.65236326 -22.12963867 507.44091797 C-22.15451796 508.24331783 -22.17939724 509.0457177 -22.20503044 509.87243271 C-22.67881026 521.27750854 -22.67881026 521.27750854 -26.41796875 525.18359375 C-27.53171875 525.88742187 -27.53171875 525.88742187 -28.66796875 526.60546875 C-29.5703125 527.18425781 -30.47265625 527.76304687 -31.40234375 528.359375 C-33.01882813 529.34744141 -33.01882813 529.34744141 -34.66796875 530.35546875 C-35.96550031 531.17604607 -37.26233088 531.9977325 -38.55859375 532.8203125 C-114.86702524 580.76810032 -201.59263729 602.61008519 -290.66796875 582.35546875 C-299.08112219 580.28966719 -307.38445366 577.88629828 -315.66796875 575.35546875 C-316.46428711 575.11747559 -317.26060547 574.87948242 -318.08105469 574.63427734 C-337.25492133 568.85866308 -355.90974162 560.73276175 -373.62304688 551.42285156 C-375.90429108 550.23211617 -378.1995178 549.07103313 -380.49609375 547.91015625 C-390.31357507 542.90738196 -399.87180279 537.57204817 -409.29296875 531.85546875 C-410.28304932 531.25589355 -411.27312988 530.65631836 -412.29321289 530.03857422 C-420.5715687 524.9496646 -420.5715687 524.9496646 -422.66796875 522.35546875 C-423.1452179 519.99740601 -423.1452179 519.99740601 -423.29418945 517.05224609 C-423.35893463 515.88167664 -423.42367981 514.71110718 -423.49038696 513.50506592 C-423.55039553 512.12190196 -423.60953068 510.73869995 -423.66796875 509.35546875 C-423.7442965 507.75854005 -423.82118142 506.16163792 -423.89852905 504.5647583 C-424.12102606 499.83503417 -424.32143485 495.10456195 -424.51712799 490.37366104 C-424.74866827 484.78988924 -424.98925782 479.20650287 -425.22827148 473.62304688 C-425.27870668 472.44056932 -425.32914188 471.25809177 -425.38110542 470.03978157 C-429.53285345 372.81551849 -434.86024164 275.63926506 -447.51025391 141.18066406 C-447.65081231 139.81304641 -447.79130061 138.44542155 -447.93171692 137.07778931 C-448.19739319 134.49039527 -448.46914546 131.90388985 -448.74443054 129.31747437 C-450.88526835 108.54250662 -450.88526835 108.54250662 -443.85546875 99.41796875 C-413.50567324 66.6654811 -342.60924645 65.2273704 -301.41796875 61.66796875 C-300.71410034 61.60703033 -300.01023193 61.54609192 -299.28503418 61.48330688 C-281.22332316 59.94210663 -263.22712667 59.19482024 -245.1015625 59.1875 C-243.16992674 59.18426889 -241.2382912 59.18090361 -239.30665588 59.17741394 C-235.27873165 59.17147745 -231.25082868 59.16956805 -227.22290039 59.17016602 C-223.17142219 59.17024678 -219.12005827 59.16337496 -215.06860352 59.1496582 C-183.7242172 59.04527843 -152.60373155 59.72907667 -121.41796875 63.16796875 C-120.64819702 63.25028748 -119.87842529 63.3326062 -119.08532715 63.41741943 C-100.12454817 65.45572006 -81.34857025 68.51444887 -62.66796875 72.35546875 C-62.59122925 71.08533936 -62.59122925 71.08533936 -62.51293945 69.78955078 C-61.95317968 61.20971349 -61.05780697 52.74585234 -59.85546875 44.23046875 C-59.70271484 43.05871094 -59.54996094 41.88695312 -59.39257812 40.6796875 C-57.54505783 27.52066946 -54.46978349 17.00613206 -44.85546875 7.60546875 C-31.47739143 -1.83787995 -15.62915352 -0.95972749 0 0 Z M-305.47570801 76.12762451 C-307.70785592 76.35961427 -309.94100288 76.57801636 -312.17480469 76.79345703 C-378.76149076 81.42258047 -378.76149076 81.42258047 -434.54296875 110.35546875 C-435.96795609 113.37531524 -435.96795609 113.37531524 -435.04296875 116.79296875 C-428.93564724 127.95293377 -412.74172271 131.96630889 -401.37939453 135.32861328 C-370.38071132 144.05325298 -337.95397308 149.72144088 -305.85736084 152.18682861 C-304.31163556 152.30588966 -302.76612034 152.4276931 -301.22076416 152.55145264 C-250.36903354 156.61594877 -198.66118504 157.2945253 -147.75909424 153.51043701 C-145.67551378 153.35602789 -143.5915035 153.20906673 -141.50732422 153.06298828 C-118.34999761 151.40619079 -95.4225492 147.94129181 -72.66796875 143.35546875 C-71.66307145 136.52475205 -70.66711861 129.69277334 -69.67724609 122.85986328 C-69.33976617 120.53762605 -69.00027244 118.21568051 -68.65869141 115.89404297 C-68.16684205 112.54860695 -67.68234778 109.20217384 -67.19921875 105.85546875 C-66.96954407 104.3096814 -66.96954407 104.3096814 -66.73522949 102.73266602 C-65.94545478 97.20764822 -65.50518893 91.9364913 -65.66796875 86.35546875 C-87.16652009 82.14767227 -108.61122901 78.67896199 -130.42102051 76.57550049 C-132.63168303 76.35902202 -134.84069391 76.1296737 -137.04980469 75.89794922 C-192.11123238 70.24164064 -250.43123659 70.35373964 -305.47570801 76.12762451 Z M-46.66796875 91.35546875 C-47.84641565 98.95962463 -49.0179163 106.5648137 -50.18066406 114.17138672 C-50.47029452 116.06385183 -50.76092661 117.95616479 -51.05371094 119.84814453 C-51.34685298 121.74564505 -51.63285043 123.64424601 -51.91796875 125.54296875 C-52.0675 126.52652344 -52.21703125 127.51007813 -52.37109375 128.5234375 C-52.71619891 131.81555912 -52.71739895 135.04776461 -52.66796875 138.35546875 C-45.60876499 137.10760574 -38.89791334 135.32375286 -32.10546875 133.04296875 C-31.22439453 132.76001953 -30.34332031 132.47707031 -29.43554688 132.18554688 C-20.80945479 129.31442693 -11.76294416 125.3620094 -5.66796875 118.35546875 C-4.09173337 115.48299467 -4.09173337 115.48299467 -4.66796875 112.35546875 C-11.88195207 99.78917522 -31.58490988 95.13438291 -44.66796875 91.35546875 C-45.32796875 91.35546875 -45.98796875 91.35546875 -46.66796875 91.35546875 Z M-432.66796875 137.35546875 C-432.04628606 150.78210487 -430.81185461 164.13672374 -429.56319523 177.51715279 C-421.09879718 268.3345969 -415.93656046 359.3696285 -411.27905273 465.16674805 C-411.17739186 467.50114478 -411.07572272 469.83554115 -410.9740448 472.16993713 C-410.78525102 476.50660582 -410.59956542 480.84339104 -410.41596985 485.18028259 C-410.18550289 490.57299854 -409.93313584 495.96435993 -409.66796875 501.35546875 C-409.63530977 502.07136169 -409.60265079 502.78725464 -409.56900215 503.52484131 C-409.48127482 505.37675974 -409.37489913 507.22776958 -409.2668457 509.07861328 C-409.2133345 510.04832062 -409.1598233 511.01802795 -409.10469055 512.01712036 C-408.81176094 514.69969889 -408.81176094 514.69969889 -406.0703125 517.27734375 C-404.35521484 518.18226563 -404.35521484 518.18226563 -402.60546875 519.10546875 C-401.97987061 519.45359619 -401.35427246 519.80172363 -400.7097168 520.16040039 C-399.38394682 520.89314484 -398.04696582 521.60592642 -396.70019531 522.29931641 C-394.71376229 523.33166975 -392.78071242 524.42599361 -390.84765625 525.5546875 C-387.52333443 527.48932339 -384.16647164 529.35518836 -380.78955078 531.19628906 C-379.37596818 531.96863546 -377.96546032 532.74663637 -376.55810547 533.53027344 C-338.36669073 554.76995342 -295.19728314 569.7013625 -251.66796875 574.35546875 C-250.88679687 574.44755615 -250.105625 574.53964355 -249.30078125 574.63452148 C-193.77068662 580.55908008 -138.75925441 568.01597864 -88.66796875 544.35546875 C-87.37487793 543.7531543 -87.37487793 543.7531543 -86.05566406 543.13867188 C-72.22899445 536.65927348 -59.13521006 528.97763688 -46.18066406 520.90722656 C-44.68802419 519.98542137 -43.18116731 519.08512807 -41.64746094 518.23339844 C-39.81031545 517.23420896 -39.81031545 517.23420896 -37.66796875 515.35546875 C-36.31207831 509.92325353 -36.35303256 504.23182771 -36.125 498.66015625 C-36.02375107 496.38172971 -35.9219104 494.1033294 -35.81958008 491.82495117 C-35.76524811 490.59779388 -35.71091614 489.3706366 -35.65493774 488.10629272 C-31.36191561 392.7369225 -23.59795429 297.55297155 -9.74072266 162.04541016 C-9.59895096 160.78928421 -9.45717926 159.53315826 -9.31111145 158.2389679 C-9.05152284 155.96184173 -8.78855213 153.68509708 -8.52128601 151.40885925 C-7.97902269 146.69691472 -7.50744171 142.10899329 -7.66796875 137.35546875 C-8.8796875 137.86335937 -10.09140625 138.37125 -11.33984375 138.89453125 C-25.83459438 144.88098585 -40.46061713 149.56454475 -55.66796875 153.35546875 C-57.41059623 165.4447699 -59.14127881 177.53571413 -60.85656166 189.62892723 C-61.65334165 195.24371982 -62.45428706 200.85785326 -63.26464844 206.47070312 C-64.04595483 211.88337796 -64.81645439 217.2974893 -65.57935715 222.71278763 C-65.87292247 224.78268406 -66.17043492 226.85202451 -66.47188187 228.92078781 C-66.89214654 231.80960673 -67.29856658 234.7000512 -67.70166016 237.59130859 C-67.83041031 238.45373672 -67.95916046 239.31616486 -68.09181213 240.20472717 C-68.36889992 242.2452222 -68.53011731 244.30086548 -68.66796875 246.35546875 C-66.34604984 248.67738766 -64.17920803 249.25862334 -61.10620117 250.25683594 C-49.11377029 254.22264706 -49.11377029 254.22264706 -45.64453125 260.1875 C-45.32226562 260.90292969 -45 261.61835937 -44.66796875 262.35546875 C-44.15363281 263.41314453 -44.15363281 263.41314453 -43.62890625 264.4921875 C-41.59985235 269.68832988 -41.60067725 274.56970634 -41.99891663 280.05949402 C-42.04797183 280.80194246 -42.09702704 281.54439091 -42.14756876 282.30933779 C-42.72718734 290.7697822 -43.5099776 299.21169581 -44.31030273 307.65356445 C-44.47492134 309.41308472 -44.63930216 311.17262726 -44.8034668 312.93218994 C-45.24476171 317.65265915 -45.68992158 322.37275547 -46.13629413 327.09274697 C-46.41547363 330.04617834 -46.69388854 332.99968083 -46.97206306 335.95320702 C-47.94364599 346.26754041 -48.91873847 356.58153591 -49.89672852 366.89526367 C-50.80725826 376.4987125 -51.70941837 386.10292398 -52.60791343 395.70750552 C-53.38190157 403.97674749 -54.16203285 412.24539524 -54.94690186 420.5136115 C-55.4146798 425.44275383 -55.87988169 430.37210671 -56.33874321 435.30208778 C-56.76918939 439.92480259 -57.2072437 444.54673297 -57.65122223 449.16816711 C-57.81283981 450.86425845 -57.971705 452.56061462 -58.12763405 454.25723839 C-58.34061866 456.57004086 -58.56344615 458.88168875 -58.7888031 461.1933136 C-58.91102454 462.48755406 -59.03324598 463.78179453 -59.1591711 465.1152544 C-59.76356414 468.96425606 -60.37726884 471.38255545 -63.52124023 473.75244141 C-64.26962158 474.17058105 -65.01800293 474.5887207 -65.7890625 475.01953125 C-66.63227051 475.49680664 -67.47547852 475.97408203 -68.34423828 476.46582031 C-69.25544434 476.9656543 -70.16665039 477.46548828 -71.10546875 477.98046875 C-72.0476123 478.50608398 -72.98975586 479.03169922 -73.96044922 479.57324219 C-76.85578905 481.1807403 -79.76061578 482.76982129 -82.66796875 484.35546875 C-83.50763184 484.81856445 -84.34729492 485.28166016 -85.21240234 485.75878906 C-110.45272093 499.64737046 -137.40033382 509.67274798 -165.66796875 515.35546875 C-167.03695312 515.6496167 -167.03695312 515.6496167 -168.43359375 515.94970703 C-184.55231626 519.31603176 -200.51367386 519.75034043 -216.91796875 519.79296875 C-217.92187653 519.79914215 -218.9257843 519.80531555 -219.96011353 519.81167603 C-238.54146128 519.88511109 -256.96205504 518.27703096 -275.10546875 514.10546875 C-276.0375415 513.89567383 -276.96961426 513.68587891 -277.92993164 513.46972656 C-309.38253237 506.19386833 -338.73837509 494.30489454 -367.60546875 480.04296875 C-369.14364258 479.28729614 -369.14364258 479.28729614 -370.71289062 478.51635742 C-372.15825195 477.79283081 -372.15825195 477.79283081 -373.6328125 477.0546875 C-374.91079712 476.41793091 -374.91079712 476.41793091 -376.21459961 475.76831055 C-383.28925249 471.6941722 -383.28925249 471.6941722 -384.53680134 467.28427982 C-384.70630188 465.49687209 -384.70630188 465.49687209 -384.87922668 463.6733551 C-384.98209275 462.68675001 -384.98209275 462.68675001 -385.08703691 461.68021351 C-385.30167818 459.57342445 -385.48510316 457.46522726 -385.66796875 455.35546875 C-385.80161292 454.00727444 -385.9374115 452.65929188 -386.07541466 451.31153679 C-386.51250923 446.96696378 -386.90119583 442.61859279 -387.2878418 438.26928711 C-387.43729494 436.61491207 -387.58700144 434.9605599 -387.73693848 433.30622864 C-388.13887048 428.86033582 -388.53647965 424.41406776 -388.93262458 419.9676559 C-389.1810024 417.18055775 -389.43010073 414.39352484 -389.67939186 411.60650826 C-390.46156983 402.85880419 -391.24094297 394.11085669 -392.0164029 385.36255449 C-392.90725968 375.31293438 -393.80762045 365.26422507 -394.7161271 355.21618551 C-395.42125649 347.41090198 -396.11777572 339.60487913 -396.80790359 331.79825503 C-397.21885364 327.1518379 -397.63333593 322.50580406 -398.05689049 317.8605175 C-398.4549692 313.49211594 -398.84225539 309.12288433 -399.22164154 304.75282097 C-399.36169743 303.16029822 -399.50546561 301.56809634 -399.65345955 299.97629166 C-402.24894722 271.97606801 -402.24894722 271.97606801 -395.66796875 261.35546875 C-392.14807852 257.23462165 -388.76338639 254.48620151 -383.48046875 253.16796875 C-380.49500837 252.23283427 -379.82177426 251.63978923 -378.30078125 248.828125 C-377.48386147 246.71107473 -376.68516847 244.58692449 -375.90234375 242.45703125 C-370.62411949 229.19465763 -355.99287043 218.02607396 -345.39819336 208.87841797 C-343.46075419 207.17307783 -341.67860947 205.36686953 -339.91796875 203.48046875 C-330.24384312 193.74976929 -317.37614889 183.81205448 -303.11328125 183.26171875 C-285.21845086 183.94778253 -271.37167895 194.13914317 -259.28515625 206.6015625 C-256.94544472 209.13907573 -254.6776682 211.73430988 -252.44140625 214.36328125 C-251.85617187 215.02070312 -251.2709375 215.678125 -250.66796875 216.35546875 C-249.97993164 217.20351074 -249.29189453 218.05155273 -248.58300781 218.92529297 C-244.87839713 222.01370961 -241.88553841 222.17819067 -237.25390625 222.23046875 C-236.03847641 222.25898926 -236.03847641 222.25898926 -234.79849243 222.28808594 C-233.08572981 222.31771103 -231.37268376 222.33369471 -229.65966797 222.33691406 C-227.06762869 222.35529389 -224.48809797 222.45873011 -221.8984375 222.56640625 C-211.36485236 222.7746297 -211.36485236 222.7746297 -202.60757446 217.51953125 C-200.48910854 215.23880947 -198.58131817 212.8088658 -196.66796875 210.35546875 C-195.36748664 209.15229164 -194.04071719 207.97549134 -192.66796875 206.85546875 C-189.39259958 204.07838089 -186.45381569 201.07824147 -183.48046875 197.98046875 C-173.95505004 188.362313 -162.60882997 179.80337936 -148.66796875 179.04296875 C-135.32607244 179.2642274 -122.67979742 186.12357605 -113.35546875 195.29296875 C-110.00431791 198.83029463 -106.75381951 202.45021085 -103.5859375 206.15234375 C-100.68157528 209.48851542 -97.67095041 212.7261062 -94.66235352 215.96826172 C-91.54574978 219.34321624 -88.58377455 222.80808047 -85.66796875 226.35546875 C-83.54029349 223.16395586 -83.21934259 221.53603132 -82.70654297 217.80175781 C-82.54652802 216.66337463 -82.38651306 215.52499146 -82.22164917 214.35211182 C-81.97464767 212.50525787 -81.97464767 212.50525787 -81.72265625 210.62109375 C-81.46054855 208.72130768 -81.46054855 208.72130768 -81.19314575 206.78314209 C-80.82359308 204.10053337 -80.45936456 201.41727279 -80.09912109 198.73339844 C-79.6391572 195.3082993 -79.16824781 191.88482026 -78.69355583 188.46173477 C-78.23986403 185.18220576 -77.79395804 181.90163687 -77.34765625 178.62109375 C-77.09458206 176.78638519 -77.09458206 176.78638519 -76.83639526 174.91461182 C-76.09325781 169.34996659 -75.44724364 163.9711263 -75.66796875 158.35546875 C-77.43897226 158.60426037 -79.20974826 158.85467073 -80.98046875 159.10546875 C-82.27726562 159.28722656 -83.5740625 159.46898437 -84.91015625 159.65625 C-88.36088725 160.15143212 -91.79929208 160.70260021 -95.23828125 161.2734375 C-108.91690942 163.49343283 -122.54509135 164.99199766 -136.35546875 166.04296875 C-137.13920868 166.10354462 -137.92294861 166.16412048 -138.73043823 166.22653198 C-165.17673311 168.24157026 -191.59605599 168.59527648 -218.10546875 168.60546875 C-218.98432613 168.60620518 -219.86318352 168.6069416 -220.76867294 168.60770035 C-249.40060083 168.62720114 -277.87154637 168.07528354 -306.41131592 165.5546875 C-308.51480145 165.36899046 -310.61879322 165.19118899 -312.72314453 165.015625 C-340.61433099 162.60935568 -368.64556534 157.64965472 -395.66796875 150.35546875 C-397.0139917 149.99219482 -397.0139917 149.99219482 -398.38720703 149.62158203 C-410.20538303 146.37359057 -421.42801308 142.22122545 -432.66796875 137.35546875 Z M-181.0703125 215.7890625 C-183.86662173 218.55173192 -186.77513404 221.11981388 -189.76171875 223.671875 C-193.22755932 226.73289403 -196.4281226 230.05927745 -199.66796875 233.35546875 C-200.47234375 234.13921875 -201.27671875 234.92296875 -202.10546875 235.73046875 C-210.35606292 243.81686638 -210.35606292 243.81686638 -216.66796875 253.35546875 C-216.23305937 255.42965196 -215.78115293 257.50250135 -215.22265625 259.546875 C-214.07169588 265.37462505 -213.38505455 273.83567851 -215.4296875 279.4453125 C-215.89378284 281.59042244 -215.89378284 281.59042244 -214.10546875 284.02734375 C-207.37050638 292.53239238 -200.19441859 300.51071399 -192.64990234 308.30615234 C-191.31955869 309.68172572 -189.99441493 311.06234558 -188.67431641 312.44775391 C-186.7256494 314.49124423 -184.76195001 316.51906367 -182.79296875 318.54296875 C-182.21135986 319.15446777 -181.62975098 319.7659668 -181.03051758 320.39599609 C-176.72158885 324.76148522 -172.1467197 327.63007325 -166.66796875 330.35546875 C-166.00796875 330.68546875 -165.34796875 331.01546875 -164.66796875 331.35546875 C-162.79829263 331.53093066 -160.92031716 331.62281733 -159.04296875 331.66796875 C-157.53863281 331.72404297 -157.53863281 331.72404297 -156.00390625 331.78125 C-148.85721578 330.86908459 -143.48441367 326.78998551 -138.23046875 322.10546875 C-137.64700684 321.59604736 -137.06354492 321.08662598 -136.46240234 320.56176758 C-130.75130717 315.52878066 -125.21325881 310.30526389 -119.70532227 305.05175781 C-114.55270582 300.14025382 -109.25106374 295.43488681 -103.85302734 290.7956543 C-102.15446824 289.32854354 -100.47266332 287.84410801 -98.79296875 286.35546875 C-98.22578125 285.87335938 -97.65859375 285.39125 -97.07421875 284.89453125 C-90.5003266 279.00606861 -90.20593569 271.26641002 -89.04296875 262.91796875 C-88.90890625 262.01498047 -88.77484375 261.11199219 -88.63671875 260.18164062 C-86.85747278 250.96358207 -86.85747278 250.96358207 -88.953125 242.32421875 C-89.53964844 241.83953125 -90.12617187 241.35484375 -90.73046875 240.85546875 C-93.31292823 238.56166741 -95.67693028 236.29969674 -97.91796875 233.66796875 C-100.93513839 230.16832379 -104.03685453 226.75298189 -107.16796875 223.35546875 C-110.285584 219.96838438 -113.3883196 216.57182409 -116.41796875 213.10546875 C-116.96066406 212.48542969 -117.50335937 211.86539063 -118.0625 211.2265625 C-119.18220581 209.92160122 -120.28241693 208.59976811 -121.3671875 207.265625 C-127.54942786 199.80525854 -135.2985906 194.45845133 -145.04296875 193 C-160.70355895 192.09462213 -171.02605027 205.63178466 -181.0703125 215.7890625 Z M-345.00805664 227.68041992 C-348.41246922 231.14737793 -351.79302743 234.53560582 -355.52734375 237.6484375 C-361.29424677 242.47375436 -365.48506812 248.86376478 -366.66796875 256.35546875 C-367.11269262 266.85095203 -362.12342583 273.8013894 -355.31176758 281.2800293 C-353.23646614 283.51169126 -351.13511409 285.71750954 -349.02783203 287.91894531 C-347.35437659 289.68673917 -345.75364035 291.50876522 -344.16796875 293.35546875 C-341.07899221 296.92899063 -337.87947235 300.39250623 -334.66796875 303.85546875 C-331.35783539 307.42637889 -328.05957804 311.00096331 -324.85546875 314.66796875 C-324.31792969 315.2815625 -323.78039062 315.89515625 -323.2265625 316.52734375 C-322.15205037 317.78767377 -321.10380961 319.0707172 -320.078125 320.37109375 C-313.6134717 328.34163099 -304.8016557 334.53235103 -294.41796875 335.73046875 C-283.28609753 334.61728163 -276.9497359 328.45588291 -269.31591797 320.95898438 C-266.71558506 318.42876415 -264.03684215 315.98667108 -261.35546875 313.54296875 C-260.85563477 313.0847876 -260.35580078 312.62660645 -259.84082031 312.15454102 C-257.10242277 309.64738391 -254.3415894 307.17014808 -251.54296875 304.73046875 C-250.92421875 304.1890625 -250.30546875 303.64765625 -249.66796875 303.08984375 C-248.17759436 301.79740971 -246.67569746 300.51823985 -245.16796875 299.24609375 C-237.08278252 292.34618126 -237.08278252 292.34618126 -231.66796875 283.35546875 C-232.13875476 279.96692268 -232.13875476 279.96692268 -233.0078125 277.796875 C-233.9185613 274.42872116 -233.88135988 271.12986378 -233.85546875 267.66796875 C-233.84580078 265.77498047 -233.84580078 265.77498047 -233.8359375 263.84375 C-233.66796875 260.35546875 -233.66796875 260.35546875 -232.9296875 257.6796875 C-232.40939226 255.2484457 -232.40939226 255.2484457 -234.08203125 253.13671875 C-235.17644531 252.0075 -235.17644531 252.0075 -236.29296875 250.85546875 C-237.11796875 249.99179687 -237.94296875 249.128125 -238.79296875 248.23828125 C-239.74890577 247.27495988 -240.70738497 246.31415664 -241.66796875 245.35546875 C-242.456875 244.56414551 -242.456875 244.56414551 -243.26171875 243.75683594 C-246.56011427 240.45184309 -246.56011427 240.45184309 -249.88525391 237.17382812 C-252.73398441 234.37377118 -255.44381266 231.50904737 -258.05859375 228.48828125 C-275.68991595 207.93017546 -275.68991595 207.93017546 -299.80078125 196.94921875 C-317.9505273 196.09511305 -333.55135999 215.99787233 -345.00805664 227.68041992 Z M-170.66796875 352.35546875 C-171.71597656 352.72929688 -172.76398438 353.103125 -173.84375 353.48828125 C-195.10645082 361.64753874 -210.40868906 377.74927337 -219.66796875 398.35546875 C-220.96933823 402.31678023 -221.90814007 406.25847253 -222.66796875 410.35546875 C-222.89484375 411.51046875 -223.12171875 412.66546875 -223.35546875 413.85546875 C-225.08270563 433.20052181 -221.09512095 453.21836935 -208.9140625 468.73828125 C-193.64460017 486.53052432 -175.41692962 497.37550255 -151.6796875 499.640625 C-128.77594947 500.36923631 -106.53871876 492.26045615 -89.54296875 477.0703125 C-85.99868833 473.72347161 -83.20604735 470.50479949 -80.66796875 466.35546875 C-79.70117188 464.79699219 -79.70117188 464.79699219 -78.71484375 463.20703125 C-71.69110019 451.5754373 -66.95954668 440.00672997 -65.66796875 426.35546875 C-65.59578125 425.61167969 -65.52359375 424.86789062 -65.44921875 424.1015625 C-64.6548827 406.65926667 -72.1194766 387.98495613 -82.66796875 374.35546875 C-83.65796875 373.69546875 -84.64796875 373.03546875 -85.66796875 372.35546875 C-88.19403288 383.15890373 -88.66552706 389.61105951 -83.95874023 399.859375 C-79.70995085 409.39410976 -79.46251751 418.60527177 -80.1328125 428.80859375 C-80.20816223 430.04730225 -80.20816223 430.04730225 -80.28503418 431.31103516 C-80.40824321 433.32612248 -80.53747998 435.34083974 -80.66796875 437.35546875 C-102.81640625 429.97265625 -102.81640625 429.97265625 -105.23156738 429.1673584 C-106.81950684 428.63820749 -108.40764057 428.1096392 -109.99597168 427.58166504 C-113.47289988 426.42525186 -116.9457849 425.26025476 -120.41210938 424.07226562 C-122.01602539 423.5240918 -122.01602539 423.5240918 -123.65234375 422.96484375 C-125.01697754 422.49256348 -125.01697754 422.49256348 -126.40917969 422.01074219 C-128.75618446 421.21616248 -128.75618446 421.21616248 -131.66796875 421.35546875 C-129.41396884 418.25621888 -126.98915354 415.66676748 -124.10546875 413.16796875 C-123.42097656 412.57113281 -122.73648438 411.97429687 -122.03125 411.359375 C-120.30615684 409.89661005 -118.54866599 408.47180867 -116.7734375 407.0703125 C-110.04887066 401.55261927 -110.04887066 401.55261927 -106.98046875 393.66796875 C-106.81737956 391.90158733 -106.70851976 390.12889961 -106.66796875 388.35546875 C-106.63832031 387.61296875 -106.60867188 386.87046875 -106.578125 386.10546875 C-106.54939475 384.52211285 -106.5976552 382.93752353 -106.66796875 381.35546875 C-111.88697165 384.56653751 -116.13359485 388.43077041 -120.54296875 392.66796875 C-124.62572886 396.565864 -128.71756958 400.44810626 -132.92578125 404.2109375 C-133.54855957 404.7680542 -134.17133789 405.3251709 -134.81298828 405.89916992 C-136.68534803 407.36911279 -138.53115592 408.32454664 -140.66796875 409.35546875 C-140.7910289 408.77109039 -140.91408905 408.18671204 -141.0408783 407.58462524 C-142.31911489 401.51730449 -143.60117966 395.45080184 -144.88549805 389.38476562 C-145.36467705 387.11902402 -145.84287056 384.85307376 -146.32006836 382.58691406 C-147.00507438 379.33473593 -147.69358957 376.08331796 -148.3828125 372.83203125 C-148.59638901 371.81428619 -148.80996552 370.79654114 -149.03001404 369.74795532 C-149.23014603 368.80713104 -149.43027802 367.86630676 -149.63647461 366.89697266 C-149.81190292 366.06646393 -149.98733124 365.2359552 -150.16807556 364.38027954 C-150.60184304 362.30455803 -150.60184304 362.30455803 -151.66796875 360.35546875 C-134.66187602 360.87134395 -121.72440475 363.26730065 -106.66796875 371.35546875 C-106.00796875 371.68546875 -105.34796875 372.01546875 -104.66796875 372.35546875 C-104.00796875 367.73546875 -103.34796875 363.11546875 -102.66796875 358.35546875 C-104.7436793 357.23470788 -106.8269733 356.13459137 -108.91796875 355.04296875 C-110.65820312 354.12064453 -110.65820312 354.12064453 -112.43359375 353.1796875 C-121.92297787 348.7684378 -131.63411382 347.82559718 -141.98046875 347.91796875 C-143.75659546 347.92824097 -143.75659546 347.92824097 -145.56860352 347.9387207 C-154.53366633 348.10286195 -162.23707044 349.15068007 -170.66796875 352.35546875 Z M-367.48046875 369.48046875 C-370.7462035 377.38698446 -369.76862066 384.27443933 -367.0234375 392.23828125 C-363.58637637 400.14253134 -357.75134705 406.97612999 -349.66796875 410.35546875 C-346.34814761 410.84208748 -343.78329424 410.6136973 -340.66796875 409.35546875 C-336.3970545 406.03018271 -334.04184032 401.14646352 -333.33203125 395.84765625 C-333.17279302 385.17869463 -336.0619136 376.97313376 -343.51953125 369.23828125 C-347.60034307 365.66200616 -351.44238284 363.7115625 -356.79296875 362.85546875 C-361.47357407 363.66948707 -364.43105528 365.90529433 -367.48046875 369.48046875 Z M-355.66796875 435.35546875 C-356.60834297 440.7360447 -356.37664773 444.9869852 -353.85546875 449.85546875 C-353.13359375 450.68046875 -352.41171875 451.50546875 -351.66796875 452.35546875 C-351.21421875 452.97421875 -350.76046875 453.59296875 -350.29296875 454.23046875 C-347.59671932 456.09710297 -345.84773463 455.92782661 -342.66796875 455.35546875 C-339.95185067 452.76006702 -338.16019057 450.49373171 -336.66796875 447.04296875 C-336.66796875 441.39687833 -338.6103179 436.75614149 -341.98046875 432.29296875 C-344.54169031 430.16940964 -344.54169031 430.16940964 -347.66796875 429.73046875 C-351.9258489 430.61752711 -353.24532044 431.72149628 -355.66796875 435.35546875 Z " fill="#D1B070" transform="translate(973.66796875,454.64453125)"/>
<path d="M0 0 C1.79955523 2.00018132 3.39822773 3.97433908 5 6.125 C5.9906662 7.42074055 6.98155773 8.71630885 7.97265625 10.01171875 C8.47684082 10.6773584 8.98102539 11.34299805 9.50048828 12.02880859 C11.77950558 15.02470336 14.10785658 17.98092149 16.4375 20.9375 C16.88440186 21.50766846 17.33130371 22.07783691 17.79174805 22.6652832 C20.22150479 25.76159126 22.67182584 28.83945053 25.1484375 31.8984375 C30.42644291 38.42285235 35.51090364 44.8922641 40 52 C36.535 54.475 36.535 54.475 33 57 C32.278125 56.2575 31.55625 55.515 30.8125 54.75 C24.50629904 48.5747411 24.50629904 48.5747411 16 47 C5.39230609 50.0599117 -3.52150806 59.16703317 -11.91967773 66.05102539 C-18.17504205 71.17367573 -24.55889129 76.11402199 -31 81 C-30.40092169 84.25329075 -29.35820644 86.10664436 -27.2265625 88.6171875 C-26.65462158 89.29934326 -26.08268066 89.98149902 -25.4934082 90.68432617 C-24.8768335 91.40724854 -24.26025879 92.1301709 -23.625 92.875 C-22.33858353 94.40910038 -21.05344251 95.94427111 -19.76953125 97.48046875 C-18.80974365 98.62588135 -18.80974365 98.62588135 -17.83056641 99.79443359 C-15.26797622 102.88198224 -12.78027961 106.02395874 -10.3125 109.1875 C-9.64831055 110.03731445 -9.64831055 110.03731445 -8.97070312 110.90429688 C-7.64571184 112.60176008 -6.32278477 114.30081704 -5 116 C-3.21090875 118.29368988 -1.41912877 120.58524841 0.375 122.875 C1.03737671 123.72082642 1.03737671 123.72082642 1.71313477 124.58374023 C6.02008341 130.06314029 10.42318167 135.46359113 14.84912109 140.84716797 C15.37586426 141.49057129 15.90260742 142.13397461 16.4453125 142.796875 C16.91469238 143.36760742 17.38407227 143.93833984 17.86767578 144.52636719 C19 146 19 146 20 148 C23.25329075 147.40092169 25.10664436 146.35820644 27.6171875 144.2265625 C28.29982666 143.65429932 28.98246582 143.08203613 29.68579102 142.49243164 C30.40822998 141.8761792 31.13066895 141.25992676 31.875 140.625 C33.40119926 139.34368762 34.92856019 138.06375776 36.45703125 136.78515625 C37.60099365 135.82633545 37.60099365 135.82633545 38.76806641 134.84814453 C41.98214509 132.18673831 45.26580749 129.6202865 48.5625 127.0625 C60.51595328 118.73188203 60.51595328 118.73188203 66.5625 106.3125 C66.42409635 101.46837241 63.94183683 98.03339488 61.3125 94.1015625 C60 92 60 92 60 90 C61.96147874 88.61061923 63.96166576 87.2739589 66 86 C70.2658281 87.54401203 72.43341565 90.752421 75.0625 94.25 C76.04542478 95.52875971 77.02850182 96.8074024 78.01171875 98.0859375 C78.50978027 98.73916992 79.0078418 99.39240234 79.52099609 100.06542969 C81.7809078 103.02144493 84.0758692 105.94944546 86.375 108.875 C86.817229 109.43912598 87.25945801 110.00325195 87.71508789 110.58447266 C91.97127838 115.99813472 96.314199 121.34043858 100.67333984 126.67138672 C101.68867711 127.9143809 102.7014202 129.15950097 103.7109375 130.40722656 C104.75857858 131.70169823 105.81543143 132.98871061 106.875 134.2734375 C108 136 108 136 108 139 C105.5 141.1875 105.5 141.1875 103 143 C99.8048123 141.59015 97.67770868 139.86684818 95.1875 137.4375 C91.49754724 134.17724599 89.09640976 132.72697805 84 133 C72.35648056 137.21575704 62.44451442 147.41377364 52.94335938 155.18139648 C48.84571484 158.52521978 44.70597558 161.79346416 40.5 165 C34.91163386 169.26207899 29.45371487 173.66639299 24.01171875 178.11328125 C19.71062941 181.62336565 15.37609963 185.08398859 11 188.5 C5.81250834 192.55347491 0.67355441 196.66302487 -4.4375 200.8125 C-5.08783203 201.33972656 -5.73816406 201.86695313 -6.40820312 202.41015625 C-8.27849106 203.93252834 -10.13954851 205.46563241 -12 207 C-12.96897217 207.78189697 -12.96897217 207.78189697 -13.95751953 208.57958984 C-14.58126465 209.09344238 -15.20500977 209.60729492 -15.84765625 210.13671875 C-16.40590088 210.59135498 -16.96414551 211.04599121 -17.53930664 211.5144043 C-20.33531844 214.35808335 -20.96948927 216.7428381 -21.4375 220.6875 C-21.32981992 225.92466767 -18.68712709 229.66802542 -16 234 C-15.31874244 235.32593754 -14.64723971 236.65712883 -14 238 C-18.39453125 242.00390625 -18.39453125 242.00390625 -20 243 C-23.25469502 241.91510166 -23.70466657 241.42222349 -25.64453125 238.78125 C-26.14919922 238.10513672 -26.65386719 237.42902344 -27.17382812 236.73242188 C-27.71458984 235.99572266 -28.25535156 235.25902344 -28.8125 234.5 C-33.39800813 228.37044507 -38.09355202 222.37577566 -43 216.5 C-47.86641998 210.64923752 -52.61591112 204.72428395 -57.25 198.6875 C-57.79914063 197.9759375 -58.34828125 197.264375 -58.9140625 196.53125 C-59.42195313 195.86480469 -59.92984375 195.19835938 -60.453125 194.51171875 C-60.89817383 193.92865967 -61.34322266 193.34560059 -61.80175781 192.74487305 C-63.06769154 190.90142798 -64.04606401 189.02005086 -65 187 C-62.75 184.9375 -62.75 184.9375 -60 183 C-55.93063269 183.20304535 -54.02994286 185.76629068 -51.3125 188.5625 C-46.97665194 192.60770702 -46.97665194 192.60770702 -41.375 193.8125 C-33.37510116 192.67672919 -27.38715815 188.03220372 -21.375 182.9375 C-19.97478969 181.77503955 -18.57373184 180.61359931 -17.171875 179.453125 C-16.47513672 178.87369141 -15.77839844 178.29425781 -15.06054688 177.69726562 C-11.9567738 175.14069804 -8.79546587 172.66053356 -5.625 170.1875 C-4.489431 169.29967398 -3.35401027 168.41165827 -2.21875 167.5234375 C-1.41244141 166.89260254 -1.41244141 166.89260254 -0.58984375 166.24902344 C3.29686683 163.19552047 7.14823577 160.09738645 11 157 C5.94814502 150.17316895 0.70564472 143.50528968 -4.55322266 136.83789062 C-5.93917354 135.07726993 -7.32018964 133.31292033 -8.69921875 131.546875 C-14.1021079 124.63346884 -19.58729988 117.79432838 -25.13500977 110.99658203 C-30.51040163 104.39896014 -35.76741239 97.71113441 -41 91 C-44.20873417 91.59660545 -46.04133899 92.59082571 -48.51171875 94.703125 C-49.17905029 95.26515625 -49.84638184 95.8271875 -50.53393555 96.40625 C-51.24461182 97.0146875 -51.95528809 97.623125 -52.6875 98.25 C-59.40245115 103.90408087 -66.23941749 109.32930541 -73.28979492 114.55957031 C-76.54030986 116.99834788 -79.53353422 119.45198341 -82.36328125 122.375 C-85 125 -85 125 -87 125 C-89.30827965 129.29917085 -90.46139034 133.08842537 -90 138 C-88.70150032 141.02166591 -87.17838118 143.72646941 -85.4453125 146.51953125 C-84.14339986 148.75389484 -83.4584072 150.47876039 -83 153 C-85.475 154.98 -85.475 154.98 -88 157 C-91.0118602 155.67789709 -92.80540131 154.36610497 -94.84765625 151.796875 C-95.36473145 151.15347168 -95.88180664 150.51006836 -96.41455078 149.84716797 C-96.95837402 149.15510254 -97.50219727 148.46303711 -98.0625 147.75 C-98.92077393 146.67516357 -98.92077393 146.67516357 -99.79638672 145.57861328 C-101.53888721 143.3919176 -103.27067812 141.19712626 -105 139 C-105.96998941 137.77338794 -106.94003745 136.54682224 -107.91015625 135.3203125 C-110.16183658 132.46674146 -112.40239802 129.60463772 -114.63964844 126.73974609 C-116.53038254 124.3216967 -118.42851103 121.90949275 -120.32641602 119.49707031 C-124.90319482 113.67935731 -129.46511408 107.85046716 -134 102 C-129.375 97.125 -129.375 97.125 -126 96 C-125.319375 96.886875 -124.63875 97.77375 -123.9375 98.6875 C-119.92935206 103.42747271 -116.37382859 106.61712442 -110.125 107.625 C-102.0955726 107.07847936 -95.20931129 100.85976314 -89.3125 95.875 C-87.91616048 94.71778896 -86.51901024 93.56155555 -85.12109375 92.40625 C-84.42999512 91.83261719 -83.73889648 91.25898437 -83.02685547 90.66796875 C-80.01387796 88.18848641 -76.94984309 85.77704425 -73.875 83.375 C-73.30418701 82.92801758 -72.73337402 82.48103516 -72.14526367 82.02050781 C-69.86201254 80.23375625 -67.57645618 78.44996522 -65.29101562 76.66601562 C-57.78216508 70.80106395 -50.34337472 64.86044974 -42.96142578 58.83642578 C-38.67587094 55.34491343 -34.35634812 51.90265773 -30 48.5 C-24.7690098 44.40322277 -19.55646078 40.28429988 -14.375 36.125 C-13.69953125 35.58939453 -13.0240625 35.05378906 -12.328125 34.50195312 C-7.59314823 30.6823413 -3.72963899 27.35105898 -1.875 21.375 C-1.38076705 16.277617 -4.15274261 12.64350148 -6.84765625 8.515625 C-8 6 -8 6 -7.37109375 3.796875 C-5.16621332 0.90728811 -3.63535673 0 0 0 Z " fill="#C9B072" transform="translate(321,972)"/>
<path d="M0 0 C9.58690025 6.44460821 17.75769256 14.77632401 20.55078125 26.265625 C22.81637077 40.05616993 19.41958775 51.41950956 14 64 C14.84283539 63.92090393 14.84283539 63.92090393 15.70269775 63.84020996 C27.05824994 62.78596808 38.41006766 61.86122762 49.796875 61.21875 C50.86079468 61.15856689 51.92471436 61.09838379 53.02087402 61.03637695 C57.37073803 60.79326882 61.72082719 60.55492351 66.07128906 60.32275391 C69.31351469 60.14826078 72.55517723 59.96525539 75.796875 59.78125 C77.24401886 59.70771301 77.24401886 59.70771301 78.72039795 59.63269043 C94.49117791 58.72225061 103.93870037 55.18290051 116 45 C118.9719385 46.12451727 121.33440687 47.22293791 124 49 C122.317177 52.72754341 120.01062103 55.95051907 117.625 59.25 C117.19453369 59.84901123 116.76406738 60.44802246 116.32055664 61.06518555 C101.74787358 81.25212642 101.74787358 81.25212642 99 84 C96.2549754 84.16927114 93.53164948 84.27531983 90.78344727 84.34130859 C89.92154282 84.36589645 89.05963837 84.39048431 88.1716156 84.41581726 C86.29189559 84.46907631 84.41211561 84.52024918 82.53228951 84.56962204 C79.55103268 84.64884604 76.57007831 84.73544444 73.58909607 84.82437134 C65.11024179 85.07661949 56.63120483 85.32074172 48.15161133 85.546875 C42.96943011 85.68560328 37.78777458 85.83756644 32.60621452 85.99776077 C30.6357413 86.05611881 28.66511495 86.10953516 26.69436836 86.15778732 C10.6524427 85.99156147 10.6524427 85.99156147 -3.7265625 92.04296875 C-4.35304688 92.75066406 -4.97953125 93.45835938 -5.625 94.1875 C-6.27726562 94.90292969 -6.92953125 95.61835937 -7.6015625 96.35546875 C-8.06304688 96.89816406 -8.52453125 97.44085937 -9 98 C-7.70438527 101.88684418 -5.37334319 103.10805964 -2.125 105.3125 C-0.84905698 106.19879082 0.42561255 107.08691692 1.69921875 107.9765625 C2.38935059 108.45770508 3.07948242 108.93884766 3.79052734 109.43457031 C7.80832907 112.28121613 11.73916528 115.24571093 15.6875 118.1875 C28.84702432 129.03707329 28.84702432 129.03707329 44.56640625 133.39453125 C52.95337716 132.03484576 58.29424254 123.33274807 63 117 C65.31 118.32 67.62 119.64 70 121 C70 124.36914071 69.57741537 124.94776948 67.6484375 127.5625 C67.13418213 128.26689209 66.61992676 128.97128418 66.09008789 129.69702148 C65.52410889 130.45700439 64.95812988 131.2169873 64.375 132 C63.79032959 132.79672119 63.20565918 133.59344238 62.60327148 134.41430664 C60.74195682 136.94768699 58.87112476 139.47385992 57 142 C55.83650456 143.58149076 54.67372777 145.16351052 53.51171875 146.74609375 C50.61889738 150.68303324 47.71788509 154.61385041 44.81445312 158.54296875 C41.04727587 163.64427014 37.2894106 168.75244232 33.52954102 173.85913086 C32.97967529 174.60557861 32.42980957 175.35202637 31.86328125 176.12109375 C31.38157471 176.7752124 30.89986816 177.42933105 30.40356445 178.10327148 C28.94425178 180.07533622 27.47401849 182.0389098 26 184 C23.0280615 182.87548273 20.66559313 181.77706209 18 180 C19.3817332 176.41268329 20.98285838 173.00597377 22.6875 169.5625 C24.17646486 166.27620477 24.9939563 164.32031608 25.0625 160.6875 C22.75959011 154.86249263 19.35195813 151.13485261 14.375 147.4375 C13.81506348 147.01823242 13.25512695 146.59896484 12.67822266 146.16699219 C10.79494881 144.76460846 8.89958723 143.38019811 7 142 C6.32066406 141.50580566 5.64132812 141.01161133 4.94140625 140.50244141 C1.21457628 137.79707057 -2.52171271 135.10508476 -6.26171875 132.41796875 C-13.42394123 127.26406717 -20.5124173 122.00994536 -27.60888672 116.76611328 C-29.98938493 115.00784046 -32.37132897 113.25154808 -34.75390625 111.49609375 C-35.53757568 110.91867432 -36.32124512 110.34125488 -37.12866211 109.74633789 C-38.70588927 108.5848115 -40.28352428 107.42383871 -41.86157227 106.26342773 C-45.90649739 103.28746187 -49.94146122 100.29933328 -53.9609375 97.2890625 C-69.45112826 83.89932217 -69.45112826 83.89932217 -87.9375 78.265625 C-91.33827905 79.47650845 -93.65092518 81.65092518 -96.17578125 84.17578125 C-98.00053737 86.00053737 -99.90600636 87.49768669 -102 89 C-103.98 87.35 -105.96 85.7 -108 84 C-106.69302984 81.24678614 -105.24417133 78.80366726 -103.453125 76.33984375 C-102.94523437 75.63859375 -102.43734375 74.93734375 -101.9140625 74.21484375 C-101.09035156 73.08755859 -101.09035156 73.08755859 -100.25 71.9375 C-99.67507813 71.14601563 -99.10015625 70.35453125 -98.5078125 69.5390625 C-93.7828709 63.04482459 -89.02105638 56.57752511 -84.23999023 50.12451172 C-81.32488167 46.18403889 -78.43975001 42.22729892 -75.61328125 38.22265625 C-69.25371518 29.22503411 -62.7973905 20.80908074 -55 13 C-54.19175781 12.18015625 -53.38351562 11.3603125 -52.55078125 10.515625 C-39.13805902 -2.35713257 -17.31979802 -10.76800052 0 0 Z M-58 33 C-63.25133736 39.65308123 -67.88016745 46.59746983 -72 54 C-66.95815485 58.72868706 -61.56256477 62.83562237 -55.91845703 66.80737305 C-50.63890422 70.5255144 -45.44007717 74.34567316 -40.25 78.1875 C-37.86724187 79.94301787 -35.48354901 81.69725891 -33.09960938 83.45117188 C-31.28558727 84.78932958 -29.47819748 86.13586574 -27.671875 87.484375 C-26.79015625 88.12890625 -25.9084375 88.7734375 -25 89.4375 C-24.278125 89.97246094 -23.55625 90.50742188 -22.8125 91.05859375 C-22.214375 91.36925781 -21.61625 91.67992187 -21 92 C-17.68579118 90.89526373 -17.23803782 90.33820176 -15.29296875 87.60546875 C-14.7913623 86.90292969 -14.28975586 86.20039062 -13.77294922 85.4765625 C-13.24975098 84.72117187 -12.72655273 83.96578125 -12.1875 83.1875 C-11.3833667 82.03314453 -11.3833667 82.03314453 -10.56298828 80.85546875 C-3.41896605 70.42941016 3.5558752 59.31597318 1.52734375 46.1875 C-1.19111809 34.91091757 -9.88950729 28.37171828 -19.2890625 22.4453125 C-35.29568305 13.91152345 -47.1867905 20.54201013 -58 33 Z " fill="#C7AD71" transform="translate(1211,994)"/>
<path d="M0 0 C0.80308594 0.6084375 1.60617187 1.216875 2.43359375 1.84375 C17.89235334 14.83193157 27.81956388 37.24392725 30 57 C31.23936262 79.30852715 25.50236364 99.21071745 10.625 116.1875 C-10.02823954 138.19676032 -39.29279864 148.13450224 -66.3759613 160.0670929 C-70.56088171 161.91353321 -74.73634418 163.77861368 -78.89971924 165.67314148 C-80.67538003 166.48097292 -82.45337534 167.28366682 -84.23144531 168.08618164 C-86.35464781 169.04517518 -88.47404853 170.01264715 -90.58886719 170.98999023 C-91.51860352 171.40708252 -92.44833984 171.8241748 -93.40625 172.25390625 C-94.20353516 172.61814697 -95.00082031 172.9823877 -95.82226562 173.35766602 C-98.30470683 174.08987485 -99.59136532 173.85654839 -102 173 C-102.66 170.69 -103.32 168.38 -104 166 C-103.10796875 165.48050781 -102.2159375 164.96101562 -101.296875 164.42578125 C-100.11428346 163.72185771 -98.93200843 163.01740224 -97.75 162.3125 C-96.87021484 161.80299805 -96.87021484 161.80299805 -95.97265625 161.28320312 C-92.15722586 158.98965789 -89.45560475 156.72205466 -87 153 C-84.93799139 140.39883625 -94.33791427 125.48676835 -99.46957397 114.33465576 C-101.58572734 109.73520763 -103.68355718 105.1274216 -105.78125 100.51953125 C-106.21265793 99.57263428 -106.64406586 98.6257373 -107.08854675 97.65014648 C-110.10085577 91.02232975 -113.05428413 84.37060161 -115.96875 77.69921875 C-116.5678997 76.32793068 -116.5678997 76.32793068 -117.17915344 74.92893982 C-119.07962544 70.57363985 -120.97305158 66.21537574 -122.86010742 61.85424805 C-126.17557263 54.21688943 -129.56405178 46.62040417 -133.20703125 39.1328125 C-133.51468918 38.48408173 -133.82234711 37.83535095 -134.139328 37.16696167 C-136.19264016 33.03115161 -138.59494311 30.09940611 -142 27 C-142.495 26.505 -142.495 26.505 -143 26 C-149.33288752 25.46917317 -154.93726645 26.20363451 -161 28 C-162.32 25.36 -163.64 22.72 -165 20 C-154.06623445 14.85998147 -143.08471699 9.82959046 -132.07763672 4.84863281 C-129.39843492 3.63561028 -126.7206859 2.41942066 -124.04296875 1.203125 C-114.96987571 -2.910621 -105.8740893 -6.97264286 -96.73828125 -10.9453125 C-95.89635223 -11.31643158 -95.05442322 -11.68755066 -94.1869812 -12.06991577 C-86.32572923 -15.46039251 -78.41140603 -17.50765377 -70 -19 C-69.15179687 -19.16113281 -68.30359375 -19.32226562 -67.4296875 -19.48828125 C-43.31948871 -22.97459919 -18.13484982 -16.22591826 0 0 Z M-101.46679688 3.63623047 C-103.41499894 4.51810597 -105.37447226 5.37075073 -107.3359375 6.22265625 C-108.58669294 6.78216848 -109.8367244 7.34330265 -111.0859375 7.90625 C-112.2001709 8.40447266 -113.3144043 8.90269531 -114.46240234 9.41601562 C-117.10052116 10.71422509 -117.10052116 10.71422509 -117.74266052 12.87031555 C-118.19559885 16.61873274 -116.14446107 19.82068271 -114.57421875 23.13671875 C-114.19997772 23.95191483 -113.82573669 24.7671109 -113.44015503 25.60700989 C-112.62650952 27.37639093 -111.80762424 29.14336965 -110.98416138 30.90820312 C-108.77143728 35.65101206 -106.59587149 40.41088094 -104.4140625 45.16796875 C-103.96327835 46.1478476 -103.5124942 47.12772644 -103.04804993 48.13729858 C-98.81870298 57.34659265 -94.73962606 66.61845388 -90.69186401 75.90869141 C-85.25855317 88.37534071 -79.79249944 100.82528355 -74.125 113.1875 C-73.42032593 114.73630859 -73.42032593 114.73630859 -72.70141602 116.31640625 C-69.01001354 124.29929477 -65.71223972 130.73586302 -57.8125 135.25 C-45.52429235 138.52685537 -33.17817621 133.12247592 -22.5625 127.125 C-9.09621513 119.16604461 -0.9498716 108.59294444 4.08203125 93.82421875 C7.17172798 80.95267365 5.32884936 67.325758 1 55 C0.36384766 53.17082031 0.36384766 53.17082031 -0.28515625 51.3046875 C-8.42192903 29.59151669 -21.61192492 8.60875814 -43 -2 C-50.16293656 -4.95080585 -57.18978614 -6.1526666 -64.9375 -6.3125 C-66.10152344 -6.34988281 -67.26554688 -6.38726562 -68.46484375 -6.42578125 C-79.9666583 -5.83615556 -91.1125403 -1.07243998 -101.46679688 3.63623047 Z " fill="#EADA96" transform="translate(585,173)"/>
<path d="M0 0 C7.22043334 6.56804291 13.16615607 14.02914025 18.94995117 21.86450195 C21.58995117 18.89450195 24.22995117 15.92450195 26.94995117 12.86450195 C29.25995117 13.52450195 31.56995117 14.18450195 33.94995117 14.86450195 C34.86587121 17.3483529 35.08530392 18.50572779 34.13647461 21.02075195 C33.47953613 22.1809082 33.47953613 22.1809082 32.80932617 23.36450195 C32.32044922 24.24283691 31.83157227 25.12117188 31.32788086 26.02612305 C30.79066406 26.96278809 30.25344727 27.89945313 29.69995117 28.86450195 C28.59578252 30.83585501 27.4916159 32.8072092 26.38745117 34.77856445 C25.81897461 35.78306641 25.25049805 36.78756836 24.66479492 37.82250977 C21.9685056 42.60550591 19.33733601 47.42386506 16.69995117 52.23950195 C15.77858482 53.91426105 14.85675931 55.58876769 13.93432617 57.26293945 C13.54986328 57.96080566 13.16540039 58.65867187 12.76928711 59.37768555 C12.49890625 59.86833496 12.22852539 60.35898438 11.94995117 60.86450195 C8.46324283 59.75509475 5.1751088 58.60112529 1.94995117 56.86450195 C2.08272461 56.27282227 2.21549805 55.68114258 2.35229492 55.0715332 C2.52889648 54.28133789 2.70549805 53.49114258 2.88745117 52.67700195 C3.06147461 51.89969727 3.23549805 51.12239258 3.41479492 50.3215332 C3.59139648 49.51071289 3.76799805 48.69989258 3.94995117 47.86450195 C4.14073242 47.06786133 4.33151367 46.2712207 4.52807617 45.45043945 C6.25127059 34.88789589 3.30075298 24.56957517 -2.55004883 15.80200195 C-11.31179705 4.92686723 -25.20080179 -2.48624024 -39.05004883 -4.13549805 C-55.77707975 -5.55674904 -68.49444089 0.35294888 -81.11254883 10.92700195 C-96.23211027 25.16419151 -106.64374922 46.01671707 -112.05004883 65.86450195 C-112.28079102 66.6534082 -112.5115332 67.44231445 -112.74926758 68.25512695 C-116.81408685 83.82251991 -115.6290917 99.1550128 -107.77270508 113.13793945 C-99.72519492 126.20121079 -85.79762822 134.27802836 -71.05004883 137.86450195 C-68.38170624 138.38882608 -65.76284407 138.69167909 -63.05004883 138.86450195 C-62.34106445 138.91735352 -61.63208008 138.97020508 -60.90161133 139.0246582 C-52.22220742 139.37487976 -45.01936869 136.91725886 -38.05004883 131.86450195 C-37.39004883 131.86450195 -36.73004883 131.86450195 -36.05004883 131.86450195 C-29.89957267 120.19461852 -29.89957267 120.19461852 -29.80004883 107.30200195 C-32.30662495 102.09695871 -38.2133361 99.56616322 -43.05004883 96.86450195 C-41.73004883 94.22450195 -40.41004883 91.58450195 -39.05004883 88.86450195 C-31.38051741 91.18074903 -24.41285205 94.44854263 -17.23754883 97.98950195 C-5.93671749 103.50404752 5.44570951 108.78794377 16.94995117 113.86450195 C16.40271434 117.2391291 15.89505117 118.94685195 13.94995117 121.86450195 C13.14557617 121.69950195 12.34120117 121.53450195 11.51245117 121.36450195 C8.78344343 120.98148332 6.13442721 120.64568454 3.38745117 120.48950195 C2.66428711 120.44051758 1.94112305 120.3915332 1.19604492 120.34106445 C-2.3348528 121.16391714 -3.74972045 123.12012285 -6.05004883 125.86450195 C-7.54204255 128.28573507 -8.77517589 130.79377649 -9.98754883 133.36450195 C-10.3252832 134.05995117 -10.66301758 134.75540039 -11.01098633 135.47192383 C-12.03752138 137.59665771 -13.04698607 139.72859744 -14.05004883 141.86450195 C-14.51822021 142.86030273 -14.51822021 142.86030273 -14.99584961 143.8762207 C-16.70585247 147.52768322 -18.38408976 151.19279485 -20.05004883 154.86450195 C-20.76443115 154.58155273 -21.47881348 154.29860352 -22.21484375 154.00708008 C-33.11356697 150.13515406 -43.459779 150.33188164 -54.89453125 150.3737793 C-70.29875605 150.38869864 -83.94779358 148.5700737 -97.92504883 141.61450195 C-98.72386475 141.22681641 -99.52268066 140.83913086 -100.34570312 140.43969727 C-106.59510459 137.30894647 -111.87814077 133.57388165 -117.05004883 128.86450195 C-118.56598633 127.75075195 -118.56598633 127.75075195 -120.11254883 126.61450195 C-132.70084245 115.95189631 -140.12762646 98.95214177 -142.05004883 82.86450195 C-143.61677734 56.64106236 -135.43357465 29.87964896 -118.05004883 9.86450195 C-117.37329102 9.0446582 -116.6965332 8.22481445 -115.99926758 7.38012695 C-103.81420416 -6.90431684 -85.42315637 -18.18990527 -66.44458008 -20.0065918 C-42.33211069 -21.30465295 -18.70006248 -16.23526634 0 0 Z " fill="#E4CF8C" transform="translate(1031.050048828125,170.135498046875)"/>
<path d="M0 0 C40.34897319 3.79785762 40.34897319 3.79785762 58.9375 5.6875 C60.13076904 5.80649658 61.32403809 5.92549316 62.5534668 6.0480957 C64.18022339 6.21571411 64.18022339 6.21571411 65.83984375 6.38671875 C66.77175537 6.48170654 67.70366699 6.57669434 68.66381836 6.67456055 C71 7 71 7 74 8 C73.67 10.97 73.34 13.94 73 17 C71.57107422 16.94779297 71.57107422 16.94779297 70.11328125 16.89453125 C68.23189453 16.85392578 68.23189453 16.85392578 66.3125 16.8125 C65.07113281 16.77769531 63.82976562 16.74289062 62.55078125 16.70703125 C58.63521997 17.03009736 56.99253958 17.48667459 54 20 C45.6129396 33.06345766 45.96759284 51.10722329 44.4375 66.1875 C44.22779374 68.20123238 44.01750958 70.21490466 43.80664062 72.22851562 C43.29036044 77.1820813 42.78671642 82.13680285 42.29101562 87.09246826 C42.09718741 89.02900236 41.90204007 90.96540488 41.70556641 92.90167236 C37.37478329 123.30629386 37.37478329 123.30629386 47.5 150.9375 C57.47625495 160.93209365 71.72479642 163.94995574 85.4375 164.3125 C94.07213548 163.96595945 100.72336071 161.62799955 108 157 C108.886875 156.443125 109.77375 155.88625 110.6875 155.3125 C121.51613342 144.48386658 123.53156715 128.86177402 125 114.3125 C125.160374 112.81022153 125.32152787 111.30802615 125.48339844 109.8059082 C125.91632625 105.74304105 126.32955455 101.67840272 126.73706055 97.61291504 C127.00913779 94.90919481 127.28634068 92.2060354 127.56445312 89.50292969 C128.04540518 84.81525135 128.51598484 80.12663447 128.97851562 75.43710327 C129.15718335 73.62755032 129.33747805 71.81815714 129.51953125 70.00894165 C132.64679536 47.40231079 132.64679536 47.40231079 127 26 C121.6323131 22.32737212 115.30112747 21.86665993 109 21 C109.33 18.03 109.66 15.06 110 12 C117.72245741 11.85531849 125.26182514 12.26703173 132.94140625 13.05859375 C134.03090073 13.1672023 135.1203952 13.27581085 136.24290466 13.38771057 C138.52295996 13.61627793 140.80275003 13.8475055 143.08227539 14.08129883 C146.5834621 14.43964547 150.08556112 14.78778486 153.58789062 15.13476562 C155.80995638 15.3587752 158.03196389 15.58336353 160.25390625 15.80859375 C161.30276505 15.91280136 162.35162384 16.01700897 163.43226624 16.12437439 C164.39764816 16.22440262 165.36303009 16.32443085 166.35766602 16.42749023 C167.20829117 16.51409409 168.05891632 16.60069794 168.93531799 16.68992615 C171 17 171 17 173 18 C172.67 20.97 172.34 23.94 172 27 C170.97519531 27.01417969 169.95039062 27.02835938 168.89453125 27.04296875 C167.53381029 27.08989016 166.17313459 27.13813744 164.8125 27.1875 C163.80219727 27.19620117 163.80219727 27.19620117 162.77148438 27.20507812 C159.09228275 27.36660405 157.15612249 27.88220047 154.19921875 30.11328125 C149.18254509 36.69822234 148.15444308 43.60612116 147 51.625 C146.83121338 52.76018066 146.66242676 53.89536133 146.48852539 55.06494141 C144.39703057 69.56188087 143.03566985 84.13973204 141.64550781 98.71728516 C136.54300499 151.80428369 136.54300499 151.80428369 117.1875 168.3125 C102.58529173 179.40753136 82.98945531 179.69690968 65.42578125 177.5 C61.23361384 176.87088893 57.11778728 176.00159729 53 175 C51.95755127 174.75056641 51.95755127 174.75056641 50.89404297 174.49609375 C38.02271396 171.28939587 26.54132674 165.34152534 19 154 C9.95014431 137.01040425 11.30633485 118.13692582 13.29637146 99.61608315 C13.53983966 97.34568047 13.77217737 95.07435098 14.0020752 92.80253601 C14.5747048 87.16239938 15.16245809 81.52387329 15.75506592 75.88580322 C18.31819464 52.82542725 18.31819464 52.82542725 19.46875 29.66796875 C19.48901245 28.86426346 19.5092749 28.06055817 19.53015137 27.23249817 C19.48972487 21.75766502 18.10429471 18.51844113 15 14 C13.23053534 12.64918557 13.23053534 12.64918557 11.25 12.1875 C10.22132813 11.87425781 10.22132813 11.87425781 9.171875 11.5546875 C8.09679687 11.28011719 8.09679687 11.28011719 7 11 C6.24203125 10.79632812 5.4840625 10.59265625 4.703125 10.3828125 C2.80942149 9.89259847 0.90545533 9.44233785 -1 9 C-0.67 6.03 -0.34 3.06 0 0 Z " fill="#D1AE6F" transform="translate(586,1217)"/>
<path d="M0 0 C3.22125134 1.28705531 5.03174346 4.01905668 7.14648438 6.65771484 C7.62335693 7.23908203 8.10022949 7.82044922 8.59155273 8.41943359 C9.57349386 9.61793379 10.55175492 10.81945826 11.52636719 12.02392578 C12.86817401 13.67122918 14.23153749 15.29665659 15.60742188 16.91552734 C16.4040625 17.86169922 17.20070313 18.80787109 18.02148438 19.78271484 C18.73433594 20.62833984 19.4471875 21.47396484 20.18164062 22.34521484 C21.94489751 24.76339572 22.98758469 26.96414582 23.95898438 29.78271484 C22.30898437 31.10271484 20.65898438 32.42271484 18.95898438 33.78271484 C15.11363818 31.96903682 11.75761083 29.6426289 8.27539062 27.22021484 C1.9231058 23.27815613 -3.89004686 22.99536603 -11.16210938 24.10693359 C-26.90773081 28.30378165 -46.05647129 44.28477196 -57.04101562 55.78271484 C-52.9358068 62.09278171 -48.59096914 68.16223449 -44.04101562 74.15771484 C-42.72536015 75.90339323 -41.41027111 77.64949863 -40.09570312 79.39599609 C-39.42893555 80.28109863 -38.76216797 81.16620117 -38.07519531 82.078125 C-34.75728348 86.4895301 -31.4552806 90.91241634 -28.16601562 95.34521484 C-27.5653125 96.14813965 -26.96460938 96.95106445 -26.34570312 97.77832031 C-25.79398438 98.52355957 -25.24226563 99.26879883 -24.67382812 100.03662109 C-24.1880127 100.68961182 -23.70219727 101.34260254 -23.20166016 102.01538086 C-22.04101562 103.78271484 -22.04101562 103.78271484 -21.04101562 106.78271484 C-11.62538281 100.43062432 -1.64463644 93.08907516 1.95898438 81.78271484 C2.72898534 75.71895727 1.56614688 72.18004279 -1.36132812 66.86083984 C-2.04101562 64.78271484 -2.04101562 64.78271484 -1.47070312 62.64208984 C0.36605011 60.25330695 2.12630755 59.67724437 4.95898438 58.78271484 C5.29929687 59.24830811 5.63960937 59.71390137 5.99023438 60.19360352 C13.71593843 70.75095276 21.52668956 81.23225789 29.5390625 91.57446289 C33.32232752 96.49318753 36.76211346 101.46277802 39.95898438 106.78271484 C35.6178079 110.76212661 35.6178079 110.76212661 32.95898438 110.84521484 C30.11819088 109.3360433 28.22766864 107.05139911 25.95898438 104.78271484 C21.01979807 101.52734205 16.70821058 100.86425167 10.95898438 101.78271484 C1.95962589 104.47131987 -5.46588317 109.36998722 -13.04101562 114.78271484 C-8.74234946 121.43051125 -4.11912743 127.76142686 0.70898438 134.03271484 C1.41128174 134.94786865 2.1135791 135.86302246 2.8371582 136.8059082 C4.23514469 138.62744911 5.63396556 140.44835001 7.03369141 142.26855469 C8.71830794 144.46842548 10.38823432 146.67797683 12.04882812 148.89599609 C12.49581055 149.48928711 12.94279297 150.08257813 13.40332031 150.69384766 C14.55399609 152.22235727 15.70005375 153.75434049 16.84570312 155.28662109 C20.40372614 159.48916583 23.66001757 162.2769499 29.20117188 163.12646484 C43.95095753 164.00182304 56.60063347 152.45404815 67.27148438 143.40771484 C74.51906619 136.72473002 79.62575416 128.56110508 80.11914062 118.52490234 C79.95003201 114.57353527 79.17812324 111.36972674 78.02148438 107.59521484 C77.48201172 105.81050781 77.48201172 105.81050781 76.93164062 103.98974609 C76.45017578 102.40226562 76.45017578 102.40226562 75.95898438 100.78271484 C75.61406988 99.45233036 75.27432384 98.12041807 74.95898438 96.78271484 C77.20898438 94.72021484 77.20898438 94.72021484 79.95898438 92.78271484 C81.9621582 92.92651367 81.9621582 92.92651367 83.95898438 93.78271484 C85.37182617 95.41821289 85.37182617 95.41821289 86.65820312 97.54443359 C87.1412793 98.32753906 87.62435547 99.11064453 88.12207031 99.91748047 C88.62512695 100.75988281 89.12818359 101.60228516 89.64648438 102.47021484 C90.70689612 104.2037689 91.76810174 105.93683759 92.83007812 107.66943359 C93.35456543 108.5322998 93.87905273 109.39516602 94.41943359 110.28417969 C95.82553291 112.56613662 97.2683974 114.81489777 98.74414062 117.05224609 C99.16284424 117.68751221 99.58154785 118.32277832 100.01293945 118.97729492 C101.14398657 120.68460119 102.27795946 122.38996816 103.41210938 124.09521484 C104.95898438 126.78271484 104.95898438 126.78271484 104.95898438 129.78271484 C103.5480957 131.15454102 103.5480957 131.15454102 101.54101562 132.57568359 C100.79207031 133.11515625 100.043125 133.65462891 99.27148438 134.21044922 C98.44648437 134.79117187 97.62148437 135.37189453 96.77148438 135.97021484 C95.01633296 137.23280864 93.26247215 138.49719805 91.50976562 139.76318359 C90.59404785 140.42237793 89.67833008 141.08157227 88.73486328 141.76074219 C84.25191236 145.02615991 79.85743039 148.40481659 75.45898438 151.78271484 C68.07358402 157.43755403 60.62701147 162.99743747 53.12304688 168.49365234 C47.18226775 172.85548685 41.311527 177.30335551 35.45898438 181.78271484 C26.37401865 188.73415395 17.22154796 195.58992627 7.96777344 202.31542969 C6.62804526 203.29401091 5.29657667 204.28400075 3.97363281 205.28515625 C-0.71513216 208.78271484 -0.71513216 208.78271484 -4.04101562 208.78271484 C-5.36101562 206.47271484 -6.68101563 204.16271484 -8.04101562 201.78271484 C-7.58210938 201.41919922 -7.12320312 201.05568359 -6.65039062 200.68115234 C-1.63968861 196.57574523 1.96035076 192.83735884 4.02148438 186.53271484 C3.86957928 177.41840886 -3.05511483 169.70961585 -8.47851562 162.84521484 C-9.91604977 160.99338678 -11.35222199 159.14050076 -12.78710938 157.28662109 C-13.50366699 156.36381348 -14.22022461 155.44100586 -14.95849609 154.49023438 C-18.05169314 150.46871559 -21.04944438 146.38008283 -24.04101562 142.28271484 C-29.04304309 135.44811923 -34.14013327 128.6932686 -39.29101562 121.97021484 C-44.17279423 115.59713572 -48.96120521 109.18134811 -53.58789062 102.62109375 C-63.44843091 86.97444719 -63.44843091 86.97444719 -77.04101562 75.78271484 C-83.358484 75.0331847 -86.72823745 76.29138716 -92.06054688 79.68896484 C-94.04101562 80.78271484 -94.04101562 80.78271484 -97.04101562 80.78271484 C-99.02101563 77.31771484 -99.02101563 77.31771484 -101.04101562 73.78271484 C-92.33992414 66.9293799 -83.64319912 60.11025258 -74.57470703 53.74731445 C-69.20901545 49.95731067 -64.00269132 45.96835423 -58.79101562 41.97021484 C-52.27583381 36.97413499 -45.72092317 32.05642859 -39.04101562 27.28271484 C-31.31061541 21.75826226 -23.74146441 16.03795815 -16.20703125 10.24951172 C-14.5686417 8.99184786 -12.9270447 7.73834751 -11.28173828 6.48974609 C-9.84822644 5.3976656 -8.42486303 4.29205006 -7.01513672 3.16943359 C-2.55563817 -0.27207153 -2.55563817 -0.27207153 0 0 Z " fill="#ECDF9B" transform="translate(1064.041015625,1115.21728515625)"/>
<path d="M0 0 C41.25 0 82.5 0 125 0 C126.12718204 7.89027431 126.12718204 7.89027431 126.31640625 11.3828125 C126.35838135 12.15197998 126.40035645 12.92114746 126.44360352 13.71362305 C126.48283936 14.50937744 126.5220752 15.30513184 126.5625 16.125 C126.6049585 16.95233643 126.64741699 17.77967285 126.69116211 18.63208008 C127.01830224 25.4269847 127.10992202 32.19704848 127 39 C124.36 39 121.72 39 119 39 C118.76216797 38.19949219 118.76216797 38.19949219 118.51953125 37.3828125 C114.49187904 24.30980429 114.49187904 24.30980429 104.77172852 15.28540039 C93.57863768 10.09455892 81.1046902 10.58588484 69.05444336 10.71875 C66.14749569 10.75043605 63.24108914 10.759785 60.33398438 10.765625 C58.48697246 10.77477639 56.63996609 10.78514612 54.79296875 10.796875 C53.92335007 10.80112488 53.05373138 10.80537476 52.15776062 10.80975342 C48.2652307 10.47540198 48.2652307 10.47540198 45 12 C44.87636703 13.96287766 44.8220456 15.93015158 44.79467773 17.89672852 C44.77473251 19.15796036 44.75478729 20.4191922 44.73423767 21.71864319 C44.71725205 23.10539627 44.70037329 24.49215066 44.68359375 25.87890625 C44.66303074 27.2899589 44.64203445 28.70100529 44.62062073 30.11204529 C44.56533245 33.8323359 44.51595314 37.55268273 44.46777344 41.27307129 C44.41760758 45.06686425 44.36189592 48.86057523 44.30664062 52.65429688 C44.19897649 60.10279523 44.09755003 67.55136159 44 75 C47.04736554 74.69838683 50.09407405 74.39167749 53.140625 74.08203125 C54.42767334 73.95544128 54.42767334 73.95544128 55.74072266 73.82629395 C64.70729215 72.90681143 73.31332337 71.55593155 80 65 C83.04129809 60.38561669 83.98796544 55.35783001 85 50 C87.64 50 90.28 50 93 50 C93 69.8 93 89.6 93 110 C90.03 110 87.06 110 84 110 C83.83564453 108.89591797 83.83564453 108.89591797 83.66796875 107.76953125 C82.61355367 101.28016363 81.6727601 96.75628385 77 91.9375 C69.49725668 87.09197827 61.85244612 85.70044348 53.1015625 84.8828125 C51.7853894 84.75241577 51.7853894 84.75241577 50.44262695 84.61938477 C48.2956168 84.40746069 46.14787495 84.20297192 44 84 C44.06717304 91.6866712 44.15704811 99.3728407 44.26245117 107.05908203 C44.29563439 109.67197702 44.32368671 112.28494255 44.34643555 114.89794922 C44.38010208 118.66143761 44.43242649 122.42428339 44.48828125 126.1875 C44.49467117 127.34926758 44.5010611 128.51103516 44.50764465 129.70800781 C44.6468135 137.4456682 45.33156457 143.46824722 50.125 149.8125 C58.73518505 156.36372776 69.87675361 156.18073778 80.25 156.1875 C81.70986328 156.20586914 81.70986328 156.20586914 83.19921875 156.22460938 C94.53469721 156.24719001 105.73515113 154.95845061 114.78125 147.5390625 C120.8607496 141.18040221 123.32469214 132.18400994 126 124 C128.97 124 131.94 124 135 124 C134.40102798 138.39109094 133.2493336 152.63266359 132 167 C87.45 167 42.9 167 -3 167 C-3 164.03 -3 161.06 -3 158 C-1.97519531 157.82984375 -0.95039062 157.6596875 0.10546875 157.484375 C1.46628646 157.24036631 2.82695608 156.99553072 4.1875 156.75 C4.86103516 156.64042969 5.53457031 156.53085937 6.22851562 156.41796875 C10.82088092 155.56670104 13.65293118 154.25322577 17 151 C20.96721169 143.85901896 20.14870062 134.47912352 20.14526367 126.55444336 C20.14862228 125.43310501 20.1519809 124.31176666 20.15544128 123.15644836 C20.16490327 119.46756875 20.16689172 115.77873472 20.16796875 112.08984375 C20.17118361 109.51729819 20.17454786 106.94475282 20.17805481 104.37220764 C20.18403344 98.98828631 20.18593887 93.60438297 20.18530273 88.22045898 C20.18470132 82.00947604 20.19527203 75.79857977 20.2110464 69.58761877 C20.2257233 63.59365209 20.22929018 57.59973235 20.22869301 51.60574532 C20.2298723 49.06326505 20.2342912 46.52078413 20.24202538 43.97831535 C20.25182853 40.42419097 20.24894622 36.87029013 20.24291992 33.31616211 C20.25134918 31.74573654 20.25134918 31.74573654 20.25994873 30.14358521 C20.31739853 20.64800237 20.31739853 20.64800237 15.80078125 12.640625 C12.52309587 10.72064193 9.94762553 10.20577279 6.1875 9.75 C4.44533203 9.52570313 4.44533203 9.52570313 2.66796875 9.296875 C1.78753906 9.19890625 0.90710938 9.1009375 0 9 C0 6.03 0 3.06 0 0 Z " fill="#C19357" transform="translate(683,106)"/>
<path d="M0 0 C1.98 0 3.96 0 6 0 C7.73849744 5.49580936 9.46550388 10.995046 11.18188477 16.49780273 C11.76759145 18.36988822 12.35644551 20.24099199 12.94848633 22.11108398 C13.79814571 24.79680531 14.63648334 27.48583516 15.47265625 30.17578125 C15.74030289 31.01337479 16.00794952 31.85096832 16.28370667 32.71394348 C16.52403122 33.49452621 16.76435577 34.27510895 17.01196289 35.0793457 C17.22736221 35.76551468 17.44276154 36.45168365 17.66468811 37.15864563 C18 39 18 39 17 42 C14.36 42.33 11.72 42.66 9 43 C8.3709375 42.05898437 7.741875 41.11796875 7.09375 40.1484375 C-0.36658938 29.203479 -7.49547581 22.15135726 -20.5 18.25 C-21.325 18.1675 -22.15 18.085 -23 18 C-23.6084375 17.93683594 -24.216875 17.87367187 -24.84375 17.80859375 C-34.2661368 17.27943797 -44.18218717 20.26080075 -51.4140625 26.37890625 C-55.96041823 31.02604326 -57.76716649 35.82765085 -58.15234375 42.31640625 C-57.76028954 49.22259197 -55.41670995 55.15145486 -50.375 59.9375 C-43.28514085 65.2759287 -34.85935152 67.52231366 -26.3125 69.4375 C-25.41966309 69.64503906 -24.52682617 69.85257813 -23.60693359 70.06640625 C-18.76569511 71.18199964 -13.91340792 72.235851 -9.05078125 73.25390625 C32.8916243 82.0467262 32.8916243 82.0467262 43.1875 97.375 C49.92200132 109.2912758 51.55602281 122.87805388 47.95703125 135.9921875 C43.94585958 148.59872703 35.33240203 159.49065087 23.56640625 165.76953125 C22.71949219 166.17558594 21.87257813 166.58164063 21 167 C20.12214844 167.43699219 19.24429688 167.87398437 18.33984375 168.32421875 C0.78135647 176.36682709 -18.03057648 178.66327799 -36.4453125 172.1328125 C-37.98813608 171.47695632 -39.50054625 170.74972687 -41 170 C-42.98 175.445 -42.98 175.445 -45 181 C-46.98 181.33 -48.96 181.66 -51 182 C-53.02445668 175.65010592 -55.03520225 169.29599024 -57.03637695 162.9387207 C-57.71908028 160.77560858 -58.40494134 158.61349048 -59.09399414 156.45239258 C-60.08266533 153.34971603 -61.06000458 150.24366684 -62.03515625 147.13671875 C-62.50224754 145.68346443 -62.50224754 145.68346443 -62.97877502 144.20085144 C-63.25914108 143.3001442 -63.53950714 142.39943695 -63.82836914 141.47143555 C-64.07929825 140.67867722 -64.33022736 139.88591888 -64.58876038 139.06913757 C-65 137 -65 137 -64 134 C-61.36 133.67 -58.72 133.34 -56 133 C-55.57589844 133.85722656 -55.15179687 134.71445313 -54.71484375 135.59765625 C-48.40876214 147.89105051 -41.02431887 155.762508 -27.7890625 160.64453125 C-22.90660677 162.20461184 -18.35030021 162.50008037 -13.25 162.4375 C-12.37819092 162.42992676 -11.50638184 162.42235352 -10.6081543 162.41455078 C0.39752389 162.13602895 10.58240941 159.38236271 19 152 C24.18851052 146.50957184 26.50418583 141.29705613 27.375 133.75 C26.63271521 126.32715212 24.13582247 119.48660544 19 114 C6.41131355 105.45056115 -9.03862689 103.30458375 -23.68774414 100.53833008 C-52.36526764 95.0795457 -52.36526764 95.0795457 -63 86 C-63.63035156 85.47792969 -64.26070312 84.95585938 -64.91015625 84.41796875 C-72.17394674 77.83274892 -76.24399938 68.65101461 -77.20483398 58.92700195 C-77.30216469 56.82163717 -77.32936963 54.732499 -77.3125 52.625 C-77.30686035 51.88113037 -77.3012207 51.13726074 -77.29541016 50.37084961 C-77.03127219 38.36303322 -72.49388701 28.51017084 -64.25 19.75 C-52.16532977 8.41919388 -38.0222828 5.08933607 -21.859375 5.59375 C-15.53663415 5.98055297 -9.86905528 7.6009701 -4 10 C-2.68 6.7 -1.36 3.4 0 0 Z " fill="#D3B272" transform="translate(901,1208)"/>
<path d="M0 0 C2.68497643 1.05419748 4.98264212 2.45108214 7.4375 3.95703125 C6.85609473 12.20479143 5.88270895 20.31785988 4.59570312 28.48339844 C4.41184555 29.67198959 4.22798798 30.86058075 4.03855896 32.08518982 C3.53948812 35.30646289 3.03675508 38.52713765 2.53238487 41.74758434 C2.00250272 45.13723986 1.47763985 48.52767243 0.95227051 51.91802979 C-0.04197501 58.32952443 -1.04027397 64.74038038 -2.04024649 71.15098405 C-3.83122368 82.63361203 -5.61462419 94.11741872 -7.39745569 105.60131383 C-8.12236627 110.26956742 -8.84982361 114.93741873 -9.57800293 119.60516357 C-9.95893267 122.05285183 -10.33983425 124.50054446 -10.72070312 126.94824219 C-10.89320084 128.05076828 -11.06569855 129.15329437 -11.24342346 130.28923035 C-12.71540853 139.7641573 -13.78246248 148.98280602 -13.875 158.58203125 C-13.90400391 159.59265625 -13.93300781 160.60328125 -13.96289062 161.64453125 C-14.01387921 167.62196172 -13.69533151 171.29210679 -9.5625 175.95703125 C-7.71224422 177.84780873 -7.71224422 177.84780873 -5.8125 179.33203125 C-4.74 180.19828125 -3.6675 181.06453125 -2.5625 181.95703125 C-4.5425 185.91703125 -4.5425 185.91703125 -6.5625 189.95703125 C-9.95583079 188.6710941 -13.04742449 187.20286708 -16.17578125 185.3671875 C-17.0793335 184.83899414 -17.98288574 184.31080078 -18.91381836 183.76660156 C-19.8910083 183.19006836 -20.86819824 182.61353516 -21.875 182.01953125 C-22.89795166 181.41850586 -23.92090332 180.81748047 -24.97485352 180.19824219 C-27.24309912 178.86392082 -29.51033661 177.52800955 -31.77636719 176.18994141 C-35.18160955 174.17990095 -38.59230346 172.1792481 -42.0035553 170.1794281 C-44.94584903 168.45293319 -47.88519147 166.72146021 -50.82382202 164.98873901 C-52.27452561 164.13431531 -53.7262079 163.28155115 -55.17886353 162.43045044 C-57.22509175 161.23074956 -59.26727689 160.02443979 -61.30859375 158.81640625 C-61.92727325 158.45552414 -62.54595276 158.09464203 -63.18338013 157.7228241 C-67.44836362 155.18530401 -67.44836362 155.18530401 -68.5625 152.95703125 C-67.78515625 151.23046875 -67.78515625 151.23046875 -66.625 149.33203125 C-65.6040625 147.66140625 -65.6040625 147.66140625 -64.5625 145.95703125 C-61.52315293 146.61028458 -58.97469705 147.65527164 -56.1875 149.01953125 C-52.47131678 150.68540649 -49.68423817 151.72386626 -45.5625 150.95703125 C-35.56391684 142.62169233 -34.99880275 122.08478373 -33.5625 109.95703125 C-33.42956543 109.10189941 -33.29663086 108.24676758 -33.15966797 107.36572266 C-33.33265556 104.70979667 -33.33265556 104.70979667 -35.93896484 103.00341797 C-37.03934082 102.38740723 -38.1397168 101.77139648 -39.2734375 101.13671875 C-39.86922104 100.79576675 -40.46500458 100.45481476 -41.07884216 100.10353088 C-43.02250575 98.9957718 -44.97953713 97.91427901 -46.9375 96.83203125 C-48.26769798 96.07898099 -49.59671841 95.32384694 -50.92456055 94.56665039 C-52.91613623 93.43149932 -54.90841687 92.29785645 -56.90489197 91.17134094 C-62.4691575 88.03134533 -67.94050033 84.75430869 -73.375 81.39453125 C-74.49237549 80.70689697 -74.49237549 80.70689697 -75.63232422 80.00537109 C-77.27732541 78.99186514 -78.92021837 77.97493807 -80.5625 76.95703125 C-85.540027 79.6372381 -89.75311368 82.5528599 -94 86.26953125 C-94.56203125 86.75446045 -95.1240625 87.23938965 -95.703125 87.73901367 C-96.81834251 88.7024911 -97.93153381 89.66831988 -99.04248047 90.63671875 C-100.35340707 91.77540989 -101.67746377 92.89895264 -103.00390625 94.01953125 C-110.31481246 100.1493671 -110.31481246 100.1493671 -114.6875 108.45703125 C-114.51857434 113.18694979 -112.93462709 114.73151838 -109.5625 117.95703125 C-106.9098782 119.80178799 -106.9098782 119.80178799 -104.5625 120.95703125 C-105.16177826 124.31298953 -106.40872436 126.33504351 -108.5625 128.95703125 C-112.47704057 128.27755974 -115.44322541 126.42714311 -118.83984375 124.421875 C-119.44703751 124.06493057 -120.05423126 123.70798615 -120.67982483 123.34022522 C-122.62267345 122.19631749 -124.56127033 121.04540292 -126.5 119.89453125 C-127.76862661 119.14735571 -129.03750471 118.40060699 -130.30664062 117.65429688 C-138.45319045 112.85325092 -146.52735682 107.94222769 -154.5625 102.95703125 C-153.43798273 99.98509275 -152.33956209 97.62262438 -150.5625 94.95703125 C-147.79973823 95.47971591 -145.2364124 96.06572712 -142.5625 96.95703125 C-129.00266309 98.29329951 -121.85716597 91.98692574 -111.5625 83.95703125 C-110.17067143 82.87617522 -108.77873866 81.79545335 -107.38671875 80.71484375 C-105.10987205 78.94559979 -102.83404323 77.17509007 -100.56030273 75.40185547 C-95.31140519 71.30882458 -90.04071266 67.24584853 -84.75 63.20703125 C-84.04198242 62.66651123 -83.33396484 62.12599121 -82.60449219 61.5690918 C-81.22889568 60.51913428 -79.85324642 59.46924587 -78.47753906 58.41943359 C-70.55603383 52.37024742 -62.67507831 46.26998944 -54.8125 40.14453125 C-46.74490086 33.86014323 -38.62932789 27.64057239 -30.49951172 21.43701172 C-28.13452636 19.63003652 -25.77357194 17.81790175 -23.4152832 16.00219727 C-21.84719429 14.79621388 -20.27520084 13.5953128 -18.703125 12.39453125 C-16.45564959 10.65022197 -14.24458408 8.88651686 -12.046875 7.08203125 C-11.17240723 6.37663208 -11.17240723 6.37663208 -10.28027344 5.65698242 C-9.1640724 4.75542323 -8.05726907 3.84205779 -6.96191406 2.9152832 C-4.56258207 0.99512594 -3.12530716 -0.05240607 0 0 Z M-19.5625 27.95703125 C-20.15933594 28.45589844 -20.75617188 28.95476562 -21.37109375 29.46875 C-27.03181736 34.15377682 -32.77926821 38.69375008 -38.625 43.14453125 C-44.86642749 47.89960181 -51.10318432 52.66005045 -57.3125 57.45703125 C-58.06281494 58.03219482 -58.81312988 58.6073584 -59.58618164 59.19995117 C-60.64953735 60.02329956 -60.64953735 60.02329956 -61.734375 60.86328125 C-62.3540918 61.34087891 -62.97380859 61.81847656 -63.61230469 62.31054688 C-66.07440867 64.38921854 -68.30811836 66.6568803 -70.5625 68.95703125 C-62.12271316 74.18484419 -53.64192833 79.33558655 -45.10107422 84.39648438 C-43.27038912 85.48200117 -41.44183419 86.57105251 -39.61328125 87.66015625 C-38.44543877 88.35307745 -37.27747496 89.04579419 -36.109375 89.73828125 C-35.06620117 90.35767578 -34.02302734 90.97707031 -32.94824219 91.61523438 C-30.87343024 93.03873299 -30.87343024 93.03873299 -29.5625 92.95703125 C-28.10116782 85.07448702 -26.64885716 77.19035679 -25.20802212 69.30404282 C-24.53869563 65.64212908 -23.86628044 61.98083916 -23.18676758 58.32080078 C-22.53106853 54.78839438 -21.88353428 51.25457993 -21.24162483 47.71964264 C-20.99534133 46.37152047 -20.74612458 45.02393075 -20.49392509 43.67690277 C-20.14109412 41.78961853 -19.79966574 39.90021336 -19.45874023 38.01074219 C-19.2611058 36.93596619 -19.06347137 35.86119019 -18.85984802 34.75384521 C-18.5791512 32.11365011 -18.71008777 30.44313026 -19.5625 27.95703125 Z " fill="#EEE39F" transform="translate(512.5625,1166.04296875)"/>
<path d="M0 0 C6.06795468 1.50161615 11.89972469 3.6549875 17.76586914 5.7956543 C19.66186978 6.47980183 21.55787053 7.16394904 23.45387554 7.84808445 C25.4759098 8.57889726 27.49693933 9.31242692 29.5177002 10.04675293 C33.74697812 11.58344627 37.97933173 13.11154098 42.2121582 14.63842773 C52.70663536 18.42563881 63.19658371 22.22534057 73.68621826 26.02593994 C81.81076552 28.96946627 89.9362568 31.91032858 98.06454182 34.84352016 C102.23264386 36.34801281 106.39866178 37.85809555 110.56311512 39.37265682 C112.5361392 40.08919556 114.51013091 40.80298955 116.48457336 41.51560974 C118.87607816 42.37877313 121.266105 43.24604899 123.65422058 44.11854553 C142.09647315 51.06557125 142.09647315 51.06557125 161.25024414 49.58081055 C163.04344071 48.49213611 163.04344071 48.49213611 165.13696289 46.37768555 C166.06508789 45.51143555 166.06508789 45.51143555 167.01196289 44.62768555 C167.56883789 44.00893555 167.56883789 44.00893555 168.13696289 43.37768555 C171.51701616 44.8262798 173.59568569 46.75098726 176.13696289 49.37768555 C175.42411133 50.15112305 174.71125977 50.92456055 173.97680664 51.72143555 C169.23928554 56.87026602 164.5291112 62.03206603 159.94555664 67.3190918 C157.70685039 69.86725205 155.42286077 72.37179148 153.13696289 74.87768555 C149.71173158 78.63305963 146.33408433 82.42071777 143.00415039 86.26049805 C139.78495066 89.91072033 136.47501233 93.47931773 133.17602539 97.05737305 C131.12118961 99.19715436 131.12118961 99.19715436 130.13696289 101.37768555 C126.78100461 100.77840728 124.75895063 99.53146119 122.13696289 97.37768555 C122.73645192 93.99806614 123.93457158 92.16464259 126.13696289 89.56518555 C128.97781676 85.86450907 130.40965828 83.19530403 130.13696289 78.37768555 C124.26628927 69.46295894 110.04290287 66.06045077 100.57446289 62.44018555 C99.50284912 62.02607422 98.43123535 61.61196289 97.32714844 61.18530273 C96.31434814 60.80664062 95.30154785 60.42797852 94.25805664 60.0378418 C93.34467529 59.69374268 92.43129395 59.34964355 91.49023438 58.99511719 C89.01185006 58.11570448 89.01185006 58.11570448 86.13696289 59.37768555 C84.5908017 60.86473607 84.5908017 60.86473607 83.07446289 62.75268555 C80.15954114 66.19143045 77.18035723 69.55172339 74.13696289 72.87768555 C70.73140374 76.61099776 67.36756667 80.36973439 64.07836914 84.20581055 C62.49821694 85.9735462 60.88616151 87.67033578 59.22680664 89.36206055 C58.71754639 89.89065674 58.20828613 90.41925293 57.68359375 90.96386719 C56.66927624 92.01405007 55.64300755 93.05284746 54.60400391 94.07861328 C52.99493226 95.6938029 52.99493226 95.6938029 51.13696289 98.37768555 C51.69476599 104.11500422 54.71805441 109.05340001 57.26196289 114.12768555 C57.95418945 115.55467773 57.95418945 115.55467773 58.66040039 117.01049805 C62.54288579 124.79680119 67.41646093 133.82456901 75.13696289 138.37768555 C78.00568157 139.29597348 78.00568157 139.29597348 81.13696289 138.37768555 C84.03251512 136.26754531 86.59943542 133.90233217 89.13696289 131.37768555 C92.46456212 132.92963309 94.62276774 134.68390503 97.13696289 137.37768555 C93.34199187 141.74617308 89.51395571 146.0817381 85.63696289 150.37768555 C77.95847123 158.89641619 70.52808738 167.609914 63.13696289 176.37768555 C59.79265552 175.6540224 57.79433946 174.56053059 55.13696289 172.37768555 C55.93803159 168.6168788 57.50559037 165.56141308 59.29711914 162.18237305 C61.91802193 153.42977676 59.48013224 146.63061098 55.41821289 138.81518555 C54.92470337 137.82631348 54.43119385 136.83744141 53.92272949 135.81860352 C52.87492041 133.72413669 51.81837071 131.63402253 50.75366211 129.5480957 C49.16991891 126.44231359 47.61213375 123.32494689 46.06274414 120.2019043 C42.94129178 113.91681779 39.79152509 107.64620571 36.63696289 101.37768555 C30.52973887 89.24184718 24.44606957 77.10324712 18.62524414 64.8269043 C14.86081451 56.88866485 10.96486339 49.02997486 6.96118164 41.2097168 C5.93969292 39.2064638 4.91820853 37.20320861 3.89672852 35.19995117 C2.34168946 32.15231345 0.78171761 29.10763337 -0.79150391 26.06933594 C-2.34685971 23.06083546 -3.88202309 20.04276541 -5.41381836 17.0222168 C-5.89273026 16.10882034 -6.37164215 15.19542389 -6.86506653 14.25434875 C-7.29019028 13.4079332 -7.71531403 12.56151764 -8.15332031 11.68945312 C-8.53317581 10.95052322 -8.91303131 10.21159332 -9.30439758 9.45027161 C-9.86303711 7.37768555 -9.86303711 7.37768555 -9.06755066 5.25663757 C-5.16441842 -0.83195997 -5.16441842 -0.83195997 0 0 Z M15.13696289 29.37768555 C16.3950711 33.36835627 17.85602356 37.07145052 19.71899414 40.81640625 C20.4898938 42.37250359 20.4898938 42.37250359 21.27636719 43.96003723 C21.82848877 45.06336899 22.38061035 46.16670074 22.94946289 47.3034668 C23.51898682 48.44679977 24.08851074 49.59013275 24.67529297 50.76811218 C25.87696203 53.17718165 27.08030525 55.58532793 28.28637695 57.9921875 C29.83330806 61.08022495 31.37104234 64.17274207 32.90638733 67.26655293 C34.37355567 70.21911853 35.84948286 73.16729779 37.32446289 76.1159668 C37.87658447 77.22941971 38.42870605 78.34287262 38.99755859 79.49006653 C39.5114917 80.51170395 40.0254248 81.53334137 40.55493164 82.5859375 C41.00634521 83.48939407 41.45775879 84.39285065 41.92285156 85.32368469 C42.97091595 87.5206659 42.97091595 87.5206659 45.13696289 88.37768555 C45.53786133 87.91620117 45.93875977 87.4547168 46.35180664 86.97924805 C49.74807527 83.0823956 53.17370822 79.21518558 56.63696289 75.37768555 C59.91211473 71.74786414 63.15217497 68.09129774 66.36352539 64.4050293 C69.59744147 60.70810762 72.86904589 57.04454307 76.13696289 53.37768555 C74.02854781 51.26927047 72.75046888 50.70112809 70.0012207 49.66943359 C69.14562561 49.34537033 68.29003052 49.02130707 67.4085083 48.68742371 C66.47842957 48.3415773 65.54835083 47.9957309 64.59008789 47.6394043 C63.62729919 47.2767598 62.6645105 46.9141153 61.67254639 46.54048157 C58.57923793 45.37695541 55.48311172 44.22112922 52.38696289 43.06518555 C50.34642052 42.29808018 48.30605386 41.53050724 46.26586914 40.76245117 C35.92190653 36.8751395 25.56338819 33.03872592 15.13696289 29.37768555 Z " fill="#D2BC7C" transform="translate(271.863037109375,324.622314453125)"/>
<path d="M0 0 C2.75 2.5625 2.75 2.5625 5 5 C3.76746102 8.90278882 2.35925417 12.52739422 0.52203369 16.1829834 C0.02310608 17.18069763 -0.47582153 18.17841187 -0.98986816 19.20635986 C-1.53429565 20.2848822 -2.07872314 21.36340454 -2.63964844 22.47460938 C-3.52369881 24.23822664 -4.40774896 26.00184403 -5.29179049 27.76546574 C-6.23962148 29.65440124 -7.18943653 31.54232693 -8.13982391 33.42997742 C-10.12875525 37.38066571 -12.11148847 41.33444415 -14.09332275 45.28869629 C-18.66401224 54.40602887 -23.24265017 63.51936393 -27.82150269 72.63259888 C-32.00929335 80.96766592 -36.19532777 89.30360274 -40.37483239 97.64282846 C-42.33816355 101.55962163 -44.30536063 105.47443909 -46.27570295 109.38770962 C-47.21083582 111.24653449 -48.14405754 113.10630444 -49.07647705 114.9664917 C-50.20389796 117.21568452 -51.33412622 119.46347381 -52.46801758 121.70941162 C-62.81395161 140.89855852 -62.81395161 140.89855852 -65 162 C-63.9130927 164.60447597 -62.58319335 166.62520998 -61 169 C-60.3197633 170.32646156 -59.64507739 171.65608877 -59 173 C-61.97 175.475 -61.97 175.475 -65 178 C-68.1623716 176.62803835 -69.9936218 175.1434878 -72.1875 172.5 C-74.85967935 169.33782614 -77.58196786 166.24374983 -80.375 163.1875 C-83.42858867 159.81059018 -86.34429205 156.36782868 -89.1875 152.8125 C-93.55693678 147.40272113 -98.25341759 142.34431434 -103.03979492 137.30200195 C-113 126.78946976 -113 126.78946976 -113 124 C-107.52380952 119 -107.52380952 119 -105 119 C-103.80277203 120.46327863 -102.60615818 121.92706844 -101.4140625 123.39453125 C-98.19065033 127.05426164 -95.44611306 128.89482814 -90.5625 129.25 C-82.83634772 126.53906938 -79.09219345 118.84200301 -75.66992188 111.81835938 C-75.22197266 110.86767578 -74.77402344 109.91699219 -74.3125 108.9375 C-73.39372678 107.02908044 -72.47319107 105.12150827 -71.55078125 103.21484375 C-71.12361816 102.31749512 -70.69645508 101.42014648 -70.25634766 100.49560547 C-69.12818279 98.25462193 -67.88784533 96.18091057 -66.54296875 94.06640625 C-64.71716175 91.2378141 -64.71716175 91.2378141 -65.45703125 88.890625 C-67.46372035 86.43179582 -69.52168185 84.07170399 -71.6875 81.75 C-74.68479616 78.51184489 -77.67054609 75.27071448 -80.5625 71.9375 C-83.17701942 68.92926472 -85.82951656 65.95869751 -88.5 63 C-89.2528125 62.16339844 -90.005625 61.32679688 -90.78125 60.46484375 C-92.21587071 58.87110138 -93.65319134 57.27978343 -95.09375 55.69140625 C-95.7228125 54.98886719 -96.351875 54.28632813 -97 53.5625 C-97.556875 52.94503906 -98.11375 52.32757813 -98.6875 51.69140625 C-100 50 -100 50 -101 47 C-109.97675787 50.41823303 -118.92985861 53.88004115 -127.75 57.6875 C-128.39195313 57.96021729 -129.03390625 58.23293457 -129.6953125 58.51391602 C-138.15756505 62.20958465 -138.15756505 62.20958465 -144 69 C-144 73.94558981 -142.03667981 76.66954254 -138.9609375 80.2890625 C-138 82 -138 82 -138.234375 84.1015625 C-139.27658606 86.68582053 -140.62438091 87.60257701 -143 89 C-143.99 89 -144.98 89 -146 89 C-147.76953125 87.12109375 -147.76953125 87.12109375 -149.8125 84.4375 C-153.66197782 79.55814557 -157.72211674 75.00684039 -162 70.5 C-178 53.52032028 -178 53.52032028 -178 48 C-176 45.75 -176 45.75 -174 44 C-170.52906117 45.21951905 -168.56429023 46.43570977 -166 49 C-157.55192959 53.02665038 -148.69167 51.37494822 -140.1809082 48.36132812 C-138.54448364 47.7493457 -138.54448364 47.7493457 -136.875 47.125 C-134.98948765 46.44804044 -133.10397244 45.77108884 -131.21839905 45.09429932 C-129.07675163 44.32146514 -126.93874951 43.53916576 -124.80126953 42.75488281 C-119.45896453 40.79721573 -114.10271961 38.87900237 -108.74609375 36.9609375 C-100.28362856 33.9280483 -91.82560168 30.88312452 -83.37109375 27.828125 C-74.32460232 24.55936097 -65.27510386 21.29910794 -56.22265625 18.046875 C-53.96378121 17.23503884 -51.70491071 16.42319003 -49.44604492 15.61132812 C-46.20375705 14.44604663 -42.96138286 13.28100953 -39.71865845 12.11694336 C-36.7261314 11.04253066 -33.73415237 9.96660202 -30.7421875 8.890625 C-29.81071396 8.55691895 -28.87924042 8.22321289 -27.91954041 7.87939453 C-23.64701938 6.34281267 -19.39183888 4.77774447 -15.16503906 3.11914062 C-14.05565475 2.68719391 -14.05565475 2.68719391 -12.92385864 2.246521 C-11.57025016 1.71587049 -10.22016838 1.17608636 -8.87472534 0.62506104 C-5.57947124 -0.66528352 -3.30751315 -1.53764667 0 0 Z M-29 20 C-29.58944901 20.21662292 -30.17889801 20.43324585 -30.78620911 20.65643311 C-36.96766101 22.92807941 -43.14920891 25.19946431 -49.33081055 27.47070312 C-51.63226706 28.31634033 -53.93369977 29.16204232 -56.23510742 30.0078125 C-59.55901812 31.22934068 -62.88301673 32.45062937 -66.20703125 33.671875 C-67.72959282 34.23149933 -67.72959282 34.23149933 -69.28291321 34.8024292 C-75.85043523 37.21500897 -82.42312804 39.61302755 -89 42 C-87.35611492 45.46743471 -85.42784132 47.92309063 -82.8125 50.75 C-80.00954583 53.80776819 -77.21892092 56.86719183 -74.5 60 C-71.06160539 63.95254707 -67.54323294 67.83015684 -64.015625 71.703125 C-62 74 -62 74 -60.359375 76.296875 C-59.91078125 76.85890625 -59.4621875 77.4209375 -59 78 C-58.34 78 -57.68 78 -57 78 C-56.47680176 76.97865967 -55.95360352 75.95731934 -55.41455078 74.9050293 C-53.42678661 71.02539304 -51.43763749 67.14646816 -49.44812012 63.26773071 C-48.56893161 61.5532158 -47.69010431 59.83851561 -46.81164551 58.12362671 C-38.34833179 41.60313901 -38.34833179 41.60313901 -34.4765625 34.3828125 C-34.00202637 33.49762939 -33.52749023 32.61244629 -33.03857422 31.70043945 C-32.20097572 30.148232 -31.35660439 28.59965358 -30.50439453 27.05541992 C-29.61082917 25.40069164 -28.79443389 23.70454085 -28 22 C-28.495 21.01 -28.495 21.01 -29 20 Z " fill="#D6C183" transform="translate(1230,321)"/>
<path d="M0 0 C1.29550781 -0.02578125 2.59101563 -0.0515625 3.92578125 -0.078125 C11.90522686 0.61790141 17.36465069 5.63143683 22.6875 11.25 C28.9927275 19.61602696 31.86636772 28.90373329 32.6875 39.25 C32.74035156 39.91128906 32.79320312 40.57257812 32.84765625 41.25390625 C33.39805677 54.24814466 29.33925835 67.95541033 20.49609375 77.6484375 C13.87828089 83.50870375 6.98420341 86.66794669 -1.81640625 86.5234375 C-10.06173858 85.62019296 -16.88545489 81.37730899 -22.3125 75.25 C-31.36382022 62.66845965 -33.54669584 49.45752484 -32.3125 34.25 C-29.64013582 20.29270666 -23.36628136 10.9287299 -12.1796875 2.484375 C-8.26372946 -0.10441734 -4.57317543 0.05428101 0 0 Z M-10.87890625 10.20703125 C-17.72577045 19.96427914 -17.51653606 31.97594401 -17.5625 43.375 C-17.583125 44.63054688 -17.60375 45.88609375 -17.625 47.1796875 C-17.66724074 57.35970619 -17.15357809 68.16508953 -10.3125 76.25 C-7.00990076 79.15228418 -4.43092552 80.16559053 0 80.5 C5.1170489 80.15308143 8.15677238 78.69325747 11.875 75.1875 C21.07278565 60.28074394 19.21478507 37.03820051 15.671875 20.59375 C13.86093107 14.44228965 11.23525342 9.66246703 5.6875 6.25 C-0.68670364 4.99077753 -6.20610933 5.48941133 -10.87890625 10.20703125 Z " fill="#B6955B" transform="translate(226.3125,703.75)"/>
<path d="M0 0 C4.90771812 3.39765101 4.90771812 3.39765101 6.25 6.25 C6.63420899 9.38770673 6.76108304 11.34808875 5.1875 14.125 C1.80952612 16.08640419 0.08439689 16.08078599 -3.75 15.25 C-5.41015625 13.01171875 -5.41015625 13.01171875 -7.0625 10.25 C-9.40771009 6.42740125 -9.40771009 6.42740125 -13.203125 4.33984375 C-16.85836996 4.12643873 -19.51590505 4.41060492 -22.58203125 6.49609375 C-29.85968368 14.17908378 -31.4003433 24.07498989 -31.75 34.25 C-30.88375 33.46625 -30.0175 32.6825 -29.125 31.875 C-24.26981931 27.87994456 -19.38907623 26.77645922 -13.1875 26.93359375 C-6.15304074 27.84672067 -0.23246508 30.71283725 4.25 36.25 C9.86311534 43.62723731 11.23876871 51.1633407 10.25 60.25 C8.24171768 68.40338572 3.92334016 75.35526542 -3.28515625 79.8203125 C-10.43833137 83.50751617 -17.263649 85.80785275 -25.28125 83.53125 C-33.9931185 80.2774196 -39.61885938 75.68870006 -43.75 67.25 C-49.83509038 51.14092257 -48.62657032 35.02497356 -42.16015625 19.2265625 C-38.23704751 10.94565153 -30.85117282 1.95348537 -21.9921875 -1.3125 C-14.89662242 -2.6970005 -6.66137018 -3.1267656 0 0 Z M-27.41796875 37.94140625 C-34.10696987 45.55193246 -33.37213887 53.4830887 -32.75 63.25 C-31.7367125 69.40951141 -29.65947261 73.22171478 -24.75 77.25 C-21.29820431 78.97589785 -17.53133961 78.61043965 -13.75 78.25 C-9.50777254 76.49777562 -7.58017536 74.43325797 -5.75 70.25 C-3.03201039 59.42900388 -2.98358454 49.82026275 -6.75 39.25 C-9.31232905 35.51632053 -11.32912389 34.07343365 -15.6875 33.25 C-20.62604404 32.95350205 -23.91311178 34.3873007 -27.41796875 37.94140625 Z " fill="#A77F4A" transform="translate(1354.75,705.75)"/>
<path d="M0 0 C5.12736792 3.78277843 9.27997892 8.88787477 10.82421875 15.140625 C12.49101758 26.25261719 8.56518559 35.63094906 2.1875 44.5625 C-5.54616607 54.21073837 -14.69084226 62.50233133 -24.8125 69.5625 C-20.70846637 69.64944042 -16.60466871 69.70287149 -12.5 69.75 C-11.33275391 69.77513672 -10.16550781 69.80027344 -8.96289062 69.82617188 C-7.84462891 69.83583984 -6.72636719 69.84550781 -5.57421875 69.85546875 C-4.54256592 69.8711792 -3.51091309 69.88688965 -2.44799805 69.90307617 C0.21303171 69.78460404 0.21303171 69.78460404 1.98828125 68.171875 C3.37869118 66.3059177 4.11836095 64.57285629 4.875 62.375 C5.12636719 61.65957031 5.37773437 60.94414063 5.63671875 60.20703125 C5.81847656 59.66433594 6.00023437 59.12164063 6.1875 58.5625 C7.8375 58.5625 9.4875 58.5625 11.1875 58.5625 C9.76693925 79.98306075 9.76693925 79.98306075 7.1875 82.5625 C5.59139018 82.65583705 3.99116572 82.67995372 2.39233398 82.67602539 C1.37135117 82.67594986 0.35036835 82.67587433 -0.70155334 82.67579651 C-1.8119548 82.67063522 -2.92235626 82.66547394 -4.06640625 82.66015625 C-5.19698959 82.6587413 -6.32757294 82.65732635 -7.49241638 82.65586853 C-11.11997065 82.65025019 -14.74746424 82.63769458 -18.375 82.625 C-20.82747307 82.61998736 -23.2799471 82.61542405 -25.73242188 82.61132812 C-31.75913545 82.6002748 -37.78581339 82.58351884 -43.8125 82.5625 C-44.015625 77.79931641 -44.015625 77.79931641 -42.1875 75.66796875 C-41.40375 75.03503906 -40.62 74.40210938 -39.8125 73.75 C-15.33491253 52.99656066 -15.33491253 52.99656066 -3.4453125 24.2734375 C-3.19340858 17.82766077 -3.46400491 11.67600811 -7.8125 6.5625 C-12.37505983 3.58004747 -17.57048802 3.82664593 -22.8125 4.5625 C-26.50922158 6.26138783 -28.40092416 8.75724292 -30.25 12.375 C-30.9525784 16.35627761 -31.0487981 19.68610726 -29.8125 23.5625 C-27.37552352 26.74410819 -25.85938475 28.26006663 -22 29.375 C-21.278125 29.436875 -20.55625 29.49875 -19.8125 29.5625 C-20.125 31.9375 -20.125 31.9375 -20.8125 34.5625 C-24.54314289 37.04959526 -27.49402335 37.07875053 -31.8125 36.5625 C-36.99052112 34.77010807 -39.40129923 32.47420526 -41.8125 27.5625 C-43.51265518 20.71529967 -42.9126149 14.88430293 -39.8125 8.5625 C-31.88855628 -3.92371434 -12.74538585 -6.92389702 0 0 Z " fill="#A57E46" transform="translate(169.8125,706.4375)"/>
<path d="M0 0 C5.9637992 0.63230154 11.33860772 2.24056316 17.01953125 4.125 C17.9593132 4.43195801 18.89909515 4.73891602 19.86735535 5.05517578 C21.84238732 5.70140167 23.81652134 6.3503777 25.78979492 7.00195312 C28.81827414 8.00190653 31.84927809 8.99387048 34.88085938 9.984375 C36.80223377 10.61412453 38.72346297 11.24431727 40.64453125 11.875 C41.55282181 12.17293457 42.46111237 12.47086914 43.39692688 12.77783203 C44.23507431 13.05481934 45.07322174 13.33180664 45.93676758 13.6171875 C46.6751033 13.86065918 47.41343903 14.10413086 48.17414856 14.35498047 C50 15 50 15 52 16 C50.90773595 19.27679215 50.20070846 19.92308502 47.625 22.0625 C44.1862551 24.97742175 40.82596216 27.95660566 37.5 31 C33.74673328 34.42330921 29.95969403 37.79751581 26.125 41.12890625 C21.697643 45.0272592 17.35502045 49.02124051 13 53 C4.77108275 45.32897545 -0.52789829 33.82655339 -1.13183594 22.53515625 C-1.61598944 5.67944183 -1.61598944 5.67944183 0 0 Z " fill="#BC8C50" transform="translate(764,864)"/>
<path d="M0 0 C0.66 0.33 1.32 0.66 2 1 C2.58218384 2.75701904 2.58218384 2.75701904 3.05322266 5.07324219 C3.23325836 5.93794128 3.41329407 6.80264038 3.5987854 7.69354248 C3.78532684 8.63514221 3.97186829 9.57674194 4.1640625 10.546875 C4.36099701 11.51022766 4.55793152 12.47358032 4.76083374 13.46612549 C5.17668731 15.50979007 5.58831774 17.55431775 5.99609375 19.59960938 C6.61997432 22.7248248 7.25807804 25.8468743 7.8984375 28.96875 C8.300331 30.95295265 8.70139947 32.93732263 9.1015625 34.921875 C9.2921524 35.85537781 9.48274231 36.78888062 9.67910767 37.75067139 C9.85283905 38.62797913 10.02657043 39.50528687 10.20556641 40.40917969 C10.35941803 41.1767157 10.51326965 41.94425171 10.67178345 42.73504639 C11.02883934 45.19901427 11.12253502 47.51375617 11 50 C8.9723852 52.0276148 4.96059018 51.24054158 2.1875 51.25 C-12.83455881 51.19995775 -26.18843548 46.44925162 -38 37 C-37.43446569 33.50876819 -36.41269168 32.14360755 -33.6875 29.9375 C-30.03239593 26.8861115 -26.49446457 23.73301139 -23 20.5 C-19.03223027 16.84589771 -15.03191474 13.23755026 -10.95703125 9.703125 C-7.27681098 6.50037841 -3.64214837 3.24589612 0 0 Z " fill="#C3975B" transform="translate(824,890)"/>
<path d="M0 0 C6.33585454 1.32301019 12.43960691 2.97223533 18.59375 4.96875 C19.4664856 5.24972534 20.33922119 5.53070068 21.23840332 5.82019043 C23.06425647 6.40970612 24.88940536 7.00140721 26.71386719 7.59521484 C29.51748364 8.50567774 32.32496525 9.40346329 35.1328125 10.30078125 C36.91170606 10.87683973 38.69036096 11.45363586 40.46875 12.03125 C41.3103064 12.29901245 42.15186279 12.5667749 43.0189209 12.84265137 C45.03235722 13.50447778 47.01961335 14.24501077 49 15 C49.495 15.99 49.495 15.99 50 17 C43.02411898 33.12975204 29.06588148 42.74501681 13.43359375 49.25 C11 50 11 50 9 49 C8.41781616 47.24298096 8.41781616 47.24298096 7.94677734 44.92675781 C7.76674164 44.06205872 7.58670593 43.19735962 7.4012146 42.30645752 C7.12140244 40.89405792 7.12140244 40.89405792 6.8359375 39.453125 C6.63900299 38.48977234 6.44206848 37.52641968 6.23916626 36.53387451 C5.82331269 34.49020993 5.41168226 32.44568225 5.00390625 30.40039062 C4.38002568 27.2751752 3.74192196 24.1531257 3.1015625 21.03125 C2.699669 19.04704735 2.29860053 17.06267737 1.8984375 15.078125 C1.61255264 13.67787079 1.61255264 13.67787079 1.32089233 12.24932861 C1.14716095 11.37202087 0.97342957 10.49471313 0.79443359 9.59082031 C0.64058197 8.8232843 0.48673035 8.05574829 0.32821655 7.26495361 C-0.0267503 4.81540176 -0.05545598 2.47176217 0 0 Z " fill="#CDA86A" transform="translate(838,888)"/>
<path d="M0 0 C1.82071352 2.73107028 2.39280335 4.03906396 3.05322266 7.11669922 C3.23325836 7.94120575 3.41329407 8.76571228 3.5987854 9.61520386 C3.78532684 10.50273346 3.97186829 11.39026306 4.1640625 12.3046875 C4.36099701 13.22081818 4.55793152 14.13694885 4.76083374 15.08084106 C5.17572994 17.0185558 5.58740279 18.9569631 5.99609375 20.89599609 C6.62149142 23.85838054 7.25917525 26.81792398 7.8984375 29.77734375 C8.30021829 31.66130086 8.70128365 33.54541071 9.1015625 35.4296875 C9.2921524 36.31316864 9.48274231 37.19664978 9.67910767 38.10690308 C10.51999474 42.12815756 11.25797619 45.8649496 11 50 C1.69510936 47.63681163 -7.40620843 44.67801712 -16.52807617 41.70166016 C-19.08734367 40.86689667 -21.64805871 40.03669215 -24.20898438 39.20703125 C-25.8386277 38.67734794 -27.46818813 38.14740953 -29.09765625 37.6171875 C-29.86215591 37.3692746 -30.62665558 37.12136169 -31.4143219 36.86593628 C-36.76857481 35.1157126 -36.76857481 35.1157126 -39 34 C-37.35112836 24.99303869 -28.839785 16.59253009 -22 11 C-15.18796438 6.35321856 -7.86035412 2.51531332 0 0 Z " fill="#C09155" transform="translate(809,818)"/>
<path d="M0 0 C0.01030746 0.9034465 0.02061493 1.80689301 0.03123474 2.73771667 C0.12926145 11.25686999 0.23178327 19.77595485 0.33933926 28.2949934 C0.39447502 32.67458318 0.44787988 37.05417975 0.49731445 41.43383789 C0.54509611 45.66139213 0.59744354 49.88886754 0.65294075 54.11632729 C0.67330188 55.72821397 0.69202506 57.34012222 0.70907402 58.95204735 C0.73325671 61.2118444 0.76329159 63.47149426 0.79467773 65.73120117 C0.81799416 67.65980232 0.81799416 67.65980232 0.84178162 69.62736511 C0.9786148 72.54414607 1.32526917 75.16668845 2 78 C6.455 78.99 6.455 78.99 11 80 C11 81.65 11 83.3 11 85 C0.11 85 -10.78 85 -22 85 C-22 83.35 -22 81.7 -22 80 C-17.545 79.01 -17.545 79.01 -13 78 C-12.13887253 74.2680364 -11.86385303 70.79887148 -11.83886719 66.97216797 C-11.82925964 65.78098358 -11.8196521 64.58979919 -11.80975342 63.36251831 C-11.80550354 62.08530914 -11.80125366 60.80809998 -11.796875 59.4921875 C-11.79117493 58.17461456 -11.78547485 56.85704163 -11.77960205 55.49954224 C-11.76912732 52.7173016 -11.76326035 49.93508959 -11.75976562 47.15283203 C-11.75426121 43.58719531 -11.73017766 40.02193667 -11.70179367 36.45641899 C-11.67871559 33.05168193 -11.6767226 29.64699877 -11.671875 26.2421875 C-11.6595282 24.96092987 -11.6471814 23.67967224 -11.63446045 22.35958862 C-11.63746155 21.17470856 -11.64046265 19.98982849 -11.64355469 18.76904297 C-11.63990906 17.72489227 -11.63626343 16.68074158 -11.63250732 15.60494995 C-11.78765002 12.9691108 -11.78765002 12.9691108 -13.39459229 11.17141724 C-15.37623135 9.72547541 -16.75685958 9.51173282 -19.1875 9.3125 C-21.0746875 9.1578125 -21.0746875 9.1578125 -23 9 C-23 7.35 -23 5.7 -23 4 C-19.73011701 3.32861379 -16.45894951 2.66370737 -13.1875 2 C-12.25873047 1.80921875 -11.32996094 1.6184375 -10.37304688 1.421875 C-9.48037109 1.24140625 -8.58769531 1.0609375 -7.66796875 0.875 C-6.84578857 0.70742188 -6.0236084 0.53984375 -5.17651367 0.3671875 C-3 0 -3 0 0 0 Z " fill="#B6955D" transform="translate(1283,704)"/>
</svg>
