<?xml version="1.0" encoding="UTF-8"?>
<svg version="1.1" xmlns="http://www.w3.org/2000/svg" width="1500" height="750">
<path d="M0 0 C1.21490616 0.00593674 2.42981232 0.01187347 3.68153381 0.01799011 C18.1822454 0.16056025 32.65246526 0.92965398 47.1262207 1.7824707 C51.03649402 2.01238298 54.94759034 2.22209831 58.85922909 2.42728138 C61.9146941 2.59041209 64.96935763 2.76587708 68.02392769 2.94492149 C69.46812685 3.02772386 70.91257708 3.10627031 72.35725212 3.18030739 C74.35598559 3.2841545 76.35370882 3.4069222 78.35131836 3.53051758 C80.04664955 3.62711418 80.04664955 3.62711418 81.77622986 3.72566223 C85.77095064 4.40096702 88.65859875 5.77465125 91.18359375 8.98828125 C92.12557177 12.37940212 91.65611574 14.84819328 90.80859375 18.23828125 C88.91748264 20.55641745 87.47031344 21.9074214 84.80859375 23.23828125 C76.40961827 23.62677536 67.98750627 23.11313217 59.60546875 22.58203125 C57.30079269 22.4451198 54.99610478 22.30840766 52.69140625 22.171875 C49.14467183 21.95743712 45.59810693 21.74074051 42.05175781 21.52001953 C29.39994613 20.73836515 16.75066516 20.07279782 4.07421875 19.89453125 C3.05608093 19.86669556 2.03794312 19.83885986 0.98895264 19.81018066 C-6.90535524 19.76872854 -12.20070915 21.44696395 -18.00390625 26.86328125 C-23.4774309 34.24276538 -24.02024331 44.6268096 -25.12670898 53.42553711 C-25.37996673 55.43419218 -25.64701907 57.44066371 -25.91601562 59.44726562 C-26.69311452 65.43302741 -27.28613598 71.19337041 -27.19140625 77.23828125 C-26.53769043 77.44396729 -25.88397461 77.64965332 -25.21044922 77.86157227 C15.41784539 90.74589253 15.41784539 90.74589253 23.99609375 104.73828125 C25.83691507 109.18785108 25.91158644 112.65544407 25.54711914 117.43359375 C25.46936422 118.47720566 25.46936422 118.47720566 25.39003849 119.54190063 C24.79946437 127.08039611 23.96283251 134.59418594 23.09439659 142.10489273 C22.68641228 145.63734368 22.28868386 149.17093397 21.88995075 152.70443916 C21.56640311 155.57013079 21.24151779 158.43566898 20.91662598 161.3012085 C15.49511617 209.21879714 10.8648876 257.18685487 6.80859375 305.23828125 C6.73778847 306.07664772 6.66698318 306.91501419 6.59403229 307.77878571 C3.33204824 346.46582484 0.51854548 385.17562804 -1.87890625 423.92578125 C-1.95783426 425.19732874 -1.95783426 425.19732874 -2.03835678 426.49456406 C-3.12141805 443.96453631 -4.15120633 461.43352132 -4.90024757 478.92135048 C-4.99075347 481.02141283 -5.08396852 483.12133656 -5.17814636 485.22123718 C-5.46219894 491.57996028 -5.72510281 497.93808128 -5.94018555 504.29956055 C-6.03336439 506.50313402 -6.12746073 508.70666897 -6.22265625 510.91015625 C-6.24656937 511.895569 -6.27048248 512.88098175 -6.29512024 513.89625549 C-6.51162696 518.3623824 -6.67670271 520.57163286 -9.46899414 524.18823242 C-14.22530954 527.7698646 -14.22530954 527.7698646 -16.71875 529.3671875 C-18.01292847 530.19790771 -18.01292847 530.19790771 -19.33325195 531.04541016 C-20.25581787 531.62468262 -21.17838379 532.20395508 -22.12890625 532.80078125 C-23.10110107 533.41356934 -24.0732959 534.02635742 -25.07495117 534.65771484 C-71.2072146 563.41558598 -121.94224343 583.39523901 -176.19140625 589.23828125 C-177.01189453 589.33254395 -177.83238281 589.42680664 -178.67773438 589.52392578 C-232.05183119 595.11121419 -286.30617801 583.2072263 -335.19140625 562.23828125 C-336.06941895 561.86735352 -336.94743164 561.49642578 -337.85205078 561.11425781 C-351.44654933 555.34689479 -364.32946466 548.47537694 -377.19140625 541.23828125 C-378.52710957 540.49567239 -379.86302289 539.75344101 -381.19921875 539.01171875 C-387.2046399 535.65603648 -393.10813301 532.13407702 -398.94140625 528.48828125 C-399.53888672 528.12323486 -400.13636719 527.75818848 -400.75195312 527.38208008 C-404.0033202 525.31203672 -405.78576072 523.81653808 -407.19140625 520.23828125 C-407.51444626 517.94831085 -407.51444626 517.94831085 -407.61932373 515.38098145 C-407.66387192 514.40115107 -407.7084201 513.42132069 -407.75431824 512.41179848 C-407.79382095 511.33940107 -407.83332367 510.26700367 -407.87402344 509.16210938 C-407.92333511 508.02281668 -407.97264679 506.88352398 -408.02345276 505.70970726 C-408.18665184 501.89661502 -408.33721427 498.08312183 -408.48828125 494.26953125 C-408.60126545 491.56697641 -408.71732494 488.86455676 -408.83355713 486.16213989 C-409.08124428 480.37856084 -409.32372592 474.59478542 -409.56298828 468.81085205 C-410.19531276 453.55358163 -410.87139712 438.29820519 -411.55078125 423.04296875 C-411.58481867 422.2770502 -411.61885609 421.51113166 -411.65392494 420.72200346 C-415.56265957 332.80692538 -421.45701662 244.99936097 -432.99923706 126.33312988 C-434.69307472 107.8684971 -434.69307472 107.8684971 -429.19140625 101.23828125 C-428.78664063 100.69558594 -428.381875 100.15289062 -427.96484375 99.59375 C-403.47491297 70.58562343 -339.20400719 67.14822995 -304.60351562 63.49407959 C-302.96385446 63.32019751 -301.32453858 63.14303476 -299.68554688 62.96295166 C-268.60683336 59.55897442 -237.61852518 58.83797062 -206.38434219 58.80482483 C-203.49785568 58.80085881 -200.61141747 58.79201314 -197.72494507 58.78234863 C-151.25501188 58.65831443 -103.86340188 61.13193043 -58.19140625 70.23828125 C-56.79220947 70.51623535 -56.79220947 70.51623535 -55.36474609 70.79980469 C-52.97310246 71.27670857 -50.5820048 71.75617035 -48.19140625 72.23828125 C-46.29402676 62.50809785 -45.01165197 52.72215556 -43.77929688 42.88867188 C-41.92339252 28.8178114 -38.80628712 15.47247225 -27.19140625 6.23828125 C-18.46621604 0.73125784 -10.11401741 -0.08818764 0 0 Z M-288.19140625 76.23828125 C-289.42654968 76.34719696 -289.42654968 76.34719696 -290.68664551 76.45831299 C-358.30574273 80.76913514 -358.30574273 80.76913514 -416.9609375 108.74609375 C-418.39024549 110.3572731 -418.39024549 110.3572731 -419.56640625 113.11328125 C-418.94890494 118.25912548 -416.07511631 120.9822415 -412.19140625 124.23828125 C-358.673495 159.08327642 -268.49116398 155.70029031 -206.88827515 155.4960289 C-204.33062655 155.48813219 -201.77298983 155.48365159 -199.21533203 155.47988892 C-174.8306308 155.43815854 -150.50892659 155.21750625 -126.19140625 153.23828125 C-124.91475098 153.1417627 -123.6380957 153.04524414 -122.32275391 152.94580078 C-103.80815813 151.50853006 -85.58760084 148.71749473 -67.3046875 145.54296875 C-66.62805054 145.42639923 -65.95141357 145.30982971 -65.25427246 145.18972778 C-62.47103966 144.69773267 -59.87858579 144.13400776 -57.19140625 143.23828125 C-55.14403725 132.1036547 -53.36099336 120.95679599 -51.82885742 109.73974609 C-51.49737341 107.31550465 -51.16012175 104.89211085 -50.82226562 102.46875 C-50.60774159 100.9154103 -50.39353618 99.36202656 -50.1796875 97.80859375 C-50.07972977 97.08995148 -49.97977203 96.3713092 -49.87678528 95.63088989 C-49.49280512 92.80414414 -49.19140625 90.09518567 -49.19140625 87.23828125 C-69.5923013 81.8528874 -90.41780276 79.1157671 -111.37890625 77.05078125 C-112.15801361 76.97223907 -112.93712097 76.8936969 -113.73983765 76.81277466 C-142.62106995 73.94028223 -171.55555393 72.85027242 -200.56668472 72.92042542 C-202.92892873 72.92589712 -205.29116262 72.92824281 -207.65341187 72.93029785 C-234.58347053 72.9666973 -261.35866048 73.81844649 -288.19140625 76.23828125 Z M-31.19140625 92.23828125 C-32.07399978 98.28752636 -32.94654799 104.33810321 -33.80981445 110.39013672 C-34.1049061 112.44880245 -34.40274001 114.50707703 -34.70336914 116.56494141 C-35.13498767 119.52277682 -35.55672795 122.4818782 -35.9765625 125.44140625 C-36.11296646 126.36133362 -36.24937042 127.28126099 -36.38990784 128.22906494 C-36.51010788 129.08965515 -36.63030792 129.95024536 -36.75415039 130.83691406 C-36.86296036 131.591922 -36.97177032 132.34692993 -37.08387756 133.12481689 C-37.19826288 135.37304761 -36.84653546 137.09532496 -36.19140625 139.23828125 C-11.51164526 132.66546153 -11.51164526 132.66546153 9.80859375 119.23828125 C11.22059125 116.41428626 11.09038276 114.36535649 10.80859375 111.23828125 C3.73224479 100.72204044 -14.47903299 95.126018 -26.19140625 92.23828125 C-27.8578909 92.21365038 -29.52497455 92.2102959 -31.19140625 92.23828125 Z M-417.19140625 137.23828125 C-417.10450531 138.17705612 -417.01760437 139.11583099 -416.92807007 140.08305359 C-410.39588561 210.74629516 -404.85904116 281.42568798 -400.78572083 352.27463913 C-400.6296851 354.97480343 -400.47105971 357.67480519 -400.31188965 360.37478638 C-398.99485965 382.81745679 -398.02344771 405.24915679 -397.3782711 427.72153473 C-397.14691364 435.53973384 -396.88123267 443.35686759 -396.61674976 451.17400742 C-396.36335469 458.81694799 -396.17231853 466.4583043 -396.02632904 474.10400772 C-395.92131803 478.86989151 -395.75973002 483.63267651 -395.58332443 488.39640045 C-395.51295627 490.61967427 -395.46644064 492.8438497 -395.44548416 495.06813812 C-395.78691205 506.13096095 -395.78691205 506.13096095 -391.7790966 516.01854324 C-388.00718274 519.36513345 -383.80755153 521.30318043 -379.19140625 523.23828125 C-377.80100763 524.03446698 -376.42100499 524.84975761 -375.0625 525.69921875 C-371.11612782 527.89913043 -367.15988396 530.07856549 -363.19140625 532.23828125 C-362.41974121 532.66367187 -361.64807617 533.0890625 -360.85302734 533.52734375 C-328.61971634 551.23980386 -293.37742193 564.41355545 -257.19140625 571.23828125 C-256.14355957 571.44565918 -255.09571289 571.65303711 -254.01611328 571.86669922 C-221.12103024 578.16300427 -185.00230468 577.83016796 -152.19140625 571.23828125 C-150.66241699 570.94074951 -150.66241699 570.94074951 -149.10253906 570.63720703 C-120.96094497 564.99182181 -93.80970076 555.05573265 -68.19140625 542.23828125 C-67.20495117 541.75246582 -66.21849609 541.26665039 -65.20214844 540.76611328 C-41.71028179 529.69685599 -41.71028179 529.69685599 -21.19140625 514.23828125 C-20.88177832 511.77231043 -20.69409848 509.40068757 -20.5847168 506.92382812 C-20.54356656 506.16288943 -20.50241632 505.40195074 -20.46001911 504.6179533 C-20.32400143 502.06468762 -20.20124261 499.51094892 -20.078125 496.95703125 C-19.98376841 495.14662335 -19.8884518 493.33626526 -19.79223633 491.5259552 C-19.58698213 487.63892173 -19.38693635 483.75166859 -19.19076538 479.86416626 C-18.71899379 470.54332832 -18.21183015 461.22438493 -17.70627785 451.90532875 C-17.59176366 449.79378993 -17.47751675 447.68223659 -17.36353111 445.57066917 C-12.47296609 355.00428553 -4.50314763 264.66256022 8.80859375 137.23828125 C8.08504196 137.54010818 7.36149017 137.84193512 6.61601257 138.15290833 C-5.91494911 143.37269601 -18.22603214 148.20471731 -31.45947266 151.34814453 C-32.31847168 151.55810059 -33.1774707 151.76805664 -34.0625 151.984375 C-35.1906311 152.24238892 -35.1906311 152.24238892 -36.34155273 152.50561523 C-38.56616141 153.18364716 -38.56616141 153.18364716 -40.19140625 156.23828125 C-40.72000714 158.96606021 -41.15237761 161.64413217 -41.52001953 164.39404297 C-41.69602188 165.64086349 -41.69602188 165.64086349 -41.87557983 166.91287231 C-42.26185577 169.66357524 -42.63695236 172.41567599 -43.01171875 175.16796875 C-43.27732445 177.07992465 -43.54351699 178.99179911 -43.81027222 180.90359497 C-44.36803715 184.91278847 -44.9206266 188.92264939 -45.46923828 192.93310547 C-46.17223834 198.07116399 -46.88497397 203.20781012 -47.60121346 208.34403801 C-48.15136261 212.29331846 -48.69785887 216.24309711 -49.24309921 220.19305801 C-49.50467996 222.08697256 -49.76703717 223.98078004 -50.0301857 225.87447739 C-50.39746166 228.52376481 -50.76018938 231.17363492 -51.12158203 233.82373047 C-51.2306488 234.60520447 -51.33971558 235.38667847 -51.4520874 236.1918335 C-51.95286481 239.89945797 -52.31818373 243.49530776 -52.19140625 247.23828125 C-51.39476562 247.56441406 -50.598125 247.89054687 -49.77734375 248.2265625 C-47.59367558 249.12712638 -45.41410232 250.03767024 -43.23828125 250.95703125 C-41.11015409 251.851936 -38.96806166 252.71402637 -36.81640625 253.55078125 C-31.04637566 257.26008663 -28.03261867 262.75931401 -26.19140625 269.23828125 C-25.34323776 280.2428938 -26.66292851 291.37264761 -27.72021484 302.32177734 C-27.88503811 304.08270922 -28.04926097 305.84369739 -28.2129364 307.60473633 C-28.65492834 312.34046574 -29.10563274 317.07532702 -29.55833769 321.81004286 C-30.0329185 326.78616572 -30.50036576 331.76295965 -30.96890259 336.73965454 C-31.7558953 345.08683938 -32.5485897 353.43346782 -33.34472656 361.77978516 C-34.263503 371.41254693 -35.17316757 381.04613653 -36.07800233 390.68021715 C-36.95158025 399.97921454 -37.83161009 409.27759061 -38.71455765 418.57570267 C-39.0890173 422.52024732 -39.46123356 426.46499399 -39.83161545 430.40992355 C-40.26798891 435.05460665 -40.71002858 439.69871718 -41.15636635 444.342453 C-41.31875714 446.04135823 -41.47923655 447.74044747 -41.6376133 449.4397316 C-43.24064875 466.61332072 -43.24064875 466.61332072 -45.19140625 473.23828125 C-47.49023438 474.61914062 -47.49023438 474.61914062 -50.19140625 475.23828125 C-51.94697672 476.17774869 -53.68577485 477.14897336 -55.41015625 478.14453125 C-56.41344971 478.71848633 -57.41674316 479.29244141 -58.45043945 479.88378906 C-59.5199585 480.49577148 -60.58947754 481.10775391 -61.69140625 481.73828125 C-127.80769226 519.0016583 -201.90051992 530.1264082 -275.64208984 510.31103516 C-302.27051775 502.80711133 -327.37164307 492.16532709 -352.12890625 479.92578125 C-353.15411377 479.42208008 -354.17932129 478.91837891 -355.2355957 478.39941406 C-356.68131958 477.6757666 -356.68131958 477.6757666 -358.15625 476.9375 C-359.43423462 476.30074341 -359.43423462 476.30074341 -360.73803711 475.65112305 C-367.80259372 471.58279893 -367.80259372 471.58279893 -369.01970196 467.3740263 C-369.11573617 466.25718865 -369.21177038 465.14035101 -369.31071472 463.9896698 C-369.43249588 462.70480179 -369.55427704 461.41993378 -369.67974854 460.09613037 C-369.79107519 458.67373932 -369.90196122 457.25131372 -370.01245117 455.82885742 C-370.14589557 454.32848188 -370.28136903 452.82828562 -370.41871643 451.32826233 C-370.78630664 447.25016983 -371.12538756 443.17014455 -371.4595201 439.08919311 C-371.81573633 434.79835328 -372.19813863 430.50984865 -372.57771301 426.22102356 C-373.29487545 418.07253131 -373.98851915 409.92221373 -374.67377406 401.77098304 C-375.44698128 392.58675136 -376.24584841 383.4048139 -377.04717863 374.22299993 C-378.43162408 358.35384681 -379.79689105 342.48313749 -381.13872051 326.61032391 C-381.68602093 320.1412962 -382.23799236 313.67284453 -382.81582642 307.20645142 C-382.90959973 306.15281308 -383.00337305 305.09917475 -383.09998798 304.01360798 C-383.26771456 302.13814993 -383.43745283 300.26286982 -383.60993481 298.38784313 C-385.77038846 274.20651825 -385.77038846 274.20651825 -381.19140625 264.23828125 C-380.90910156 263.60792969 -380.62679687 262.97757812 -380.3359375 262.328125 C-377.72110363 257.76969814 -374.3013899 256.17568939 -369.62890625 253.92578125 C-365.04036773 251.62378718 -362.54137529 250.27982296 -360.81640625 245.36328125 C-360.58920898 244.54964111 -360.36201172 243.73600098 -360.12792969 242.89770508 C-357.03615584 234.11806679 -348.55704771 227.31872277 -342.05639648 220.89746094 C-340.49068504 219.35021598 -338.9333342 217.79490616 -337.37695312 216.23828125 C-329.73296321 208.63171666 -329.73296321 208.63171666 -326.86791992 206.55029297 C-326.31467041 206.1173291 -325.7614209 205.68436523 -325.19140625 205.23828125 C-325.19140625 204.57828125 -325.19140625 203.91828125 -325.19140625 203.23828125 C-324.34835937 202.87089844 -324.34835937 202.87089844 -323.48828125 202.49609375 C-320.7741194 201.00976702 -318.75177776 199.17252542 -316.44140625 197.11328125 C-306.13601426 188.66915528 -295.52812672 182.64802422 -281.87890625 183.71875 C-262.79988894 186.40678952 -248.88568981 200.84785956 -236.19140625 214.23828125 C-235.77907242 214.81105804 -235.36673859 215.38383484 -234.94190979 215.97396851 C-232.40059543 219.39585841 -230.52189551 221.60868415 -226.19995117 222.30273438 C-224.69296817 222.41403719 -223.18255175 222.4842917 -221.671875 222.51953125 C-220.45375626 222.57487282 -220.45375626 222.57487282 -219.21102905 222.6313324 C-216.59820303 222.72049504 -213.9931747 222.739451 -211.37890625 222.73828125 C-210.49524384 222.74586456 -209.61158142 222.75344788 -208.70114136 222.76126099 C-198.76208099 222.75661376 -190.3963639 222.58573512 -182.77270508 215.484375 C-180.23344841 212.58061263 -177.95838967 209.58302062 -175.79638672 206.38989258 C-173.5708741 203.40640571 -170.91948765 201.16939512 -168.06811523 198.79956055 C-165.56739259 196.71914929 -163.27910182 194.43628876 -160.94140625 192.17578125 C-151.33448741 183.37391148 -141.29773287 179.6337011 -128.46875 179.8984375 C-115.57624925 180.5918302 -103.45316293 188.39372984 -94.94140625 197.67578125 C-93.34578675 199.51938557 -91.76136128 201.37277337 -90.19140625 203.23828125 C-89.04833463 204.55318716 -87.90275999 205.86592425 -86.75390625 207.17578125 C-86.2125 207.79839844 -85.67109375 208.42101562 -85.11328125 209.0625 C-82.60743601 211.89940203 -80.05956483 214.69626118 -77.50390625 217.48828125 C-76.80793335 218.24999634 -76.80793335 218.24999634 -76.09790039 219.02709961 C-73.523951 221.83095696 -70.89080463 224.55571159 -68.19140625 227.23828125 C-67.01474421 218.83286176 -65.84102092 210.42703938 -64.6710434 202.0206871 C-64.12767991 198.1172664 -63.58330662 194.2139921 -63.03662109 190.31103516 C-62.50904375 186.54422658 -61.98412484 182.77705623 -61.46104431 179.00962067 C-61.26104803 177.57259172 -61.06009543 176.13569554 -60.85816956 174.69893646 C-60.57543839 172.68603851 -60.29642679 170.67261916 -60.01757812 168.65917969 C-59.77775208 166.94042633 -59.77775208 166.94042633 -59.53308105 165.18695068 C-59.11467021 162.0707788 -59.11467021 162.0707788 -59.19140625 158.23828125 C-65.51034333 159.2037985 -71.82753038 160.17562861 -78.13671875 161.203125 C-91.0643375 163.26380729 -103.96544793 164.81192244 -117.00390625 165.92578125 C-117.70042297 165.98635712 -118.3969397 166.04693298 -119.11456299 166.10934448 C-138.47650141 167.77175623 -157.85686082 168.40136504 -177.28515625 168.44140625 C-178.7243618 168.44564732 -178.7243618 168.44564732 -180.19264221 168.44997406 C-185.29021457 168.46481474 -190.38775983 168.474134 -195.48535156 168.47851562 C-199.57984552 168.48285454 -203.67412331 168.4965891 -207.76855469 168.51953125 C-275.02839972 168.88831518 -350.43585668 167.1690394 -412.96923828 139.13134766 C-413.76443878 138.77553619 -414.55963928 138.41972473 -415.37893677 138.0531311 C-415.9770517 137.78423065 -416.57516663 137.5153302 -417.19140625 137.23828125 Z M-160.5 211.3203125 C-162.75637725 213.87892966 -165.29125174 215.9907718 -167.890625 218.19140625 C-171.33252424 221.25346941 -174.528095 224.54933279 -177.75952148 227.83056641 C-180.55362407 230.65166729 -183.3839461 233.32342262 -186.44140625 235.86328125 C-192.13885481 240.72811729 -199.20955461 247.92067521 -201.19140625 255.23828125 C-200.62887978 257.79162406 -199.83081958 260.18843708 -198.96875 262.65625 C-197.39544169 267.88216353 -197.90956706 272.83050159 -198.96875 278.12109375 C-199.39567684 281.51677988 -199.20762273 282.20713953 -197.5234375 285.44140625 C-196.69199219 286.446875 -195.86054688 287.45234375 -195.00390625 288.48828125 C-194.5555542 289.03766357 -194.10720215 289.5870459 -193.64526367 290.15307617 C-189.39439718 295.25163562 -184.70163354 299.909523 -179.94140625 304.52734375 C-177.67780848 306.75878814 -175.56550111 309.01104283 -173.50390625 311.42578125 C-162.14177305 325.02879222 -162.14177305 325.02879222 -146.3359375 331.4765625 C-132.43402723 331.78621818 -127.06274062 326.57091448 -117.19140625 317.23828125 C-115.90693633 316.1050713 -114.61596904 314.97915057 -113.31640625 313.86328125 C-109.16826652 310.25915984 -105.14702387 306.522525 -101.11645508 302.78833008 C-97.76590732 299.68607881 -94.39935883 296.60401499 -91.00390625 293.55078125 C-90.215 292.82503906 -89.42609375 292.09929687 -88.61328125 291.3515625 C-86.19140625 289.23828125 -86.19140625 289.23828125 -83.45703125 287.28125 C-77.80424272 283.00898353 -75.3081662 279.30908443 -74.19140625 272.30078125 C-73.91629072 270.05500124 -73.68357865 267.80977927 -73.47216797 265.55712891 C-73.18466786 263.18262797 -72.70525024 260.92257146 -72.1640625 258.59375 C-70.41025408 250.8772671 -70.41025408 250.8772671 -72.11035156 243.37792969 C-74.75812349 239.67520236 -78.06136502 236.72173217 -81.49121094 233.75732422 C-84.20307121 231.33440713 -86.58502448 228.6358326 -89.00390625 225.92578125 C-89.91450563 224.93020326 -90.82593491 223.93538357 -91.73828125 222.94140625 C-93.76758062 220.7052993 -95.77214049 218.45388581 -97.75390625 216.17578125 C-98.29660156 215.55832031 -98.83929688 214.94085938 -99.3984375 214.3046875 C-100.76924299 212.72482671 -102.11657209 211.12456693 -103.453125 209.515625 C-110.93844405 200.78471125 -119.71524271 194.21630012 -131.44140625 192.86328125 C-143.84583569 194.10372419 -152.79419927 202.0769274 -160.5 211.3203125 Z M-324.30102539 223.31738281 C-327.2731657 226.34182743 -330.25562279 229.25559834 -333.50390625 231.98828125 C-341.3687905 238.71994562 -348.83738661 246.12718286 -350.59765625 256.671875 C-351.27435953 267.51604501 -344.95803449 274.97610169 -338.20141602 282.70068359 C-333.00451832 288.52820014 -327.66129798 294.22217368 -322.30859375 299.90625 C-319.45344079 302.94438235 -316.69050674 306.04896236 -313.96875 309.20703125 C-311.54021932 311.98249489 -309.05603527 314.70513445 -306.56640625 317.42578125 C-306.11048096 317.92553467 -305.65455566 318.42528809 -305.18481445 318.94018555 C-298.75801302 325.96765644 -298.75801302 325.96765644 -291.06640625 331.48828125 C-290.21820313 331.9884375 -289.37 332.48859375 -288.49609375 333.00390625 C-283.21577588 335.8320087 -278.0516503 335.92171454 -272.19140625 335.23828125 C-266.33845961 333.17959497 -262.11756315 329.51176015 -257.92578125 325.05078125 C-255.54802481 322.56591866 -252.96163123 320.36598017 -250.359375 318.12109375 C-247.94297674 316.02252805 -245.56611601 313.88388425 -243.19140625 311.73828125 C-240.18883315 309.02908934 -237.1758158 306.33501245 -234.12890625 303.67578125 C-233.49082031 303.11503906 -232.85273438 302.55429687 -232.1953125 301.9765625 C-230.77999995 300.74885473 -229.34861605 299.53955775 -227.90625 298.34375 C-220.15139414 291.85450438 -220.15139414 291.85450438 -215.19140625 283.23828125 C-215.53196484 280.54874158 -216.31376883 278.36995787 -217.30859375 275.8515625 C-219.19821539 270.257948 -218.68956947 264.19772324 -217.25390625 258.55078125 C-217.18144685 254.71043291 -217.65714351 254.18239559 -220.06640625 251.36328125 C-221.41967114 249.96688441 -222.79640946 248.59298932 -224.19140625 247.23828125 C-225.69140625 245.73828125 -227.19140625 244.23828125 -228.69140625 242.73828125 C-229.38234375 242.06796875 -230.07328125 241.39765625 -230.78515625 240.70703125 C-232.70106441 238.74135924 -234.49016982 236.75451025 -236.27734375 234.67578125 C-240.61166124 229.6884111 -245.18959975 224.94649337 -249.83203125 220.24755859 C-250.81634749 219.24672915 -251.79527699 218.24057128 -252.76855469 217.22900391 C-262.30321804 207.32415612 -272.3318481 198.94174135 -286.37890625 196.73828125 C-301.86932595 198.7698117 -313.88876311 212.71981875 -324.30102539 223.31738281 Z M-188.50146484 374.73242188 C-202.97776993 392.016608 -208.7465255 409.32067474 -207.41455078 431.73876953 C-205.97606245 447.85172748 -198.98135225 462.28766377 -188.19140625 474.23828125 C-187.34449219 475.18960938 -187.34449219 475.18960938 -186.48046875 476.16015625 C-173.35092182 490.09103703 -154.1358373 498.86153774 -135.03222656 499.70898438 C-111.07327206 500.04470069 -89.4379055 491.9001159 -72.00390625 475.55078125 C-57.71147744 460.73739228 -49.59709008 440.58777161 -49.77392578 420.10717773 C-50.32480727 403.65868791 -56.65389703 385.32694537 -68.19140625 373.23828125 C-68.85140625 372.90828125 -69.51140625 372.57828125 -70.19140625 372.23828125 C-72.62058079 385.14510018 -72.24625804 392.38982761 -66.19140625 404.23828125 C-62.59057894 413.66980599 -63.06336483 426.48643857 -65.19140625 436.23828125 C-75.65141892 433.9090814 -85.68849677 430.50113685 -95.81640625 427.05078125 C-98.28235605 426.21283948 -100.74875009 425.37630279 -103.21640015 424.54338074 C-104.73992087 424.02896243 -106.26244693 423.51158653 -107.78384399 422.99092102 C-111.4061199 421.69141611 -111.4061199 421.69141611 -115.19140625 421.23828125 C-112.11479681 417.46943469 -109.05223729 413.99562227 -105.37890625 410.80078125 C-104.70988281 410.21039063 -104.04085937 409.62 -103.3515625 409.01171875 C-101.19140625 407.23828125 -101.19140625 407.23828125 -98.75 405.65234375 C-94.36150406 402.5388362 -92.12433034 400.06287056 -91.1796875 394.7265625 C-90.60101265 390.23762307 -90.34117199 385.7602405 -90.19140625 381.23828125 C-93.22867583 382.60438393 -95.40055651 384.16901932 -97.80078125 386.46875 C-98.47367187 387.10748047 -99.1465625 387.74621094 -99.83984375 388.40429688 C-100.88011719 389.40493164 -100.88011719 389.40493164 -101.94140625 390.42578125 C-109.14025723 397.30301056 -116.51137078 403.90225199 -124.19140625 410.23828125 C-127.99348889 393.93323396 -131.68560107 377.60968555 -135.19140625 361.23828125 C-120.0195478 360.70628102 -107.46558027 362.43772222 -94.0546875 369.91015625 C-91.212347 371.62640607 -91.212347 371.62640607 -88.19140625 370.23828125 C-87.86140625 366.27828125 -87.53140625 362.31828125 -87.19140625 358.23828125 C-120.14524923 340.20506883 -163.05492161 345.71027417 -188.50146484 374.73242188 Z M-350.19140625 367.23828125 C-353.7813466 372.91270309 -353.97279246 378.64977479 -353.19140625 385.23828125 C-351.0165132 394.63692622 -346.22194283 402.71219764 -338.25390625 408.30078125 C-334.00586505 410.67178099 -331.00089183 410.94787748 -326.19140625 410.23828125 C-321.86857481 407.74064531 -319.93895573 404.86928736 -318.19140625 400.23828125 C-316.14398823 392.31634844 -317.52691789 384.04402008 -321.484375 376.90625 C-325.59879633 371.13723564 -331.14665349 365.09216355 -338.19140625 363.23828125 C-342.90276148 362.49438306 -346.60133741 364.25985377 -350.19140625 367.23828125 Z M-339.19140625 434.23828125 C-340.72841313 438.84930189 -341.23023247 443.02496121 -339.14453125 447.46875 C-337.36058897 450.34929209 -335.59077032 452.83891718 -333.19140625 455.23828125 C-329.77602481 455.82197568 -329.77602481 455.82197568 -326.19140625 455.23828125 C-323.02631163 452.07318663 -321.32416918 449.56591058 -320.87890625 445.11328125 C-321.32804804 439.54392304 -323.22904489 435.26394458 -327.12890625 431.23828125 C-332.30913216 428.72665656 -335.25147471 430.40779225 -339.19140625 434.23828125 Z " fill="#D6C282" transform="translate(506.19140625,74.76171875)"/>
<path d="M0 0 C16.5 0 33 0 50 0 C50 2.31 50 4.62 50 7 C49.15695312 7.18175781 48.31390625 7.36351562 47.4453125 7.55078125 C45.80175781 7.92783203 45.80175781 7.92783203 44.125 8.3125 C42.48917969 8.67794922 42.48917969 8.67794922 40.8203125 9.05078125 C37.70557647 9.77902058 37.70557647 9.77902058 36 13 C34.69412493 17.58241518 34.77903979 22.28946798 34.68359375 27.01953125 C34.66494263 27.78116577 34.6462915 28.54280029 34.6270752 29.32751465 C34.55909664 32.1557321 34.49874494 34.98412872 34.4375 37.8125 C34.293125 44.144375 34.14875 50.47625 34 57 C55.45 57 76.9 57 99 57 C98.87625 50.52375 98.7525 44.0475 98.625 37.375 C98.59100098 35.34134277 98.55700195 33.30768555 98.52197266 31.21240234 C98.48674207 29.58689787 98.45081811 27.96140821 98.4140625 26.3359375 C98.40270264 25.50296143 98.39134277 24.66998535 98.37963867 23.81176758 C98.26547654 19.1943909 97.87368338 15.30445336 96 11 C94.2793732 9.6942905 94.2793732 9.6942905 92.1875 9.1875 C91.47980469 8.96835937 90.77210938 8.74921875 90.04296875 8.5234375 C87.70562316 7.92457649 85.38489081 7.37263919 83 7 C83 4.69 83 2.38 83 0 C99.5 0 116 0 133 0 C133 2.31 133 4.62 133 7 C131.75283203 7.23783203 131.75283203 7.23783203 130.48046875 7.48046875 C129.39378906 7.71378906 128.30710937 7.94710938 127.1875 8.1875 C125.56908203 8.51814453 125.56908203 8.51814453 123.91796875 8.85546875 C120.16839894 10.32618355 119.63078896 11.33833812 118 15 C117.57431464 18.10819725 117.6002651 21.18345761 117.62768555 24.31665039 C117.62403488 25.24729813 117.62038422 26.17794586 117.61662292 27.13679504 C117.60852925 30.2072688 117.62211689 33.27721292 117.63671875 36.34765625 C117.63723745 38.48327128 117.63671936 40.61888679 117.63520813 42.75450134 C117.6352978 47.22743876 117.64571711 51.70019573 117.66381836 56.1730957 C117.68651893 61.90880678 117.68704651 67.64425455 117.68030071 73.37999821 C117.67696088 77.78859297 117.68359089 82.19712762 117.69342995 86.60571098 C117.69728095 88.72083662 117.69843058 90.83596894 117.6968441 92.95109749 C117.69647362 95.90510962 117.70908863 98.85878287 117.7253418 101.81274414 C117.72286438 102.68817871 117.72038696 103.56361328 117.71783447 104.46557617 C117.72491928 105.27160782 117.73200409 106.07763947 117.73930359 106.90809631 C117.74135646 107.60585206 117.74340933 108.30360781 117.74552441 109.02250767 C118.04913073 111.38178765 118.76022389 112.97749686 120 115 C121.99079467 116.09086008 121.99079467 116.09086008 124.3125 116.6875 C125.11171875 116.9246875 125.9109375 117.161875 126.734375 117.40625 C129.14341529 118.0375847 131.54050483 118.60330723 134 119 C134 121.31 134 123.62 134 126 C116.51 126 99.02 126 81 126 C81 123.69 81 121.38 81 119 C81.90363281 118.82984375 82.80726563 118.6596875 83.73828125 118.484375 C84.91777344 118.24203125 86.09726562 117.9996875 87.3125 117.75 C88.48425781 117.51796875 89.65601563 117.2859375 90.86328125 117.046875 C94.34699749 115.88419013 95.33012122 115.21437418 97 112 C98.28215183 107.24412443 98.22265995 102.43450864 98.31640625 97.54296875 C98.33505737 96.74201782 98.3537085 95.94106689 98.3729248 95.11584473 C98.44093579 92.13983605 98.50126694 89.16365585 98.5625 86.1875 C98.706875 79.525625 98.85125 72.86375 99 66 C77.55 66 56.1 66 34 66 C34.103125 72.97125 34.20625 79.9425 34.3125 87.125 C34.33739502 89.31527832 34.36229004 91.50555664 34.38793945 93.76220703 C34.42024407 95.51076367 34.45361987 97.25930099 34.48828125 99.0078125 C34.49452515 99.90556396 34.50076904 100.80331543 34.50720215 101.72827148 C34.62463029 106.86521881 35.07816529 110.5868705 38 115 C41.14573677 117.09715785 43.01456251 117.52004559 46.6875 118.125 C47.68136719 118.29257812 48.67523437 118.46015625 49.69921875 118.6328125 C50.83810547 118.81457031 50.83810547 118.81457031 52 119 C52 121.31 52 123.62 52 126 C34.18 126 16.36 126 -2 126 C-2 123.69 -2 121.38 -2 119 C-1.09636719 118.81824219 -0.19273437 118.63648438 0.73828125 118.44921875 C1.91777344 118.19785156 3.09726562 117.94648438 4.3125 117.6875 C5.48425781 117.44386719 6.65601563 117.20023437 7.86328125 116.94921875 C10.91836254 116.02470474 12.16372779 115.53819197 14 113 C15.31924551 109.04226347 15.1557612 105.25229447 15.16113281 101.12573242 C15.16609772 100.21809647 15.17106262 99.31046051 15.17617798 98.37532043 C15.19079865 95.36869553 15.19760158 92.36212339 15.203125 89.35546875 C15.20887668 87.26662698 15.21463441 85.17778522 15.22039795 83.08894348 C15.23090777 78.70667271 15.23675051 74.32442028 15.24023438 69.94213867 C15.245718 64.32984818 15.26974342 58.71780043 15.29820633 53.10558605 C15.31684057 48.78956903 15.32203874 44.47361038 15.32357025 40.15755653 C15.32659569 38.08872463 15.33462056 36.01989372 15.34775543 33.9511013 C15.36483159 31.05469739 15.36293171 28.15888516 15.35644531 25.26245117 C15.3656601 24.40976654 15.37487488 23.55708191 15.3843689 22.67855835 C15.3497432 17.73669558 14.82010007 14.24474362 12 10 C9.09027573 8.64085012 9.09027573 8.64085012 5.8125 8.125 C4.72582031 7.90070313 3.63914062 7.67640625 2.51953125 7.4453125 C1.68808594 7.29835938 0.85664062 7.15140625 0 7 C0 4.69 0 2.38 0 0 Z " fill="#AA834E" transform="translate(650,353)"/>
<path d="M0 0 C7.46809266 -0.04669576 14.93616985 -0.08205586 22.40437603 -0.10362434 C25.87355965 -0.11398513 29.34264214 -0.12800012 32.81176758 -0.15087891 C36.81592686 -0.17711576 40.81998281 -0.18653631 44.82421875 -0.1953125 C46.04767502 -0.20563507 47.27113129 -0.21595764 48.53166199 -0.22659302 C61.97344082 -0.22831346 77.18104707 0.92104238 88.4375 9.1875 C95.67112908 17.12684899 98.36607667 24.2675251 98.19921875 34.84375 C97.63770351 43.73991302 94.73101113 49.38987423 88.52734375 55.8046875 C82.31930884 61.19713823 74.75926775 63.64606484 67 66 C67.76183594 66.88300781 68.52367187 67.76601563 69.30859375 68.67578125 C76.42052287 76.93543018 83.39258815 85.29099055 90.23828125 93.7734375 C92.47438698 96.53091503 94.73032721 99.27009893 97 102 C98.13115234 103.37285156 98.13115234 103.37285156 99.28515625 104.7734375 C106.27885136 112.95474121 112.88330567 115.90878784 123 119 C123 121.31 123 123.62 123 126 C92.86251321 128.42335539 92.86251321 128.42335539 86.8125 123.375 C84.36814288 120.534384 82.66251673 117.33810421 81.03662109 113.97558594 C79.2908101 110.64843037 76.88472822 107.88502946 74.5 105 C73.58143996 103.83715247 72.66606809 102.67177941 71.75390625 101.50390625 C69.90936004 99.15612327 68.06281944 96.80992813 66.21484375 94.46484375 C65.7554541 93.88130127 65.29606445 93.29775879 64.82275391 92.6965332 C63.90535851 91.53159951 62.98707573 90.36736404 62.06787109 89.20385742 C59.76056137 86.27522155 57.48679457 83.32764946 55.26171875 80.3359375 C54.81836182 79.74433838 54.37500488 79.15273926 53.91821289 78.54321289 C52.70180925 76.91529418 51.49510025 75.28014432 50.2890625 73.64453125 C45.71083205 68.35534693 41.75978381 67.61569193 35.01171875 67.11328125 C34.34785156 67.07589844 33.68398437 67.03851563 33 67 C33.09422971 72.10487524 33.20046973 77.20931449 33.31738281 82.3137207 C33.35543894 84.04672579 33.39033058 85.77980361 33.421875 87.51293945 C33.468038 90.01800362 33.52594178 92.52257707 33.5859375 95.02734375 C33.59748871 95.79022202 33.60903992 96.55310028 33.62094116 97.33909607 C33.85463502 107.09690358 33.85463502 107.09690358 38.13671875 115.484375 C41.64337456 117.34055843 44.92092636 117.89249658 48.8125 118.25 C49.50537109 118.32734375 50.19824219 118.4046875 50.91210938 118.484375 C52.60647581 118.67133957 54.3030858 118.83777927 56 119 C56 121.31 56 123.62 56 126 C36.86 126 17.72 126 -2 126 C-2 123.69 -2 121.38 -2 119 C-1.09636719 118.82984375 -0.19273438 118.6596875 0.73828125 118.484375 C1.91777344 118.24203125 3.09726563 117.9996875 4.3125 117.75 C5.48425781 117.51796875 6.65601563 117.2859375 7.86328125 117.046875 C11.36854097 115.87700002 12.35397789 115.25833728 14 112 C15.03337414 107.19457616 15.1481555 102.47655564 15.14526367 97.58300781 C15.14862228 96.75938751 15.1519809 95.93576721 15.15544128 95.08718872 C15.16490671 92.37581862 15.16689231 89.66451058 15.16796875 86.953125 C15.17118485 85.05751521 15.17454919 83.16190566 15.17805481 81.26629639 C15.18403539 77.29536362 15.18589586 73.32445258 15.18530273 69.35351562 C15.18520128 64.28544034 15.19884112 59.21750567 15.21607494 54.14946365 C15.22723923 50.23390066 15.22922057 46.31837116 15.22869301 42.40279388 C15.22986693 40.53544379 15.2342554 38.66809266 15.24202538 36.80075836 C15.30506473 23.28436041 15.30506473 23.28436041 13 10 C8.71 9.01 4.42 8.02 0 7 C0 4.69 0 2.38 0 0 Z M33 10 C32.56268602 12.13579983 32.56268602 12.13579983 32.65942383 14.63330078 C32.65965042 15.59414581 32.65987701 16.55499084 32.66011047 17.54495239 C32.67559433 18.58457123 32.69107819 19.62419006 32.70703125 20.6953125 C32.71127609 21.75789276 32.71552094 22.82047302 32.71989441 23.91525269 C32.73672611 27.31875646 32.77438697 30.72167433 32.8125 34.125 C32.82754101 36.42837688 32.84123042 38.73176302 32.85351562 41.03515625 C32.88664426 46.69030505 32.93688803 52.34511068 33 58 C35.86077851 58.03395583 38.72114719 58.05864711 41.58203125 58.078125 C42.38451294 58.08859863 43.18699463 58.09907227 44.01379395 58.10986328 C53.44160534 58.15790308 62.20402682 56.52214767 70 51 C75.21899919 45.63994678 76.2989434 40.01175041 76.375 32.6875 C76.26284499 25.5446276 75.4612421 19.84055631 70.57421875 14.41796875 C61.89941619 6.63978661 49.87460399 7.90223523 38.96875 7.76953125 C35.81380768 7.771224 35.81380768 7.771224 33 10 Z " fill="#C0A268" transform="translate(1287,353)"/>
<path d="M0 0 C8.21585407 -0.07007882 16.43157944 -0.12310069 24.64766026 -0.15543652 C28.46435301 -0.17097047 32.28083855 -0.19197848 36.09741211 -0.22631836 C39.79329853 -0.25935724 43.488988 -0.27694474 47.18501091 -0.28463173 C48.58214346 -0.29009666 49.9792675 -0.300763 51.37631416 -0.31719017 C72.55901832 -0.55594058 91.20650469 4.34089474 106.8125 19.3125 C118.72552775 31.76779928 124.78398552 47.81228955 125.25 65 C124.79662389 81.72157767 119.13427236 96.2509482 107.875 108.625 C94.6901759 121.02048873 77.36079137 126.14528713 59.57421875 126.11352539 C58.88054703 126.11367142 58.18687531 126.11381744 57.47218323 126.1139679 C55.21058879 126.11327885 52.9490798 126.10553439 50.6875 126.09765625 C49.10709681 126.09578848 47.52669304 126.09436627 45.94628906 126.09336853 C41.81010304 126.08957162 37.67395277 126.07976582 33.53778076 126.06866455 C29.30774418 126.05838932 25.07770175 126.05385788 20.84765625 126.04882812 C12.56508785 126.03814071 4.28254839 126.02109868 -4 126 C-4 123.69 -4 121.38 -4 119 C-2.78763672 118.83564453 -2.78763672 118.83564453 -1.55078125 118.66796875 C-0.48214844 118.50941406 0.58648438 118.35085938 1.6875 118.1875 C2.74324219 118.03667969 3.79898438 117.88585937 4.88671875 117.73046875 C8.27329553 116.93587671 10.32484294 116.23476343 13 114 C14.94757349 108.67547188 15.28788346 103.90108809 15.25878906 98.27001953 C15.2622937 97.42513977 15.26579834 96.58026001 15.26940918 95.70977783 C15.27816675 92.93403758 15.27239745 90.15855507 15.265625 87.3828125 C15.26697362 85.44139558 15.26891579 83.499979 15.27142334 81.55856323 C15.27436673 77.4952268 15.27010314 73.4319785 15.26074219 69.36865234 C15.24936341 64.17830426 15.25590217 58.9881634 15.26788712 53.79782295 C15.27513992 49.78964702 15.27280185 45.78151959 15.26763153 41.77334213 C15.26630369 39.8605128 15.26791218 37.94767896 15.27259064 36.03485489 C15.27771058 33.35270911 15.26986879 30.67089111 15.25878906 27.98876953 C15.26283752 27.20925934 15.26688599 26.42974915 15.27105713 25.62661743 C15.22961644 20.16917411 14.32326816 15.29697209 13 10 C8.71 9.01 4.42 8.02 0 7 C0 4.69 0 2.38 0 0 Z M34 9 C33.90725208 21.39588605 33.8362104 33.79168932 33.79275131 46.18785191 C33.77189136 51.94412571 33.7436023 57.70016182 33.69824219 63.45629883 C33.6547284 69.01301848 33.63085091 74.56950974 33.62049103 80.12638664 C33.61310965 82.24465466 33.59869552 84.36291042 33.57707977 86.48108101 C33.54797273 89.45193458 33.54404712 92.42184866 33.54589844 95.39282227 C33.53151733 96.26532623 33.51713623 97.1378302 33.50231934 98.03677368 C33.54141098 103.84778899 34.65293248 107.21911875 38 112 C39.90267274 113.57881564 39.90267274 113.57881564 42 114.375 C42.66 114.67148437 43.32 114.96796875 44 115.2734375 C55.21087227 119.34613719 68.66167001 117.59692666 79.390625 112.96875 C90.00247329 107.62673114 96.14431707 99.35197645 99.93359375 88.26953125 C101.71599156 82.22302384 102.67903681 76.28887251 103 70 C103.04125 69.22269531 103.0825 68.44539063 103.125 67.64453125 C103.56420978 50.81730667 99.6661971 33.63080721 88.12109375 20.93359375 C76.53416433 10.09571836 63.66617444 8.68622423 48.5 8.875 C47.09115219 8.88504931 45.68229745 8.89417171 44.2734375 8.90234375 C40.8487795 8.92580031 37.42448061 8.95862616 34 9 Z " fill="#AF8A54" transform="translate(776,158)"/>
<path d="M0 0 C1.32 -2.97 2.64 -5.94 4 -9 C5.98 -9 7.96 -9 10 -9 C10.10556087 0.16033747 10.02527196 9.28655772 9.5625 18.4375 C9.52326416 19.25968018 9.48402832 20.08186035 9.44360352 20.92895508 C9.12394681 26.75210639 9.12394681 26.75210639 8 29 C5.36 29 2.72 29 0 29 C-0.14695312 28.23816406 -0.29390625 27.47632813 -0.4453125 26.69140625 C-2.2397303 18.43089671 -4.46173831 11.48232951 -11.3671875 6.18359375 C-18.74302015 1.53166282 -25.71586971 -0.3806438 -34.375 -0.3125 C-35.49926392 -0.30404053 -35.49926392 -0.30404053 -36.64624023 -0.29541016 C-47.18882796 -0.06415782 -53.90916966 3.40817744 -61.62109375 10.48828125 C-73.34025043 22.75534655 -75.50600894 41.10477698 -75.35375977 57.32543945 C-74.89586157 72.33504889 -71.90836822 87.95362922 -61.171875 99.09375 C-52.24255805 106.93099221 -42.45589741 108.48930804 -30.89453125 108.31640625 C-22.01215674 107.594769 -13.63506729 105.07038071 -7 99 C-3.13064602 94.24962388 -1.8712074 89.07471776 -2 83 C-2.77266258 79.20799496 -2.77266258 79.20799496 -4 76 C-4.33 75.01 -4.66 74.02 -5 73 C-9.29 72.34 -13.58 71.68 -18 71 C-18 68.69 -18 66.38 -18 64 C-2.49 64 13.02 64 29 64 C29 66.31 29 68.62 29 71 C28.38511719 71.08636719 27.77023437 71.17273438 27.13671875 71.26171875 C26.32847656 71.40222656 25.52023437 71.54273438 24.6875 71.6875 C23.88699219 71.81511719 23.08648438 71.94273437 22.26171875 72.07421875 C19.10501487 73.36634106 18.49552851 74.97323514 17 78 C16.50294226 80.89033449 16.50294226 80.89033449 16.48828125 83.95703125 C16.43510742 85.62475586 16.43510742 85.62475586 16.38085938 87.32617188 C16.35830078 88.47666016 16.33574219 89.62714844 16.3125 90.8125 C16.27833984 91.98232422 16.24417969 93.15214844 16.20898438 94.35742188 C16.12667684 97.23818554 16.05746822 100.11865138 16 103 C15.19715576 103.13801025 14.39431152 103.27602051 13.56713867 103.41821289 C5.34137178 104.90157077 -1.53586767 107.88416124 -8.93481445 111.68725586 C-18.58276611 116.55594096 -27.64658475 118.53386348 -38.4375 118.375 C-39.95234985 118.3586853 -39.95234985 118.3586853 -41.49780273 118.34204102 C-55.53277742 118.04193061 -70.8786234 113.92438064 -81.35546875 103.8984375 C-96.95582019 85.88948073 -99.33921532 66.26293643 -98 43 C-96.0598721 26.95214533 -87.49542546 12.17558289 -75.3125 1.75 C-53.0290361 -15.18543257 -23.19721658 -13.94622239 0 0 Z " fill="#ECE09C" transform="translate(1135,167)"/>
<path d="M0 0 C18.48 0 36.96 0 56 0 C56 2.31 56 4.62 56 7 C55.16855469 7.09796875 54.33710937 7.1959375 53.48046875 7.296875 C51.85044922 7.52117187 51.85044922 7.52117187 50.1875 7.75 C49.10855469 7.88921875 48.02960937 8.0284375 46.91796875 8.171875 C44.01061881 8.77605116 44.01061881 8.77605116 42.23828125 10.515625 C38.06416795 18.89018669 38.67331816 28.39967338 38.6640625 37.515625 C38.65761931 39.01861695 38.65088987 40.5216077 38.64389038 42.02459717 C38.63196998 45.16470237 38.62820406 48.30469801 38.62939453 51.44482422 C38.62959729 55.43322883 38.60231654 59.42091751 38.56785011 63.40915298 C38.54541484 66.51162833 38.54156204 69.61393598 38.54261398 72.71648407 C38.54028211 74.18504041 38.53159792 75.65360313 38.51594925 77.12207794 C38.41588405 87.4823475 38.88114752 98.82667187 45.1875 107.5625 C52.36262685 113.78094327 60.43780291 115.21249423 69.625 115.3125 C70.48996094 115.34150391 71.35492187 115.37050781 72.24609375 115.40039062 C80.9290624 115.48500726 88.05662513 112.6490634 94.49609375 106.77734375 C99.63602161 100.70288355 101.12008055 93.18533814 101.14526367 85.46240234 C101.14862228 84.81463837 101.1519809 84.16687439 101.15544128 83.4994812 C101.16492493 81.36161366 101.16689356 79.22382476 101.16796875 77.0859375 C101.17118481 75.59103361 101.17454914 74.09613004 101.17805481 72.60122681 C101.18404082 69.46575187 101.18589542 66.33030447 101.18530273 63.19482422 C101.18520153 59.20059632 101.19881296 55.20654784 101.21607494 51.21236229 C101.22726519 48.12203176 101.22921974 45.03174351 101.22869301 41.94139481 C101.22986413 40.47037772 101.23423652 38.99935921 101.24202538 37.52836227 C101.67598209 23.68115848 101.67598209 23.68115848 97.0625 11 C92.6543662 8.12121874 88.16673578 7.60625446 83 7 C83 4.69 83 2.38 83 0 C98.84 0 114.68 0 131 0 C131 2.31 131 4.62 131 7 C129.87851563 7.12955078 129.87851563 7.12955078 128.734375 7.26171875 C122.64130325 8.05948131 122.64130325 8.05948131 117.4375 11.0625 C113.42633097 19.25923672 113.70656708 27.95595345 113.69140625 36.87890625 C113.68027141 38.21777924 113.66787079 39.55664223 113.65428162 40.89549255 C113.59949229 46.52960278 113.56843949 52.16378173 113.54370117 57.7980957 C113.33034541 101.91095853 113.33034541 101.91095853 102.03125 115.33984375 C89.87236038 127.16832876 74.88695813 127.38246069 58.9609375 127.21484375 C47.962351 126.93824699 37.40791118 124.82189942 29.03515625 117.21484375 C18.65851649 106.18006617 17.7163322 92.75101552 17.66447449 78.25407219 C17.65606813 75.9781024 17.63546076 73.70251194 17.61193848 71.426651 C17.55599924 65.77932861 17.52042657 60.13191363 17.48431396 54.48443604 C17.45290445 49.695261 17.41359709 44.90627329 17.36405945 40.11725044 C17.34419786 37.89006505 17.33571629 35.66303057 17.32775879 33.43577576 C17.44742606 21.5655462 17.44742606 21.5655462 13.5625 10.5625 C9.40350643 8.02652831 4.77674561 7.62591839 0 7 C0 4.69 0 2.38 0 0 Z " fill="#D5C081" transform="translate(921,353)"/>
<path d="M0 0 C31.35 0 62.7 0 95 0 C96.16071429 19.73214286 96.16071429 19.73214286 96 29 C93.69 29 91.38 29 89 29 C88.84144531 28.34773438 88.68289063 27.69546875 88.51953125 27.0234375 C86.99060522 21.29630023 85.58742868 17.01400009 81 13 C71.70349698 7.93358766 62.04749004 8.53419483 51.8125 8.75 C46.264375 8.8325 40.71625 8.915 35 9 C34.67 24.51 34.34 40.02 34 56 C47.65737808 55.64118013 47.65737808 55.64118013 59.4375 50.0625 C62.41441289 46.13297498 63.33201322 42.89856968 64 38 C66.31 38 68.62 38 71 38 C71 52.85 71 67.7 71 83 C68.69 83 66.38 83 64 83 C63.91363281 82.41992188 63.82726562 81.83984375 63.73828125 81.2421875 C62.72125282 75.58788266 61.42467762 71.95396723 57 68 C51.84604703 65.20370637 46.45827071 64.79365956 40.68359375 64.42578125 C39.4298999 64.34368408 38.17620605 64.26158691 36.88452148 64.17700195 C35.93262939 64.11859131 34.9807373 64.06018066 34 64 C34.04433406 69.69310531 34.11435704 75.38512066 34.20751953 81.07763672 C34.23563035 83.01146743 34.25689379 84.94541093 34.27099609 86.87939453 C34.29256321 89.67017955 34.33928256 92.45962259 34.390625 95.25 C34.39185364 96.10553467 34.39308228 96.96106934 34.39434814 97.8425293 C34.53272078 103.59849152 35.6330972 108.23588262 39 113 C47.95977831 119.17229173 63.19255391 117.99656907 73.62890625 116.46875 C79.03607295 115.22354515 83.9100687 113.89042246 88 110 C91.32831018 104.66724531 93.54241615 99.09535063 95 93 C97.31 93 99.62 93 102 93 C102.36841704 104.21625223 101.13139527 114.68604732 100 126 C66.67 126 33.34 126 -1 126 C-1 123.69 -1 121.38 -1 119 C-0.16855469 118.81824219 0.66289063 118.63648438 1.51953125 118.44921875 C2.60621094 118.19785156 3.69289063 117.94648438 4.8125 117.6875 C5.89144531 117.44386719 6.97039063 117.20023437 8.08203125 116.94921875 C10.97799703 116.00715759 12.169029 115.36627149 14 113 C15.69286166 109.61427668 15.15641511 105.7647404 15.16113281 102.03979492 C15.16609772 101.11119156 15.17106262 100.1825882 15.17617798 99.22584534 C15.190821 96.14404569 15.19760541 93.06229752 15.203125 89.98046875 C15.208875 87.84296161 15.21463275 85.70545449 15.22039795 83.56794739 C15.23091424 79.08134724 15.23675269 74.59476504 15.24023438 70.1081543 C15.2457183 64.3578557 15.26974162 58.607794 15.29820633 52.85756969 C15.31682688 48.44036668 15.32203802 44.02322077 15.32357025 39.60598183 C15.32659897 37.48608417 15.33463485 35.36618757 15.34775543 33.24632835 C15.3648024 30.28016509 15.36293879 27.314581 15.35644531 24.34838867 C15.3656601 23.47183624 15.37487488 22.59528381 15.3843689 21.69216919 C15.35220564 17.00415658 15.13729188 13.75557449 12 10 C9.07608684 8.75694691 9.07608684 8.75694691 5.8125 8.1875 C4.18248047 7.83751953 4.18248047 7.83751953 2.51953125 7.48046875 C1.68808594 7.32191406 0.85664062 7.16335937 0 7 C0 4.69 0 2.38 0 0 Z " fill="#D0B97B" transform="translate(918,158)"/>
<path d="M0 0 C31.02 0 62.04 0 94 0 C94.61404279 4.29829955 95.13914009 8.21638213 95.31640625 12.49609375 C95.35830078 13.46611328 95.40019531 14.43613281 95.44335938 15.43554688 C95.48267578 16.42619141 95.52199219 17.41683594 95.5625 18.4375 C95.60568359 19.45521484 95.64886719 20.47292969 95.69335938 21.52148438 C95.79868582 24.01421028 95.90081672 26.50702338 96 29 C93.69 29 91.38 29 89 29 C88.63648438 27.89591797 88.63648438 27.89591797 88.265625 26.76953125 C85.88290201 19.08887521 85.88290201 19.08887521 81 13 C71.16862163 8.36554599 61.36735694 8.34758966 50.75 8.25 C45.2225 8.1675 39.695 8.085 34 8 C34 23.84 34 39.68 34 56 C48.81921641 55.64473034 48.81921641 55.64473034 60.5 48.1875 C62.10368999 44.77965876 63.1226984 41.65542335 64 38 C65.98 38 67.96 38 70 38 C70 52.85 70 67.7 70 83 C68.02 83 66.04 83 64 83 C63.84144531 82.33613281 63.68289063 81.67226563 63.51953125 80.98828125 C62.0449136 75.40754596 60.86965702 71.4934496 56 68 C50.89482755 65.46877433 45.83332761 64.80681779 40.1875 64.421875 C39.02605469 64.3403418 37.86460938 64.25880859 36.66796875 64.17480469 C35.78753906 64.11711914 34.90710937 64.05943359 34 64 C34.0442189 70.01453252 34.11412294 76.02802189 34.20751953 82.04199219 C34.23569066 84.08650395 34.25692435 86.13112384 34.27099609 88.17578125 C34.29247887 91.12035322 34.3391569 94.06363041 34.390625 97.0078125 C34.39185364 97.9174173 34.39308228 98.82702209 34.39434814 99.76419067 C34.52143737 105.30983736 35.24435414 108.63553878 39 113 C48.63283425 119.07287376 63.68422656 118.11892054 74.625 116.3125 C81.05483889 114.70780699 86.0909096 111.81023327 89.8125 106.25 C92.1840879 102.05164844 93.68332204 97.62442991 95 93 C97.31 93 99.62 93 102 93 C101.85648722 96.06262378 101.7102194 99.1250784 101.5625 102.1875 C101.52318359 103.03248047 101.48386719 103.87746094 101.44335938 104.74804688 C101.0974917 111.85163685 100.54613986 118.90018176 100 126 C66.34 126 32.68 126 -2 126 C-2 123.69 -2 121.38 -2 119 C-1.09636719 118.82984375 -0.19273438 118.6596875 0.73828125 118.484375 C1.91777344 118.24203125 3.09726563 117.9996875 4.3125 117.75 C5.48425781 117.51796875 6.65601563 117.2859375 7.86328125 117.046875 C11.31365504 115.89531812 12.27539501 115.13136468 14 112 C15.30204682 108.09385955 15.14746012 104.38081385 15.14526367 100.30932617 C15.14862228 99.42119736 15.1519809 98.53306854 15.15544128 97.61802673 C15.16495499 94.67632658 15.16689472 91.73468334 15.16796875 88.79296875 C15.17118142 86.74896725 15.17454549 84.70496598 15.17805481 82.66096497 C15.18404739 78.37284818 15.18589461 74.08475154 15.18530273 69.79663086 C15.18520119 64.30546157 15.1988448 58.81442181 15.21607494 53.3232832 C15.22720206 49.09991362 15.22922171 44.87657526 15.22869301 40.65319252 C15.22987238 38.62902696 15.23429175 36.60486058 15.24202538 34.58070946 C15.251838 31.74666701 15.24894196 28.91290451 15.24291992 26.07885742 C15.25134918 24.82788269 15.25134918 24.82788269 15.25994873 23.55163574 C15.23539026 18.99640887 14.85588047 15.24914393 13 11 C11.2793732 9.6942905 11.2793732 9.6942905 9.1875 9.1875 C8.47980469 8.96835937 7.77210937 8.74921875 7.04296875 8.5234375 C4.70562316 7.92457649 2.38489081 7.37263919 0 7 C0 4.69 0 2.38 0 0 Z " fill="#DDCA8A" transform="translate(1169,353)"/>
<path d="M0 0 C0.83490967 0.00612305 1.66981934 0.01224609 2.5300293 0.01855469 C11.63622523 0.2492935 18.35014155 3.07707799 25.625 8.4375 C26.181875 7.4475 26.73875 6.4575 27.3125 5.4375 C28.4571875 3.9525 28.4571875 3.9525 29.625 2.4375 C31.275 2.4375 32.925 2.4375 34.625 2.4375 C35.615 18.7725 35.615 18.7725 36.625 35.4375 C34.315 35.4375 32.005 35.4375 29.625 35.4375 C29.1403125 34.36371094 28.655625 33.28992188 28.15625 32.18359375 C22.21182195 19.24684201 22.21182195 19.24684201 10.8125 11.296875 C3.90055111 9.43335937 -4.39222743 9.05710559 -11 12.125 C-15.22938829 14.67893468 -17.80660552 17.73231656 -19.375 22.4375 C-19.91277607 28.78325761 -19.23187439 33.26752932 -15.375 38.4375 C-7.47063593 45.20372951 2.08924353 49.17646615 11.4609375 53.45507812 C24.42530789 59.50266227 37.55520284 66.66003404 44.375 79.8125 C47.65064863 89.4574654 46.44639105 99.81491582 42.09765625 108.8515625 C36.39845228 118.85918327 27.41542814 123.96261636 16.625 127.4375 C4.65494624 130.5448997 -10.18080522 129.6294899 -21.375 124.4375 C-23.82649042 122.88873991 -26.06462197 121.19539633 -28.375 119.4375 C-31.58561378 120.12635796 -31.58561378 120.12635796 -32.75 123 C-33.28625 123.804375 -33.8225 124.60875 -34.375 125.4375 C-36.9765625 125.58984375 -36.9765625 125.58984375 -39.375 125.4375 C-39.66288454 121.29341735 -39.94759951 117.1491322 -40.22949219 113.00463867 C-40.3256451 111.59735362 -40.42263511 110.19012548 -40.52050781 108.78295898 C-40.66175666 106.74998453 -40.79990504 104.71681839 -40.9375 102.68359375 C-41.02128906 101.46341553 -41.10507813 100.2432373 -41.19140625 98.98608398 C-41.37369255 95.46277097 -41.40665291 91.96482156 -41.375 88.4375 C-39.065 88.4375 -36.755 88.4375 -34.375 88.4375 C-34.16746094 89.18773437 -33.95992187 89.93796875 -33.74609375 90.7109375 C-30.45050554 101.65946068 -26.1355905 109.54663959 -16 115.28125 C-10.19699842 117.83733403 -4.74663013 118.80213533 1.5625 118.75 C2.26616699 118.74508545 2.96983398 118.7401709 3.69482422 118.73510742 C10.76744106 118.57522332 14.98016149 117.13418885 20.9375 113.3125 C24.89517372 109.07870951 26.48959603 104.86209204 26.71875 99.06640625 C26.24625328 92.06164241 23.3438655 87.72307303 18.125 83.125 C12.6661421 79.02860085 6.50463301 76.55548559 0.28759766 73.84448242 C-28.56388258 61.22028924 -28.56388258 61.22028924 -34.75390625 47.359375 C-38.04513634 37.17519131 -37.08530356 26.96082403 -32.375 17.4375 C-25.54600153 5.46080664 -13.41950896 -0.16769315 0 0 Z " fill="#F0E6A1" transform="translate(1106.375,351.5625)"/>
<path d="M0 0 C2.05078125 0.03255208 4.1015625 0.06510417 6.15234375 0.09765625 C6.57218285 1.13952339 6.57218285 1.13952339 7.00050354 2.20243835 C8.10879829 4.95268544 9.21713933 7.70291387 10.32551384 10.45312881 C10.83915337 11.72763716 11.35278067 13.00215043 11.86639595 14.27666855 C14.96609885 21.96835946 18.06721696 29.65947584 21.17138672 37.34936523 C22.32003224 40.19513147 23.46861966 43.04092116 24.6171875 45.88671875 C24.90184875 46.59195993 25.18651001 47.29720112 25.47979736 48.02381325 C28.61010568 55.78000538 31.7339521 63.53860347 34.83329773 71.30723572 C36.17723413 74.67518999 37.52631516 78.04106902 38.87619019 81.40664673 C39.46678747 82.88354996 40.05471623 84.36152374 40.63967896 85.84066772 C46.90075282 103.67587935 46.90075282 103.67587935 59.15234375 117.09765625 C61.82942485 118.00135332 64.36267304 118.56858077 67.15234375 119.09765625 C67.15234375 121.40765625 67.15234375 123.71765625 67.15234375 126.09765625 C49.33234375 126.09765625 31.51234375 126.09765625 13.15234375 126.09765625 C13.15234375 123.78765625 13.15234375 121.47765625 13.15234375 119.09765625 C14.06757812 118.93910156 14.9828125 118.78054688 15.92578125 118.6171875 C17.70855469 118.26720703 17.70855469 118.26720703 19.52734375 117.91015625 C20.71070313 117.68972656 21.8940625 117.46929687 23.11328125 117.2421875 C26.22739084 116.3799354 26.22739084 116.3799354 27.69140625 114.046875 C28.92201981 106.17303399 24.8574629 98.2223346 22.02734375 91.03515625 C20.74859375 87.75578125 19.46984375 84.47640625 18.15234375 81.09765625 C4.29234375 81.09765625 -9.56765625 81.09765625 -23.84765625 81.09765625 C-25.14703125 84.48015625 -26.44640625 87.86265625 -27.78515625 91.34765625 C-28.39798462 92.93755371 -28.39798462 92.93755371 -29.02319336 94.55957031 C-29.34553955 95.40229492 -29.66788574 96.24501953 -30 97.11328125 C-30.32991943 97.97211914 -30.65983887 98.83095703 -30.99975586 99.71582031 C-32.36683457 103.55607943 -32.97013848 106.76886446 -32.91015625 110.84765625 C-32.90113281 111.646875 -32.89210938 112.44609375 -32.8828125 113.26953125 C-32.87121094 113.8728125 -32.85960937 114.47609375 -32.84765625 115.09765625 C-29.17977105 117.05954834 -25.97517074 118.49066882 -21.84765625 119.09765625 C-21.84765625 121.40765625 -21.84765625 123.71765625 -21.84765625 126.09765625 C-35.04765625 126.09765625 -48.24765625 126.09765625 -61.84765625 126.09765625 C-61.84765625 123.78765625 -61.84765625 121.47765625 -61.84765625 119.09765625 C-61.11160156 118.87851562 -60.37554688 118.659375 -59.6171875 118.43359375 C-58.64136719 118.11648438 -57.66554688 117.799375 -56.66015625 117.47265625 C-55.69722656 117.17101562 -54.73429688 116.869375 -53.7421875 116.55859375 C-47.26867882 113.29126278 -44.76912834 107.32711549 -42.30078125 100.8828125 C-41.97591232 100.06274216 -41.6510434 99.24267181 -41.31632996 98.39775085 C-40.23294549 95.65589188 -39.16553912 92.90808564 -38.09765625 90.16015625 C-37.33197348 88.21536205 -36.56509559 86.27103803 -35.79711914 84.32714844 C-34.09696764 80.01925785 -32.40316691 75.70893863 -30.71337891 71.39697266 C-26.12081907 59.68659928 -21.4810053 47.99487554 -16.84333229 36.3023119 C-15.13901392 32.00456486 -13.4383665 27.70538883 -11.74083233 23.40495777 C-10.67487088 20.70560081 -9.60685096 18.00706145 -8.53838539 15.30869484 C-8.03642458 14.03965483 -7.53536506 12.77025792 -7.03523827 11.500494 C-6.34935359 9.75948293 -5.66000331 8.01983832 -4.97045898 6.28027344 C-4.58284897 5.29903503 -4.19523895 4.31779663 -3.79588318 3.30682373 C-2.43168195 0.12852442 -2.43168195 0.12852442 0 0 Z M-2.84765625 26.09765625 C-5.41353113 32.4870766 -7.97674951 38.8775578 -10.53808594 45.26879883 C-11.41051445 47.4448281 -12.28356051 49.62060988 -13.15722656 51.79614258 C-14.40981243 54.91553584 -15.66020557 58.03580004 -16.91015625 61.15625 C-17.50074829 62.62498817 -17.50074829 62.62498817 -18.10327148 64.12339783 C-18.64383179 65.47468529 -18.64383179 65.47468529 -19.1953125 66.85327148 C-19.51508057 67.65047104 -19.83484863 68.44767059 -20.16430664 69.26902771 C-20.90599818 70.92842139 -20.90599818 70.92842139 -20.84765625 72.09765625 C-8.96765625 72.09765625 2.91234375 72.09765625 15.15234375 72.09765625 C9.83894556 56.61949631 4.09715148 41.34370475 -1.84765625 26.09765625 C-2.17765625 26.09765625 -2.50765625 26.09765625 -2.84765625 26.09765625 Z " fill="#AD8751" transform="translate(701.84765625,157.90234375)"/>
<path d="M0 0 C1.134375 0.020625 2.26875 0.04125 3.4375 0.0625 C7.63100529 7.90397092 10.95522419 16.04886103 14.21637535 24.30649376 C15.16053552 26.69702062 16.11024226 29.08528181 17.06123352 31.47309875 C19.08738837 36.5634601 21.1065021 41.6565986 23.125 46.75 C33.3682885 72.73086608 33.3682885 72.73086608 44.08203125 98.51953125 C44.45825119 99.41081223 44.83447113 100.3020932 45.22209167 101.22038269 C47.90794536 107.3851288 50.70037427 113.23774951 56.4375 117.0625 C58.71288323 117.72863335 58.71288323 117.72863335 61.125 118.1875 C61.93324219 118.35507812 62.74148438 118.52265625 63.57421875 118.6953125 C64.49654297 118.87707031 64.49654297 118.87707031 65.4375 119.0625 C65.4375 121.3725 65.4375 123.6825 65.4375 126.0625 C47.6175 126.0625 29.7975 126.0625 11.4375 126.0625 C11.4375 123.7525 11.4375 121.4425 11.4375 119.0625 C12.36433594 118.85753906 13.29117188 118.65257812 14.24609375 118.44140625 C15.44363281 118.17199219 16.64117188 117.90257812 17.875 117.625 C19.06996094 117.35816406 20.26492188 117.09132813 21.49609375 116.81640625 C24.3079686 116.36183252 24.3079686 116.36183252 25.4375 115.0625 C26.16771936 107.02178913 23.93114245 101.01920696 20.9375 93.625 C20.09126135 91.48144956 19.24738379 89.33696499 18.40625 87.19140625 C18.02919922 86.25369385 17.65214844 85.31598145 17.26367188 84.34985352 C16.4375 82.0625 16.4375 82.0625 16.4375 80.0625 C2.2475 80.0625 -11.9425 80.0625 -26.5625 80.0625 C-26.8925 81.7125 -27.2225 83.3625 -27.5625 85.0625 C-28.06252752 86.60034849 -28.59480746 88.12802613 -29.15625 89.64453125 C-29.46433594 90.49466797 -29.77242187 91.34480469 -30.08984375 92.22070312 C-30.73449684 93.97990703 -31.38289272 95.73774424 -32.03515625 97.49414062 C-35.44140063 106.62854577 -35.44140063 106.62854577 -34.5625 116.0625 C-32.00207934 117.09288956 -32.00207934 117.09288956 -29 117.75 C-27.98808594 118.00136719 -26.97617187 118.25273437 -25.93359375 118.51171875 C-25.15113281 118.69347656 -24.36867188 118.87523437 -23.5625 119.0625 C-23.5625 121.3725 -23.5625 123.6825 -23.5625 126.0625 C-36.7625 126.0625 -49.9625 126.0625 -63.5625 126.0625 C-63.5625 123.7525 -63.5625 121.4425 -63.5625 119.0625 C-62.56669922 118.71638672 -62.56669922 118.71638672 -61.55078125 118.36328125 C-60.66777344 118.03714844 -59.78476562 117.71101563 -58.875 117.375 C-58.00488281 117.06175781 -57.13476562 116.74851562 -56.23828125 116.42578125 C-49.74267442 113.11634069 -47.31899635 108.04687873 -44.78881836 101.59423828 C-44.45072364 100.76196276 -44.11262892 99.92968723 -43.7642889 99.07219124 C-42.68498301 96.40696705 -41.62349318 93.73505948 -40.5625 91.0625 C-39.86824624 89.3401813 -39.17286983 87.61831469 -38.47634888 85.89691162 C-36.66447473 81.40865485 -34.86948113 76.91385563 -33.08017159 72.41656113 C-31.90913685 69.47359008 -30.73562169 66.53161828 -29.56150818 63.58987427 C-26.23077301 55.24337875 -22.90468626 46.89503272 -19.5793457 38.54638672 C-17.52984951 33.40137568 -15.47787875 28.25735716 -13.42442131 23.11392593 C-12.26740708 20.21353128 -11.1133676 17.31196417 -9.95936584 14.41036987 C-9.25765983 12.65225847 -8.55579987 10.89420849 -7.85375977 9.13623047 C-7.53329681 8.32810913 -7.21283386 7.51998779 -6.88265991 6.68737793 C-4.2351979 0.07430172 -4.2351979 0.07430172 0 0 Z M-4.5625 26.0625 C-12.49745848 45.13163866 -12.49745848 45.13163866 -20.3125 64.25 C-20.76109375 65.35730469 -21.2096875 66.46460938 -21.671875 67.60546875 C-22.67609427 69.94030267 -22.67609427 69.94030267 -22.5625 72.0625 C-11.0125 72.0625 0.5375 72.0625 12.4375 72.0625 C11.77880419 68.11032512 11.30356289 65.28891805 9.94702148 61.70947266 C9.64678574 60.90909576 9.34654999 60.10871887 9.03721619 59.28408813 C8.71427078 58.44010468 8.39132538 57.59612122 8.05859375 56.7265625 C7.72706802 55.84721039 7.3955423 54.96785828 7.05397034 54.06185913 C5.99946571 51.26842559 4.93735517 48.47795613 3.875 45.6875 C3.15639623 43.78795131 2.43829173 41.88821367 1.72070312 39.98828125 C-0.03459013 35.344146 -1.79670798 30.70265302 -3.5625 26.0625 C-3.8925 26.0625 -4.2225 26.0625 -4.5625 26.0625 Z " fill="#B5935C" transform="translate(853.5625,352.9375)"/>
<path d="M0 0 C1.134375 0.020625 2.26875 0.04125 3.4375 0.0625 C7.63100529 7.90397092 10.95522419 16.04886103 14.21637535 24.30649376 C15.16053552 26.69702062 16.11024226 29.08528181 17.06123352 31.47309875 C19.08738837 36.5634601 21.1065021 41.6565986 23.125 46.75 C33.3682885 72.73086608 33.3682885 72.73086608 44.08203125 98.51953125 C44.45825119 99.41081223 44.83447113 100.3020932 45.22209167 101.22038269 C47.90794536 107.3851288 50.70037427 113.23774951 56.4375 117.0625 C58.71288323 117.72863335 58.71288323 117.72863335 61.125 118.1875 C61.93324219 118.35507812 62.74148438 118.52265625 63.57421875 118.6953125 C64.49654297 118.87707031 64.49654297 118.87707031 65.4375 119.0625 C65.4375 121.3725 65.4375 123.6825 65.4375 126.0625 C47.6175 126.0625 29.7975 126.0625 11.4375 126.0625 C11.4375 123.7525 11.4375 121.4425 11.4375 119.0625 C12.36433594 118.85753906 13.29117187 118.65257812 14.24609375 118.44140625 C15.44363281 118.17199219 16.64117188 117.90257812 17.875 117.625 C19.06996094 117.35816406 20.26492188 117.09132813 21.49609375 116.81640625 C24.3079686 116.36183252 24.3079686 116.36183252 25.4375 115.0625 C26.16771936 107.02178913 23.93114245 101.01920696 20.9375 93.625 C20.09126135 91.48144956 19.24738379 89.33696499 18.40625 87.19140625 C18.02919922 86.25369385 17.65214844 85.31598145 17.26367188 84.34985352 C16.4375 82.0625 16.4375 82.0625 16.4375 80.0625 C2.2475 80.0625 -11.9425 80.0625 -26.5625 80.0625 C-26.8925 81.7125 -27.2225 83.3625 -27.5625 85.0625 C-28.06252752 86.60034849 -28.59480746 88.12802613 -29.15625 89.64453125 C-29.46433594 90.49466797 -29.77242187 91.34480469 -30.08984375 92.22070312 C-30.73449684 93.97990703 -31.38289272 95.73774424 -32.03515625 97.49414062 C-35.44140063 106.62854577 -35.44140063 106.62854577 -34.5625 116.0625 C-32.00207934 117.09288956 -32.00207934 117.09288956 -29 117.75 C-27.98808594 118.00136719 -26.97617188 118.25273437 -25.93359375 118.51171875 C-25.15113281 118.69347656 -24.36867188 118.87523437 -23.5625 119.0625 C-23.5625 121.3725 -23.5625 123.6825 -23.5625 126.0625 C-36.7625 126.0625 -49.9625 126.0625 -63.5625 126.0625 C-63.5625 123.7525 -63.5625 121.4425 -63.5625 119.0625 C-62.56669922 118.71638672 -62.56669922 118.71638672 -61.55078125 118.36328125 C-60.66777344 118.03714844 -59.78476563 117.71101563 -58.875 117.375 C-58.00488281 117.06175781 -57.13476562 116.74851562 -56.23828125 116.42578125 C-49.74267442 113.11634069 -47.31899635 108.04687873 -44.78881836 101.59423828 C-44.45072364 100.76196276 -44.11262892 99.92968723 -43.7642889 99.07219124 C-42.68498301 96.40696705 -41.62349318 93.73505948 -40.5625 91.0625 C-39.86824624 89.3401813 -39.17286983 87.61831469 -38.47634888 85.89691162 C-36.66447473 81.40865485 -34.86948113 76.91385563 -33.08017159 72.41656113 C-31.90913685 69.47359008 -30.73562169 66.53161828 -29.56150818 63.58987427 C-26.23077301 55.24337875 -22.90468626 46.89503272 -19.5793457 38.54638672 C-17.52984951 33.40137568 -15.47787875 28.25735716 -13.42442131 23.11392593 C-12.26740708 20.21353128 -11.1133676 17.31196417 -9.95936584 14.41036987 C-9.25765983 12.65225847 -8.55579987 10.89420849 -7.85375977 9.13623047 C-7.53329681 8.32810913 -7.21283386 7.51998779 -6.88265991 6.68737793 C-4.2351979 0.07430172 -4.2351979 0.07430172 0 0 Z M-4.5625 26.0625 C-12.49745848 45.13163866 -12.49745848 45.13163866 -20.3125 64.25 C-20.76109375 65.35730469 -21.2096875 66.46460938 -21.671875 67.60546875 C-22.67609427 69.94030267 -22.67609427 69.94030267 -22.5625 72.0625 C-11.0125 72.0625 0.5375 72.0625 12.4375 72.0625 C11.77880419 68.11032512 11.30356289 65.28891805 9.94702148 61.70947266 C9.64678574 60.90909576 9.34654999 60.10871887 9.03721619 59.28408813 C8.71427078 58.44010468 8.39132538 57.59612122 8.05859375 56.7265625 C7.72706802 55.84721039 7.3955423 54.96785828 7.05397034 54.06185913 C5.99946571 51.26842559 4.93735517 48.47795613 3.875 45.6875 C3.15639623 43.78795131 2.43829173 41.88821367 1.72070312 39.98828125 C-0.03459013 35.344146 -1.79670798 30.70265302 -3.5625 26.0625 C-3.8925 26.0625 -4.2225 26.0625 -4.5625 26.0625 Z " fill="#D8C485" transform="translate(1230.5625,157.9375)"/>
<path d="M0 0 C6.53329863 1.34415769 12.75347309 3.11614638 19.06640625 5.2578125 C19.98590561 5.56572723 20.90540497 5.87364197 21.85276794 6.19088745 C24.75746244 7.16466707 27.65999365 8.14472001 30.5625 9.125 C32.54478164 9.79078226 34.52720227 10.45615086 36.50976562 11.12109375 C41.34146314 12.74261968 46.17123234 14.36977095 51 16 C49.57513437 18.97981977 48.24491266 20.96478401 45.8046875 23.20703125 C44.8607312 24.08137817 44.8607312 24.08137817 43.89770508 24.97338867 C43.2302124 25.58029541 42.56271973 26.18720215 41.875 26.8125 C41.19139404 27.44196533 40.50778809 28.07143066 39.8034668 28.7199707 C35.93223321 32.27394298 32.02993912 35.78753565 28.0390625 39.20703125 C26.31799176 40.72038656 24.63583838 42.26046573 22.9609375 43.82421875 C22.42106201 44.32671143 21.88118652 44.8292041 21.32495117 45.34692383 C20.25365425 46.34666252 19.1859477 47.35026598 18.12231445 48.3581543 C15.7463438 50.57169211 14.12183258 51.95938914 11 53 C0.96166128 39.3395803 -3.12890392 24.89013939 -2 8 C-1.51525959 5.21692146 -0.84759955 2.70172355 0 0 Z " fill="#E0D08E" transform="translate(313,484)"/>
<path d="M0 0 C6.47564201 1.32760633 12.6086101 3.08676822 18.84765625 5.2578125 C19.74495956 5.56572723 20.64226288 5.87364197 21.5667572 6.19088745 C24.40026089 7.1643776 27.23139267 8.14456542 30.0625 9.125 C31.99659124 9.79081079 33.93083469 10.45617963 35.86523438 11.12109375 C40.57859703 12.74229435 45.28984626 14.36950109 50 16 C45.69839204 29.55608661 35.50956422 38.81121746 23.3125 45.4375 C22.6827124 45.77998779 22.0529248 46.12247559 21.40405273 46.4753418 C17.58465557 48.45019806 14.22808272 49.38802599 10 50 C9.05618205 45.71776975 8.11431592 41.43511571 7.17407227 37.15209961 C6.85556681 35.7024443 6.53657533 34.25289567 6.21704102 32.8034668 C4.51673575 25.08916844 2.84308401 17.37018421 1.26953125 9.62890625 C0.90178589 7.82208374 0.90178589 7.82208374 0.52661133 5.97875977 C0 3 0 3 0 0 Z " fill="#F0E5A0" transform="translate(386,508)"/>
<path d="M0 0 C1.49256019 2.76229198 2.41100786 5.26840763 3.05322266 8.33789062 C3.23325836 9.18557007 3.41329407 10.03324951 3.5987854 10.90661621 C3.78532684 11.81399536 3.97186829 12.72137451 4.1640625 13.65625 C4.36099701 14.59553345 4.55793152 15.53481689 4.76083374 16.50256348 C5.17527168 18.48568761 5.58696181 20.4693877 5.99609375 22.45361328 C6.62296955 25.49016461 7.26003235 28.52444787 7.8984375 31.55859375 C8.30008798 33.48685245 8.70114957 35.41523393 9.1015625 37.34375 C9.2921524 38.25112915 9.48274231 39.1585083 9.67910767 40.09338379 C9.85283905 40.94106323 10.02657043 41.78874268 10.20556641 42.66210938 C10.35941803 43.40505249 10.51326965 44.14799561 10.67178345 44.91345215 C11 47 11 47 11 51 C-8.8140255 51.7111714 -22.52681829 47.98212114 -39 37 C-37.42774566 32.9557072 -34.54827288 30.49426986 -31.375 27.6875 C-30.83302979 27.19967041 -30.29105957 26.71184082 -29.73266602 26.20922852 C-26.20723753 23.04425401 -22.64709976 19.91867724 -19.06640625 16.81640625 C-16.47183932 14.53573777 -13.92500488 12.2053544 -11.375 9.875 C-7.65637597 6.48220812 -3.90968102 3.17001164 0 0 Z " fill="#E7D996" transform="translate(373,510)"/>
<path d="M0 0 C1.42699618 6.65629482 2.85083924 13.31325839 4.27246094 19.97070312 C4.75675518 22.23681016 5.24177906 24.50276139 5.72753906 26.76855469 C6.42443295 30.01977798 7.11872645 33.27154713 7.8125 36.5234375 C8.03123779 37.54118256 8.24997559 38.55892761 8.4753418 39.60751343 C8.67554932 40.54833771 8.87575684 41.48916199 9.08203125 42.45849609 C9.25968018 43.28900482 9.4373291 44.11951355 9.62036133 44.97518921 C10 47 10 47 10 49 C4.09283144 48.3766681 -1.18859429 46.78310551 -6.80078125 44.875 C-7.71836716 44.56804199 -8.63595306 44.26108398 -9.5813446 43.94482422 C-11.50935235 43.29869562 -13.43640757 42.64971848 -15.36254883 41.99804688 C-18.31851248 40.99796582 -21.27711157 40.00603465 -24.23632812 39.015625 C-26.11213598 38.38588357 -27.98779249 37.75569112 -29.86328125 37.125 C-31.19290642 36.67809814 -31.19290642 36.67809814 -32.5493927 36.22216797 C-33.36751938 35.94518066 -34.18564606 35.66819336 -35.02856445 35.3828125 C-35.74913528 35.13934082 -36.46970612 34.89586914 -37.21211243 34.64501953 C-39 34 -39 34 -41 33 C-38.75912537 25.82920119 -33.40911406 20.02274877 -28 15 C-27.49597656 14.47921875 -26.99195313 13.9584375 -26.47265625 13.421875 C-22.05032908 9.12534707 -17.21281449 6.31755712 -11.75 3.5625 C-11.05221436 3.20824951 -10.35442871 2.85399902 -9.63549805 2.48901367 C-6.11844256 0.77901019 -3.9764246 0 0 0 Z " fill="#E3D492" transform="translate(359,439)"/>
<path d="M0 0 C5.19585004 -1.41094204 9.96627427 -2.14282595 15 0 C20.82503657 5.03808873 24.93707282 11.85055749 29.15039062 18.22851562 C31.30568122 21.45803765 33.5853147 24.57477584 35.91113281 27.68261719 C37.96563803 30.43668963 39.97905825 33.22120509 42 36 C42 25.77 42 15.54 42 5 C39.525 4.01 39.525 4.01 37 3 C37 2.01 37 1.02 37 0 C43.27 0 49.54 0 56 0 C56 0.99 56 1.98 56 3 C55.030625 3.2475 54.06125 3.495 53.0625 3.75 C52.051875 4.1625 51.04125 4.575 50 5 C48.9447843 7.79489435 48.85434343 10.52692669 48.79467773 13.49316406 C48.77473251 14.37377502 48.75478729 15.25438599 48.73423767 16.16168213 C48.70916893 17.57438385 48.70916893 17.57438385 48.68359375 19.015625 C48.66281265 19.98659119 48.64203156 20.95755737 48.62062073 21.95794678 C48.55531138 25.05522685 48.49632677 28.15259068 48.4375 31.25 C48.39429708 33.35157111 48.35068222 35.4531338 48.30664062 37.5546875 C48.19964902 42.70303948 48.0983291 47.85147558 48 53 C45.66381836 53.16333008 45.66381836 53.16333008 43 53 C40.92855512 50.93472932 39.29012757 49.01616874 37.5625 46.6875 C37.05460938 46.02830566 36.54671875 45.36911133 36.0234375 44.68994141 C34.32814666 42.47487768 32.66144375 40.24055164 31 38 C30.38753418 37.17677246 29.77506836 36.35354492 29.14404297 35.50537109 C25.58618525 30.71365893 22.05336041 25.90458277 18.54882812 21.07373047 C16.75381137 18.67037732 14.8841672 16.3338673 13 14 C12.97531143 18.5206665 12.95714551 23.0412939 12.94506836 27.56201172 C12.94003448 29.10043013 12.93320692 30.63884375 12.92456055 32.17724609 C12.91245361 34.38640526 12.90676231 36.59550126 12.90234375 38.8046875 C12.89718246 39.49432587 12.89202118 40.18396423 12.88670349 40.89450073 C12.83681836 44.57059655 12.83681836 44.57059655 14 48 C16.52733235 48.65555119 16.52733235 48.65555119 19 49 C19 49.99 19 50.98 19 52 C12.73 52 6.46 52 0 52 C0 51.01 0 50.02 0 49 C0.804375 48.690625 1.60875 48.38125 2.4375 48.0625 C4.89080405 47.23664655 4.89080405 47.23664655 6 46 C6.08868299 43.04294679 6.11520296 40.10934944 6.09765625 37.15234375 C6.09553383 35.82270348 6.09553383 35.82270348 6.09336853 34.46620178 C6.08775215 31.62326746 6.07519691 28.78041069 6.0625 25.9375 C6.05748711 24.01497509 6.05292384 22.09244896 6.04882812 20.16992188 C6.03777741 15.44658451 6.02050183 10.72330542 6 6 C4.02 5.01 2.04 4.02 0 3 C0 2.01 0 1.02 0 0 Z " fill="#A27845" transform="translate(716,543)"/>
<path d="M0 0 C6.3127206 3.81085641 9.75167593 8.81740162 12.12890625 15.734375 C13.78494268 25.12951234 13.86950769 35.81481212 8.5234375 43.97265625 C7.9253125 44.90078125 7.3271875 45.82890625 6.7109375 46.78515625 C2.3902226 51.10587115 -1.34818195 53.19971585 -7.4140625 53.53515625 C-12.80769949 53.26506517 -16.58204676 51.73374104 -20.4765625 47.97265625 C-27.62850693 38.3276593 -28.27559439 29.62710712 -27.4765625 17.97265625 C-25.88539991 11.17666665 -21.57538115 5.63539172 -16.4765625 0.97265625 C-11.3878283 -2.17554645 -5.48495382 -2.27530419 0 0 Z M-15.4765625 6.97265625 C-20.36978269 17.49307966 -19.33750684 32.05338536 -16.4765625 42.97265625 C-14.61539242 45.93889606 -13.5621319 47.42987155 -10.4765625 48.97265625 C-6.95847767 49.36355456 -4.96055023 49.22027788 -1.7890625 47.59765625 C4.61073046 40.3330264 4.21979526 30.12559975 3.69189453 20.93261719 C3.16033987 14.74809431 2.2627596 9.04103929 -1.7890625 4.22265625 C-7.49687407 1.56786017 -11.17415923 2.43123058 -15.4765625 6.97265625 Z " fill="#D1BA7C" transform="translate(969.4765625,543.02734375)"/>
<path d="M0 0 C2.4375 2.3125 2.4375 2.3125 3.375 4.9375 C3.4375 7.3125 3.4375 7.3125 2.4375 9.3125 C-0.3125 9.6875 -0.3125 9.6875 -3.5625 9.3125 C-4.89583333 7.3125 -6.22916667 5.3125 -7.5625 3.3125 C-10.5625 2.39583333 -10.5625 2.39583333 -13.5625 3.3125 C-18.59907722 8.2091723 -19.76330386 13.51933279 -20.5625 20.3125 C-20.03398438 19.8278125 -19.50546875 19.343125 -18.9609375 18.84375 C-14.35567255 15.90358085 -8.81602087 16.61987163 -3.5625 17.3125 C0.15225038 18.94643156 1.97771381 21.66879933 4.3125 24.9375 C6.28358584 30.85075752 6.27835312 36.69101675 4.375 42.625 C1.22615584 46.99275158 -2.40320184 50.59273395 -7.5625 52.3125 C-13.13655193 52.90693561 -18.23630185 52.94520516 -23.02734375 49.78515625 C-28.98966168 44.065579 -30.70639516 36.69217519 -30.875 28.75 C-30.77958339 18.54042299 -27.78028145 9.7042039 -20.5625 2.3125 C-14.54368627 -2.90774876 -7.08629856 -3.35666774 0 0 Z M-20.49609375 26.12109375 C-22.80599171 30.86780714 -22.260266 35.67503229 -20.94140625 40.66015625 C-19.8701903 43.71839453 -18.86954839 46.00545161 -16.5625 48.3125 C-13.55652676 48.65188407 -11.46103457 48.88072757 -8.5625 48.3125 C-4.88846737 44.92108526 -3.78269692 41.84053002 -3.359375 36.98046875 C-3.25126142 31.25945832 -3.86743747 27.37921757 -6.5625 22.3125 C-7.76748787 20.90561702 -7.76748787 20.90561702 -11.25 20.8125 C-15.79058682 20.89431238 -17.83930155 22.53768193 -20.49609375 26.12109375 Z " fill="#E5D694" transform="translate(1050.5625,543.6875)"/>
<path d="M0 0 C12.87 0 25.74 0 39 0 C39.96070434 2.88211302 40.10581883 4.69850044 40.0625 7.6875 C40.05347656 8.49574219 40.04445313 9.30398438 40.03515625 10.13671875 C40.02355469 10.75160156 40.01195312 11.36648438 40 12 C38.0703125 11.65625 38.0703125 11.65625 36 11 C34.875 8.5 34.875 8.5 34 6 C30.70374704 4.35187352 27.00541525 4.61750669 23.375 4.4375 C20.61125 4.293125 17.8475 4.14875 15 4 C14.67 10.27 14.34 16.54 14 23 C22.37364526 21.98427174 22.37364526 21.98427174 25 19 C25.6425235 16.93125966 25.6425235 16.93125966 26 15 C26.99 15 27.98 15 29 15 C29 21.27 29 27.54 29 34 C28.01 34 27.02 34 26 34 C25.505 31.525 25.505 31.525 25 29 C21.37 28.34 17.74 27.68 14 27 C14.11386459 29.77170395 14.24060778 32.54178046 14.375 35.3125 C14.4059375 36.09818359 14.436875 36.88386719 14.46875 37.69335938 C14.50742187 38.45068359 14.54609375 39.20800781 14.5859375 39.98828125 C14.6173584 40.68477783 14.6487793 41.38127441 14.68115234 42.09887695 C14.92118253 44.32532739 14.92118253 44.32532739 17 47 C22.17643749 48.72547916 27.68781929 48.73645842 32.875 46.9375 C36.97753929 44.39392564 37.55212752 42.51395537 39 38 C40.32 38 41.64 38 43 38 C42.67 42.62 42.34 47.24 42 52 C27.81 52 13.62 52 -1 52 C-1 51.01 -1 50.02 -1 49 C0.98 48.34 2.96 47.68 5 47 C5 33.14 5 19.28 5 5 C2.525 4.01 2.525 4.01 0 3 C0 2.01 0 1.02 0 0 Z " fill="#B4915A" transform="translate(832,543)"/>
<path d="M0 0 C4.42522339 2.51007146 7.00224168 5.11725279 8.55859375 10.078125 C9.44569606 17.80858795 7.34453054 23.50949869 2.5703125 29.625 C-2.06106494 34.90429035 -7.05911881 39.5765755 -12.44140625 44.078125 C-7.82140625 44.078125 -3.20140625 44.078125 1.55859375 44.078125 C2.87859375 41.768125 4.19859375 39.458125 5.55859375 37.078125 C6.54859375 37.078125 7.53859375 37.078125 8.55859375 37.078125 C8.41675679 38.82845344 8.26995946 40.57838034 8.12109375 42.328125 C8.03988281 43.30265625 7.95867188 44.2771875 7.875 45.28125 C7.55859375 48.078125 7.55859375 48.078125 6.55859375 52.078125 C-4.33140625 52.078125 -15.22140625 52.078125 -26.44140625 52.078125 C-26.44140625 49.078125 -26.44140625 49.078125 -25.0078125 47.5703125 C-24.34652344 47.03664063 -23.68523438 46.50296875 -23.00390625 45.953125 C-8.95754798 34.23753536 -8.95754798 34.23753536 -1.44140625 18.078125 C-1.10028755 12.70550553 -0.98210389 9.468778 -4.44140625 5.078125 C-7.25056099 3.67354763 -9.32951159 3.82917343 -12.44140625 4.078125 C-14.8452462 5.06846726 -14.8452462 5.06846726 -16.44140625 7.078125 C-17.56533937 11.05511913 -17.49398166 14.10172902 -16.44140625 18.078125 C-14.46140625 18.408125 -12.48140625 18.738125 -10.44140625 19.078125 C-10.81640625 21.015625 -10.81640625 21.015625 -11.44140625 23.078125 C-14.29465062 24.50474719 -16.27595174 24.38846368 -19.44140625 24.078125 C-22.7790167 21.92722049 -24.17611558 20.87399701 -25.44140625 17.078125 C-25.83671498 11.84028435 -25.46928123 8.43069528 -22.44140625 4.078125 C-16.26478502 -1.80437141 -7.95199214 -3.00267223 0 0 Z " fill="#C5AA6F" transform="translate(925.44140625,542.921875)"/>
<path d="M0 0 C0.33 -0.66 0.66 -1.32 1 -2 C1.99 -2 2.98 -2 4 -2 C4 3.28 4 8.56 4 14 C3.01 14 2.02 14 1 14 C-0.24609375 12.35546875 -0.24609375 12.35546875 -1.4375 10.1875 C-3.95513282 5.82463247 -3.95513282 5.82463247 -8 3 C-12.59921933 1.86140184 -16.14949397 1.77319839 -20.75 3 C-26.00536762 6.23407238 -28.72598568 10.1841802 -30.375 16.125 C-31.65179471 23.21425063 -31.12136567 30.69492223 -28.8125 37.5 C-25.91186591 41.50087461 -22.7748724 44.40837587 -18 46 C-12.5303487 46.42074241 -8.74640317 45.81268336 -4 43 C-1.53977088 39.89935041 0.23622547 36.52754907 2 33 C3.32 33 4.64 33 6 33 C6 38.61 6 44.22 6 50 C4.68 50 3.36 50 2 50 C1.34 49.01 0.68 48.02 0 47 C-0.7425 47.474375 -1.485 47.94875 -2.25 48.4375 C-8.61850463 52.05596854 -15.8616573 51.67066503 -23 51 C-29.76491965 48.98856389 -35.35670073 45.1172964 -39 39 C-42.27389519 31.09749436 -42.68001447 19.9246183 -39.375 11.9375 C-38.25390625 9.890625 -38.25390625 9.890625 -37 8 C-36.57589844 7.35546875 -36.15179687 6.7109375 -35.71484375 6.046875 C-26.96583876 -5.55347702 -12.43275036 -5.05738998 0 0 Z " fill="#A67E4A" transform="translate(819,545)"/>
<path d="M0 0 C0.99 -0.33 1.98 -0.66 3 -1 C3.495 5.93 3.495 5.93 4 13 C2.68 13 1.36 13 0 13 C-1.52448631 10.0173094 -2.93940067 7.181798 -4 4 C-5.58129029 3.77668801 -7.16521089 3.57195356 -8.75 3.375 C-9.63171875 3.25898437 -10.5134375 3.14296875 -11.421875 3.0234375 C-14.27712699 2.99748066 -15.66332325 3.38432486 -18 5 C-19.17797389 7.81555347 -19.17797389 7.81555347 -19 11 C-15.91419349 16.066616 -11.71742987 18.0083772 -6.5625 20.5 C-1.24136253 23.08520499 3.10868562 25.38140721 7 30 C8.56840852 34.70522555 8.54895539 38.52648816 6.8125 43.1875 C3.78158714 47.89064064 0.22714117 50.2168025 -5 52 C-12.00122509 52.80582112 -17.61927729 51.88938387 -24 49 C-24.33 49.66 -24.66 50.32 -25 51 C-25.99 51 -26.98 51 -28 51 C-28.33 45.72 -28.66 40.44 -29 35 C-27.68 35.33 -26.36 35.66 -25 36 C-23.98046875 37.7421875 -23.98046875 37.7421875 -23.1875 39.875 C-21.61438449 43.30390022 -21.10894246 43.93422342 -17.6875 46 C-12.67982728 47.35801294 -8.98467506 47.81975709 -4.125 45.8125 C-1.84713766 44.15682212 -1.84713766 44.15682212 -1.0625 41.625 C-0.98381489 38.32022528 -1.3232427 36.88488243 -3 34 C-5.61359792 32.16002706 -8.434434 30.81522082 -11.3125 29.4375 C-23.64995709 23.37864703 -23.64995709 23.37864703 -26.3125 18.6875 C-27.52619752 13.94304605 -27.53051344 10.31365232 -25.6875 5.75 C-19.80323449 -3.83917342 -9.78053032 -3.5782428 0 0 Z " fill="#B8975E" transform="translate(674,544)"/>
<path d="M0 0 C7.26 0 14.52 0 22 0 C22 0.99 22 1.98 22 3 C20.7934375 3.4640625 20.7934375 3.4640625 19.5625 3.9375 C17.10919595 4.76335345 17.10919595 4.76335345 16 6 C15.91125865 9.10251201 15.88481545 12.1826812 15.90234375 15.28515625 C15.90446617 16.68138466 15.90446617 16.68138466 15.90663147 18.1058197 C15.91224828 21.09141191 15.9248036 24.07693029 15.9375 27.0625 C15.94251284 29.08137913 15.94707612 31.10025943 15.95117188 33.11914062 C15.96222317 38.07945572 15.97949905 43.03971532 16 48 C17.98 48.33 19.96 48.66 22 49 C22 49.99 22 50.98 22 52 C14.74 52 7.48 52 0 52 C0 51.01 0 50.02 0 49 C0.804375 48.690625 1.60875 48.38125 2.4375 48.0625 C4.89080405 47.23664655 4.89080405 47.23664655 6 46 C6.08868299 43.04294679 6.11520296 40.10934944 6.09765625 37.15234375 C6.09553383 35.82270348 6.09553383 35.82270348 6.09336853 34.46620178 C6.08775215 31.62326746 6.07519691 28.78041069 6.0625 25.9375 C6.05748711 24.01497509 6.05292384 22.09244896 6.04882812 20.16992188 C6.03777741 15.44658451 6.02050183 10.72330542 6 6 C4.02 5.01 2.04 4.02 0 3 C0 2.01 0 1.02 0 0 Z " fill="#AE8953" transform="translate(688,543)"/>
<path d="M0 0 C0.33 16.17 0.66 32.34 1 49 C2.98 49.33 4.96 49.66 7 50 C7 50.99 7 51.98 7 53 C0.07 53 -6.86 53 -14 53 C-14 52.01 -14 51.02 -14 50 C-11.03 49.505 -11.03 49.505 -8 49 C-8 35.47 -8 21.94 -8 8 C-9.98 7.34 -11.96 6.68 -14 6 C-14 5.01 -14 4.02 -14 3 C-12.0424015 2.49713066 -10.08389623 1.9977901 -8.125 1.5 C-7.03445313 1.2215625 -5.94390625 0.943125 -4.8203125 0.65625 C-2 0 -2 0 0 0 Z " fill="#DBC989" transform="translate(1005,542)"/>
</svg>
